<?xml version="1.0" standalone="no"?> <!DOCTYPE svg PUBLIC "-//W3C//DTD SVG 1.0//EN" "http://www.w3.org/TR/2001/REC-SVG-20010904/DTD/svg10.dtd" > <svg xmlns="http://www.w3.org/2000/svg" width="100%" height="100%">
<defs >
<font id="MyriadPro-Black" horiz-adv-x="456" ><font-face
    font-family="Myriad Pro Black"
    units-per-em="1000"
    panose-1="2 11 8 3 3 4 3 2 2 4"
    ascent="1005"
    descent="-251"
    alphabetic="0" />
<missing-glyph horiz-adv-x="500" d="M0 0V700H500V0H0ZM50 95L220 350L50 605V95ZM80 50H420L250 305L80 50ZM80 650L250 395L420 650H80ZM280 350L450 95V605L280 350Z" />
<glyph unicode=" " glyph-name="space" horiz-adv-x="198" />
<glyph unicode="!" glyph-name="exclam" horiz-adv-x="284" d="M39 92Q39 138 67 167T142 196Q187 196 215 167T244 92Q244 47 216 18T142 -11H141Q96 -11 68 18T39 92ZM49 674H235L209 232H75L49 674Z" />
<glyph unicode="&quot;" glyph-name="quotedbl" horiz-adv-x="423" d="M29 692H184L159 408H54L29 692ZM239 692H395L369 408H265L239 692Z" />
<glyph unicode="#" glyph-name="numbersign" horiz-adv-x="573" d="M37 171V278H136L151 376H68V483H168L193 650H294L269 483H355L380 650H482L457 483H536V376H440L426 278H507V171H407L383 0H280L305 171H220L195 0H92L118 171H37ZM238 278H324L338 376H253L238 278Z" />
<glyph unicode="$" glyph-name="dollar" horiz-adv-x="573" d="M51 48L83 186Q173 142 259 142Q346 142 346 188Q346 211 323 227T242 261Q152 290 104 333T56 448Q56 517 102 567T233 634V727H346V642Q432 640 498 610L466 477Q383 511 315 511Q238 511 238 468Q238
450 264 434T356 395Q449 364 488 319T528 205Q528 134 479 82T342 14V-88H228V5Q121 11 51 48Z" />
<glyph unicode="%" glyph-name="percent" horiz-adv-x="919" d="M26 457Q26 542 78 601T218 661H219Q306 661 355 606T404 468Q404 371 348 316T213 260Q132 260 79 314T26 457ZM158 460Q158 412 173 384T217 356Q272 356 272 460Q272 565 216 565H215Q158 565
158 460ZM227 -11L597 660H689L320 -11H227ZM514 187Q514 273 566 332T706 391H707Q794 391 843 336T892 198Q892 101 836 46T701 -10Q620 -10 567 44T514 187ZM646 190Q646 86 705 86Q760 86 760 190Q760 295 704 295H703Q646 295 646 190Z" />
<glyph unicode="&amp;" glyph-name="ampersand" horiz-adv-x="710" d="M31 181Q31 308 158 373V376Q108 428 108 502Q108 574 165 629T325 685Q410 685 466 640T522 521Q522 416 395 350L394 346Q404 335 423 314T457 276T484 247Q523 308 538 397H698Q669 236
580 138Q647 58 702 0H494Q465 31 458 41Q385 -11 278 -11Q155 -11 93 46T31 181ZM201 211Q201 173 228 146T302 119H303Q348 119 375 141Q344 170 239 286Q201 255 201 211ZM269 519Q269 477 313 432Q370 476 370 517Q370 539 357 557T320 575H319Q296 575 283
558T269 519Z" />
<glyph unicode="&apos;" glyph-name="quotesingle" horiz-adv-x="213" d="M29 692H184L159 408H54L29 692Z" />
<glyph unicode="(" glyph-name="parenleft" horiz-adv-x="328" d="M58 287Q59 530 164 690H287Q196 523 196 287Q196 54 287 -115H164Q58 49 58 287Z" />
<glyph unicode=")" glyph-name="parenright" horiz-adv-x="328" d="M41 -115Q131 50 131 288Q131 525 41 690H163Q270 526 270 288Q269 51 163 -115H41Z" />
<glyph unicode="*" glyph-name="asterisk" horiz-adv-x="471" d="M30 419V535L189 497L190 500L79 628L180 685L233 526H235L291 685L390 628L278 500V497L441 535V419L276 450V448L390 323L290 265L234 425L232 424L178 265L79 323L192 450L191 451L30 419Z" />
<glyph unicode="+" glyph-name="plus" horiz-adv-x="596" d="M40 213V321H242V532H354V321H556V213H354V0H242V213H40Z" />
<glyph unicode="," glyph-name="comma" horiz-adv-x="283" d="M-5 -118Q50 38 74 186L253 196Q195 25 114 -108L-5 -118Z" />
<glyph unicode="-" glyph-name="hyphen" horiz-adv-x="328" d="M30 201V318H298V201H30Z" />
<glyph unicode="." glyph-name="period" horiz-adv-x="283" d="M49 48T49 94T78 169T152 199T225 170T255 94Q255 48 227 19T152 -11H151Q106 -11 78 18Z" />
<glyph unicode="/" glyph-name="slash" horiz-adv-x="326" d="M24 -40L210 685H325L139 -40H24Z" />
<glyph unicode="0" glyph-name="zero" horiz-adv-x="573" d="M31 324Q31 392 45 451T90 558T170 633T288 661Q356 661 407 633T486 555T528 449T542 326Q542 175 477 82T286 -11Q219 -11 168 17T88 93T45 199T31 324ZM211 325Q210 124 288 124Q362 124 362 325Q362
525 288 525Q211 525 211 325Z" />
<glyph unicode="1" glyph-name="one" horiz-adv-x="573" d="M77 568L262 650H410V0H236V491H234L106 434L77 568Z" />
<glyph unicode="2" glyph-name="two" horiz-adv-x="573" d="M41 0V109L131 188Q240 283 285 336T331 437Q331 474 307 495T234 517Q170 517 95 465L46 594Q139 661 271 661Q383 661 447 605T511 451Q511 323 360 201L296 150V148H523V0H41Z" />
<glyph unicode="3" glyph-name="three" horiz-adv-x="573" d="M37 35L71 170Q146 131 225 131Q274 131 302 148T331 200Q331 238 298 258T216 278H149V406H213Q253 406 284 420T315 465Q315 490 292 505T227 520Q158 520 89 483L55 612Q88 633 146 647T269 661Q374
661 435 615T497 496Q497 387 379 346V344Q439 334 478 292T518 189Q518 99 442 44T240 -11Q111 -11 37 35Z" />
<glyph unicode="4" glyph-name="four" horiz-adv-x="573" d="M27 146V262L253 650H479V279H551V146H479V0H309V146H27ZM191 279H309V391Q309 406 314 521H310Q252 399 247 390L192 281L191 279Z" />
<glyph unicode="5" glyph-name="five" horiz-adv-x="573" d="M42 25L72 159Q141 129 221 129Q270 129 305 148T341 210Q341 302 160 302Q119 302 74 297L116 650H495V503H240L231 432Q245 434 269 434Q385 434 454 382Q526 328 526 220Q526 125 447 57T231 -11Q116
-11 42 25Z" />
<glyph unicode="6" glyph-name="six" horiz-adv-x="573" d="M29 276Q29 458 146 564Q250 656 415 659Q438 661 475 658V521Q460 523 419 521Q247 513 212 398H216Q264 439 345 439Q430 439 489 383T549 226T478 58T299 -11Q166 -11 98 72T29 276ZM207 227Q210
183 232 152T296 120H297Q328 120 347 147T366 217Q366 256 346 284T286 313Q232 313 212 265Q207 255 207 227Z" />
<glyph unicode="7" glyph-name="seven" horiz-adv-x="573" d="M45 502V650H526V538L265 0H73L335 500V502H45Z" />
<glyph unicode="8" glyph-name="eight" horiz-adv-x="573" d="M30 172Q30 282 140 331V333Q51 381 51 474Q51 558 119 609T291 661Q404 661 461 610T518 491Q518 448 495 411T429 351V349Q477 331 510 291T544 190Q544 99 473 44T281 -11Q157 -11 94 44T30 172ZM213
189Q213 158 234 135T289 111Q320 111 340 130T360 178Q360 212 337 236T275 269Q246 261 230 240T213 189ZM220 479Q220 454 241 435T298 404Q318 409 334 428T350 471Q350 500 333 520T284 541Q253 541 237 523T220 479Z" />
<glyph unicode="9" glyph-name="nine" horiz-adv-x="573" d="M26 426Q26 524 98 592T281 661Q409 661 474 580T540 379Q540 186 425 82Q326 -6 151 -11Q111 -11 87 -8V130Q110 128 151 129Q224 131 275 160Q338 195 356 257L353 259Q313 222 233 222Q148 222 87
276T26 426ZM205 437Q205 400 224 374T282 347Q328 347 349 379Q355 390 355 419Q356 464 337 497T277 531H276Q245 531 225 505T205 437Z" />
<glyph unicode=":" glyph-name="colon" horiz-adv-x="283" d="M50 48T50 93T78 167T152 197T225 169T254 93Q254 48 226 19T152 -11H151Q106 -11 78 18ZM50 403Q50 449 78 478T152 507T225 479T254 403Q254 358 226 329T152 299H151Q106 299 78 328T50 403Z" />
<glyph unicode=";" glyph-name="semicolon" horiz-adv-x="283" d="M-5 -118Q50 38 74 186L252 196Q194 25 113 -108L-5 -118ZM54 403Q54 449 82 478T156 507Q202 507 229 479T258 403Q258 357 230 328T156 299H155Q110 299 82 328T54 403Z" />
<glyph unicode="&lt;" glyph-name="less" horiz-adv-x="596" d="M54 216V316L542 532V410L190 267V265L542 122V0L54 216Z" />
<glyph unicode="=" glyph-name="equal" horiz-adv-x="596" d="M40 108V215H556V108H40ZM40 319V427H556V319H40Z" />
<glyph unicode="&gt;" glyph-name="greater" horiz-adv-x="596" d="M54 0V122L416 265V267L54 411V532L542 320V212L54 0Z" />
<glyph unicode="?" glyph-name="question" horiz-adv-x="463" d="M47 645Q125 686 225 686Q324 686 376 641T428 527Q428 490 411 454T382 403T342 360Q294 309 294 245L293 231H137L136 256Q134 336 193 406Q213 430 220 439T237 466T247 497Q247 542 184 545Q128
545 85 516L47 645ZM109 92Q109 138 137 166T211 196Q256 196 284 167T314 92Q314 47 286 18T211 -11H210Q165 -11 137 18T109 92Z" />
<glyph unicode="@" glyph-name="at" horiz-adv-x="784" d="M54 212Q54 369 160 480T432 592Q565 592 652 511T739 303Q739 195 685 130T544 64Q466 64 454 137H451Q406 64 328 64Q276 64 245 99T214 197Q214 293 277 360T447 427Q528 427 571 402L543 215Q531
140 566 139Q600 137 628 179T657 301Q657 398 595 461T421 524Q304 524 222 441T139 223Q139 100 209 33T394 -35Q476 -35 537 -6L555 -70Q474 -104 370 -104Q240 -104 147 -17T54 212ZM330 213Q330 157 372 157Q394 157 414 182T440 248L452 335Q442 338 429
338Q388 338 359 301T330 213Z" />
<glyph unicode="A" glyph-name="A" horiz-adv-x="675" d="M14 0L210 674H450L651 0H456L413 156H239L201 0H14ZM263 290H388L357 411Q351 433 339 484T324 544H322Q317 525 307 478T292 410L263 290Z" />
<glyph unicode="B" glyph-name="B" horiz-adv-x="631" d="M62 4V665Q144 679 275 679Q416 679 481 646Q522 627 547 591T572 508Q572 408 462 366V364Q524 347 559 304T594 200Q594 110 519 53Q437 -8 240 -8Q136 -8 62 4ZM241 127Q254 125 293 125Q342 125 373
145T404 208Q404 287 284 287H241V127ZM241 415H277Q391 415 391 485Q391 550 300 550Q265 550 241 546V415Z" />
<glyph unicode="C" glyph-name="C" horiz-adv-x="602" d="M34 326Q34 441 86 524T222 646T409 685Q522 685 578 655L543 513Q483 537 418 537Q334 537 279 487T224 338Q224 245 276 192T421 139Q491 139 542 159L567 17Q506 -11 397 -11Q306 -11 235 16T121 90T56
197T34 326Z" />
<glyph unicode="D" glyph-name="D" horiz-adv-x="710" d="M62 4V665Q152 679 277 679Q456 679 554 612Q676 528 676 353Q676 167 558 76Q451 -8 242 -8Q132 -8 62 4ZM243 135Q252 133 281 133Q373 131 428 185T484 348Q484 443 433 492T298 541Q261 541 243 537V135Z" />
<glyph unicode="E" glyph-name="E" horiz-adv-x="552" d="M62 0V674H500V527H243V418H485V272H243V148H514V0H62Z" />
<glyph unicode="F" glyph-name="F" horiz-adv-x="545" d="M62 0V674H495V527H243V402H480V256H243V0H62Z" />
<glyph unicode="G" glyph-name="G" horiz-adv-x="697" d="M34 328Q35 497 145 589T428 681Q555 681 623 648L587 504Q520 532 427 532Q338 532 281 484T224 337Q224 244 277 191T416 138Q456 138 472 144V260H382V400H646V32Q531 -7 414 -7Q226 -7 130 84T34 328Z" />
<glyph unicode="H" glyph-name="H" horiz-adv-x="705" d="M62 0V674H243V425H462V674H642V0H462V267H243V0H62Z" />
<glyph unicode="I" glyph-name="I" horiz-adv-x="305" d="M62 0V674H243V0H62Z" />
<glyph unicode="J" glyph-name="J" horiz-adv-x="429" d="M-4 5L16 150Q56 139 95 139Q142 139 166 165T191 258V674H372V258Q372 116 307 53T116 -11Q45 -11 -4 5Z" />
<glyph unicode="K" glyph-name="K" horiz-adv-x="646" d="M62 0V674H241V388H243Q262 423 287 462L416 674H638L424 387L646 0H437L295 273L241 204V0H62Z" />
<glyph unicode="L" glyph-name="L" horiz-adv-x="528" d="M62 0V674H243V151H502V0H62Z" />
<glyph unicode="M" glyph-name="M" horiz-adv-x="865" d="M48 0L89 674H332L377 493Q411 351 429 246H433Q474 423 494 494L544 674H782L816 0H640L632 241Q628 398 629 513H626Q597 391 555 249L488 14H347L290 248Q257 388 237 513H235L224 241L214 0H48Z" />
<glyph unicode="N" glyph-name="N" horiz-adv-x="705" d="M62 0V674H275L382 467Q434 372 488 231H491Q477 356 477 515V674H642V0H452L338 224Q266 361 224 468H221Q227 332 227 166V0H62Z" />
<glyph unicode="O" glyph-name="O" horiz-adv-x="730" d="M34 333Q34 484 126 584T369 685Q524 685 610 587T696 344Q696 181 605 85T358 -11Q207 -11 121 87T34 333ZM225 336Q225 242 263 187T367 132Q431 132 468 189T505 338Q505 427 468 484T366 542T264 486T225
336Z" />
<glyph unicode="P" glyph-name="P" horiz-adv-x="602" d="M62 0V665Q148 679 285 679Q429 679 498 626Q533 600 554 557T575 463Q575 356 510 297Q431 227 285 227Q263 227 241 229V0H62ZM241 367Q261 365 282 365Q335 365 366 390T397 459Q397 498 371 520T295
543Q259 543 241 539V367Z" />
<glyph unicode="Q" glyph-name="Q" horiz-adv-x="730" d="M34 332Q34 484 125 584T371 685Q474 685 549 637T660 513T696 345Q696 241 655 164T551 55V50Q596 36 698 14L647 -123Q538 -91 377 -22Q363 -15 328 -11Q271 -7 219 16T125 81T59 187T34 332ZM225 337Q225
245 263 189T366 132H367Q431 132 468 188T505 338Q505 428 468 485T366 542T264 485T225 337Z" />
<glyph unicode="R" glyph-name="R" horiz-adv-x="617" d="M62 0V665Q151 679 280 679Q438 679 508 627Q575 576 575 480Q575 422 540 378T459 317V313Q517 289 545 193Q553 167 565 121T586 43T601 0H416Q397 37 369 155Q356 214 335 233T270 253H241V0H62ZM241
382H288Q338 382 366 405T395 466Q395 544 302 546Q259 546 241 542V382Z" />
<glyph unicode="S" glyph-name="S" horiz-adv-x="561" d="M40 31L74 180Q156 138 249 138Q341 138 341 193Q341 217 318 234T235 271Q46 337 46 474Q46 566 119 625T316 685Q420 685 499 650L461 506Q390 538 314 538Q273 538 251 525T229 488Q229 464 253 450T350
408Q526 344 526 205Q526 112 453 51T238 -11Q181 -11 127 1T40 31Z" />
<glyph unicode="T" glyph-name="T" horiz-adv-x="570" d="M21 523V674H549V523H374V0H193V523H21Z" />
<glyph unicode="U" glyph-name="U" horiz-adv-x="697" d="M61 307V674H242V292Q242 132 348 132Q455 132 455 292V674H636V302Q636 147 561 68T343 -11Q61 -11 61 307Z" />
<glyph unicode="V" glyph-name="V" horiz-adv-x="671" d="M12 674H210L281 409Q315 294 337 173H339Q363 293 395 406L468 674H660L439 0H226L12 674Z" />
<glyph unicode="W" glyph-name="W" horiz-adv-x="906" d="M15 674H209L248 424Q253 389 265 307T283 187H285Q297 279 324 426L367 674H560L602 414Q617 315 632 192H634Q645 275 668 426L708 674H891L725 0H528L483 264Q467 357 455 466H453Q434 328 421 263L370
0H170L15 674Z" />
<glyph unicode="X" glyph-name="X" horiz-adv-x="631" d="M13 0L202 341L19 674H227L272 567Q295 517 317 456H320Q344 526 359 566L401 674H607L423 345L619 0H410L360 110L308 227H306Q301 211 263 111L218 0H13Z" />
<glyph unicode="Y" glyph-name="Y" horiz-adv-x="629" d="M7 674H214L271 522Q291 472 317 398H319Q320 402 362 522L418 674H621L400 279V0H220V272L7 674Z" />
<glyph unicode="Z" glyph-name="Z" horiz-adv-x="588" d="M21 0V96L319 521V525H49V674H553V571L264 153V149H558V0H21Z" />
<glyph unicode="[" glyph-name="bracketleft" horiz-adv-x="328" d="M63 -112V686H276V590H190V-16H276V-112H63Z" />
<glyph unicode="\" glyph-name="backslash" horiz-adv-x="326" d="M16 685H131L302 -40H187L16 685Z" />
<glyph unicode="]" glyph-name="bracketright" horiz-adv-x="328" d="M52 -16H138V590H52V686H265V-112H52V-16Z" />
<glyph unicode="^" glyph-name="asciicircum" horiz-adv-x="596" d="M35 172L246 650H351L562 172H436L299 515H296L158 172H35Z" />
<glyph unicode="_" glyph-name="underscore" horiz-adv-x="500" d="M0 -75H500V-125H0V-75Z" />
<glyph unicode="`" glyph-name="grave" horiz-adv-x="300" d="M-4 706H156L241 550H119L-4 706Z" />
<glyph unicode="a" glyph-name="a" horiz-adv-x="548" d="M27 144Q27 239 104 286T312 335V339Q312 381 232 381Q155 381 93 344L61 459Q149 503 265 503Q385 503 439 445T493 286V120Q493 33 501 0H339L329 43H326Q278 -11 189 -11Q116 -11 72 34T27 144ZM203
161Q203 138 217 126T254 114Q274 114 292 126T316 159Q318 167 318 185V225Q203 225 203 161Z" />
<glyph unicode="b" glyph-name="b" horiz-adv-x="610" d="M52 0Q56 64 56 156V710H236V442H238Q284 503 378 503Q467 503 523 436T579 256Q579 130 512 60T353 -11Q257 -11 213 63H211L204 0H52ZM236 214Q236 203 238 189Q243 165 263 148T309 130Q350 130 373
160T396 248Q396 301 374 333T309 365Q283 365 263 348T238 304Q236 288 236 280V214Z" />
<glyph unicode="c" glyph-name="c" horiz-adv-x="452" d="M31 242Q31 353 106 428T319 503Q383 503 433 486L407 353Q375 366 330 366Q279 366 247 334T215 248Q215 191 249 161T334 130Q384 130 413 142L433 10Q385 -11 297 -11Q174 -11 103 57T31 242Z" />
<glyph unicode="d" glyph-name="d" horiz-adv-x="610" d="M31 243Q30 362 94 432T251 503Q339 503 372 456H374V710H554V156Q554 66 558 0H398L391 67H389Q343 -11 240 -11Q152 -11 92 59T31 243ZM214 247Q214 192 238 162T301 132Q328 132 347 149T371 191Q374
206 374 224V280Q374 295 373 303Q368 330 348 348T301 366Q258 366 236 333T214 247Z" />
<glyph unicode="e" glyph-name="e" horiz-adv-x="539" d="M31 241Q31 286 46 330T90 414T170 478T286 503Q399 503 456 432T513 251Q513 211 506 183H202Q206 155 242 139T328 122Q403 122 463 141L486 21Q407 -11 302 -11Q173 -11 102 56T31 241ZM200 305H347Q347
334 331 359T277 385Q241 385 222 360T200 305Z" />
<glyph unicode="f" glyph-name="f" horiz-adv-x="363" d="M14 360V492H77V509Q77 553 93 597T141 670Q196 721 284 721Q332 721 367 712L363 574Q344 580 317 580Q289 580 273 562T256 516V492H346V360H258V0H77V360H14Z" />
<glyph unicode="g" glyph-name="g" horiz-adv-x="596" d="M31 245Q31 359 95 431T254 503Q340 503 381 440H383L389 492H545Q540 442 540 340V72Q540 -81 464 -148Q392 -209 256 -209Q145 -209 73 -173L107 -37Q173 -72 249 -72Q300 -72 331 -44T363 39V61H361Q318
6 238 6Q147 6 89 72T31 245ZM214 248Q214 199 235 168T294 137Q318 137 335 151T357 186Q360 196 360 223V289Q360 298 358 312Q345 368 294 368Q260 368 237 336T214 248Z" />
<glyph unicode="h" glyph-name="h" horiz-adv-x="599" d="M56 0V710H236V440H238Q265 472 296 486Q330 503 371 503Q454 503 498 447T543 285V0H363V265Q363 358 299 358Q257 358 241 319Q236 309 236 290V0H56Z" />
<glyph unicode="i" glyph-name="i" horiz-adv-x="292" d="M54 591T54 628T79 689T146 713T212 689T238 628Q238 591 213 567T145 542Q104 542 79 566ZM56 0V492H236V0H56Z" />
<glyph unicode="j" glyph-name="j" horiz-adv-x="312" d="M-37 -77Q27 -70 50 -46Q79 -18 79 104V492H259V66Q259 -88 186 -155Q115 -217 -20 -217L-37 -77ZM77 591T77 628T102 689T169 713T235 689T260 628Q261 591 236 567T167 542Q127 542 102 566Z" />
<glyph unicode="k" glyph-name="k" horiz-adv-x="575" d="M56 0V710H236V292H238Q259 334 270 352L351 492H566L396 294L591 0H369L272 188L236 140V0H56Z" />
<glyph unicode="l" glyph-name="l" horiz-adv-x="292" d="M56 0V710H236V0H56Z" />
<glyph unicode="m" glyph-name="m" horiz-adv-x="871" d="M52 492H203L210 431H214Q268 503 359 503Q406 503 441 483T492 425H494Q526 465 562 483Q600 503 649 503Q729 503 772 448T816 290V0H641V263Q641 359 583 359Q543 359 528 317Q523 304 523 281V0H348V268Q348
359 291 359Q253 359 236 318Q231 307 231 282V0H56V325Q56 402 52 492Z" />
<glyph unicode="n" glyph-name="n" horiz-adv-x="599" d="M52 492H207L215 429H219Q238 457 275 480T366 503Q452 503 497 448T543 290V0H363V268Q363 358 300 358Q259 358 241 315Q236 304 236 279V0H56V325Q56 402 52 492Z" />
<glyph unicode="o" glyph-name="o" horiz-adv-x="589" d="M31 243Q31 361 104 432T302 503Q417 503 487 433T558 251Q558 124 481 57T292 -11Q179 -11 105 57T31 243ZM217 246Q217 188 237 152T297 116Q333 116 352 151T372 246Q372 302 353 339T296 376Q255 376
236 339T217 246Z" />
<glyph unicode="p" glyph-name="p" horiz-adv-x="610" d="M52 492H207L215 430H217Q273 503 376 503Q458 503 518 435T579 252Q579 126 512 58T355 -11Q315 -11 284 2T238 36H236V-198H56V325Q56 400 52 492ZM236 215Q236 198 239 185Q244 160 263 143T309 126Q349
126 372 158T396 244T374 330T311 363Q284 363 264 345T238 299Q236 292 236 276V215Z" />
<glyph unicode="q" glyph-name="q" horiz-adv-x="610" d="M31 240Q31 363 95 433T246 503Q335 503 377 442L379 441L383 492H558Q554 390 554 339V-198H374V56H372Q325 -11 233 -11Q151 -11 91 57T31 240ZM214 246Q214 191 238 161T300 130Q327 130 346 147T371
188Q374 197 374 217V282Q374 296 372 302Q367 328 348 345T301 363Q258 363 236 331T214 246Z" />
<glyph unicode="r" glyph-name="r" horiz-adv-x="403" d="M52 492H206L212 403H216Q234 454 271 478T347 503Q370 503 383 500V331Q361 336 337 336Q253 336 239 274Q236 260 236 243V0H56V326Q56 410 52 492Z" />
<glyph unicode="s" glyph-name="s" horiz-adv-x="451" d="M30 24L60 151Q82 137 123 126T197 114Q250 114 250 141Q250 155 238 163T186 184Q40 230 42 334Q42 408 100 455T254 503Q341 503 401 475L372 353Q316 380 263 380Q214 380 214 352Q214 340 229 331T288
307Q359 284 390 247T423 154Q423 80 366 35T198 -11Q98 -11 30 24Z" />
<glyph unicode="t" glyph-name="t" horiz-adv-x="383" d="M16 360V492H77V585L253 632V492H355V360H253V219Q253 174 265 155T310 136Q338 136 353 140V3Q311 -11 246 -11Q168 -11 123 34Q77 80 77 188V360H16Z" />
<glyph unicode="u" glyph-name="u" horiz-adv-x="598" d="M55 202V492H235V231Q235 134 298 134Q341 134 356 176Q361 185 361 202V492H541V168Q541 84 545 0H390L382 65H378Q327 -11 229 -11Q145 -11 100 43T55 202Z" />
<glyph unicode="v" glyph-name="v" horiz-adv-x="551" d="M8 492H204L257 283Q270 233 280 167H283Q293 234 305 283L354 492H543L364 0H183L8 492Z" />
<glyph unicode="w" glyph-name="w" horiz-adv-x="769" d="M8 492H191L220 311Q230 251 244 148H246Q250 173 279 310L318 492H459L496 317Q519 209 529 148H531Q537 209 555 319L585 492H761L614 0H444L410 146Q398 200 383 296H381Q372 211 355 148L319 0H149L8 492Z" />
<glyph unicode="x" glyph-name="x" horiz-adv-x="544" d="M1 0L164 251L3 492H204L243 420Q260 388 279 349H282Q305 403 314 423L347 492H542L383 259L543 0H339L300 79Q280 118 268 149H265Q263 143 251 118T234 79L198 0H1Z" />
<glyph unicode="y" glyph-name="y" horiz-adv-x="545" d="M5 492H205L264 271Q268 256 275 225T285 184H289Q292 197 298 228T307 271L352 492H544L439 180Q386 33 347 -39T263 -149Q194 -211 100 -221L63 -69Q93 -64 124 -50Q161 -36 182 -5Q192 7 192 17Q192
26 185 44L5 492Z" />
<glyph unicode="z" glyph-name="z" horiz-adv-x="486" d="M24 0V103L150 256Q189 302 233 347V350H40V492H454V385L336 241Q278 173 248 145V143H463V0H24Z" />
<glyph unicode="{" glyph-name="braceleft" horiz-adv-x="328" d="M31 244V331Q63 333 80 344T101 368T105 397Q105 408 100 473Q96 525 96 550Q96 686 251 686H292V589H274Q221 588 221 524Q221 512 225 474T229 408Q230 351 208 325T138 289V287Q186 277 208
251T229 167Q229 138 225 100T221 51Q221 -14 274 -15H292V-112H250Q96 -112 96 24Q96 49 100 101Q105 168 105 178Q105 190 103 199T94 219T71 236T31 244Z" />
<glyph unicode="|" glyph-name="bar" horiz-adv-x="302" d="M89 -250V750H213V-250H89Z" />
<glyph unicode="}" glyph-name="braceright" horiz-adv-x="328" d="M36 -15H53Q107 -14 107 51Q107 62 103 100T99 167Q98 225 119 251T190 287V289Q141 299 120 325T99 408Q99 436 103 474T107 524Q107 588 54 589H36V686H77Q232 686 232 550Q232 525 228 473Q223
430 223 397Q223 380 226 368T247 345T296 331V244Q251 241 237 223T223 178Q223 146 228 101Q232 49 232 24Q232 -112 78 -112H36V-15Z" />
<glyph unicode="~" glyph-name="asciitilde" horiz-adv-x="596" d="M40 184Q40 387 189 387Q225 387 254 376T327 338Q393 299 410 299Q441 299 445 380H556Q564 175 415 175Q356 175 277 224Q212 265 193 265Q157 265 151 184H40Z" />
<glyph unicode="&#xa0;" glyph-name="uni00A0" horiz-adv-x="198" />
<glyph unicode="&#xa1;" glyph-name="exclamdown" horiz-adv-x="284" d="M40 393Q40 439 68 468T142 497H143Q188 497 216 468T245 393Q244 348 216 319T143 290Q97 290 69 319T40 393ZM50 -189L76 252H210L235 -189H50Z" />
<glyph unicode="&#xa2;" glyph-name="cent" horiz-adv-x="573" d="M79 328Q79 419 133 489T285 579V672H398V585Q449 581 487 568L462 436Q429 451 379 451Q326 451 295 420T264 335Q264 277 297 248T382 218Q435 218 474 233L494 103Q458 86 398 83V-10H284V86Q190
101 134 165Q79 229 79 328Z" />
<glyph unicode="&#xa3;" glyph-name="sterling" horiz-adv-x="573" d="M49 0V95Q90 110 125 147T160 230Q160 248 158 256H62V377H136Q130 412 130 447Q130 543 196 602T371 661Q448 661 492 637L466 501Q432 519 383 519Q336 519 317 496T297 438Q297 412 305
377H440V256H321Q320 232 310 204Q295 173 269 148V146H522V0H49Z" />
<glyph unicode="&#xa4;" glyph-name="currency" horiz-adv-x="573" d="M14 532L90 612L171 522Q217 557 287 557H288Q355 557 404 524L483 611L559 533L468 452Q499 397 499 336Q499 266 464 217L553 132L478 57L403 149Q355 110 286 110Q215 110 169 148L95 57L20
132L107 215Q72 269 72 334Q72 393 105 452L14 532ZM205 335Q205 286 229 258T286 229Q319 229 343 257T367 336Q367 381 343 410T286 439H285Q252 439 229 411T205 335Z" />
<glyph unicode="&#xa5;" glyph-name="yen" horiz-adv-x="573" d="M-5 650H189L245 510Q252 493 287 393H289Q295 408 309 448T332 510L388 650H577L410 374H525V294H367V234H525V153H367V0H198V153H42V234H198V294H42V374H157L-5 650Z" />
<glyph unicode="&#xa6;" glyph-name="brokenbar" horiz-adv-x="302" d="M89 174H213V-176H89V174ZM89 324V674H213V324H89Z" />
<glyph unicode="&#xa7;" glyph-name="section" horiz-adv-x="579" d="M39 306Q39 342 62 377T126 430Q109 444 97 470T85 524Q85 601 150 643T318 685Q415 685 484 656L460 549Q396 575 322 575Q240 575 240 539Q240 508 338 480Q439 450 490 411T541 297Q541
221 464 175Q511 140 511 81Q511 35 488 1T428 -50T352 -76T275 -84Q151 -84 75 -39L107 69Q182 27 266 27Q348 27 348 65Q348 84 326 97T249 127Q202 140 170 153T105 188T56 238T39 306ZM177 338Q177 295 256 269Q272 263 317 249T375 228Q402 242 402 270Q402
309 341 332Q320 340 272 357T209 380Q196 376 187 365T177 339V338Z" />
<glyph unicode="&#xa8;" glyph-name="dieresis" horiz-adv-x="300" d="M-40 630Q-40 664 -17 686T41 709Q73 709 95 687T117 630Q117 597 95 574T41 551H40Q6 551 -17 574T-40 630ZM182 630Q182 664 204 686T262 709Q295 709 317 687T339 630Q339 597 317 574T262
551H260Q227 551 205 574T182 630Z" />
<glyph unicode="&#xa9;" glyph-name="copyright" horiz-adv-x="677" d="M30 340Q30 468 120 558T340 648H341Q468 648 557 558T647 340Q647 211 558 121T340 30Q211 30 121 120T30 340ZM103 339Q103 237 172 166T339 94Q437 93 506 165T575 339Q575 440 506 512T339
585H338Q241 585 172 513T103 339ZM168 334Q168 417 225 468T364 520Q399 520 432 512T474 492L458 432Q420 454 364 454Q310 454 278 424T246 337Q246 285 279 252T363 219Q424 219 462 243L478 185Q429 153 354 153Q267 153 218 204T168 334Z" />
<glyph unicode="&#xaa;" glyph-name="ordfeminine" horiz-adv-x="392" d="M32 360Q32 417 85 446T229 477V483Q229 485 228 488T224 495T215 503T199 508T174 511Q124 511 78 486L56 559Q115 591 196 591Q276 591 314 552T352 452V344Q352 287 357 266H248L241
296H239Q198 260 141 261Q92 261 62 289T32 360ZM151 371Q151 357 162 348T189 338Q202 338 214 345T231 365Q233 371 233 385V411Q196 411 174 401T151 371Z" />
<glyph unicode="&#xab;" glyph-name="guillemotleft" horiz-adv-x="484" d="M26 252L134 446H255L142 252L255 59H134L26 252ZM233 252L341 446H462L349 252L462 59H341L233 252Z" />
<glyph unicode="&#xac;" glyph-name="logicalnot" horiz-adv-x="596" d="M40 325V433H556V100H444V325H40Z" />
<glyph unicode="&#xad;" glyph-name="uni00AD" horiz-adv-x="291" d="M30 201V318H298V201H30Z" />
<glyph unicode="&#xae;" glyph-name="registered" horiz-adv-x="476" d="M56 511Q56 583 109 634T239 686H240Q315 686 367 635T420 511Q420 437 368 386T239 334T110 386T56 511ZM114 564T114 510T149 419T238 381Q292 380 327 418T363 511Q363 565 328 602T238
639H237Q185 639 150 602ZM164 431V587Q224 593 238 593Q286 593 305 580Q322 568 322 546Q322 535 312 525T284 511V509Q311 501 318 468Q323 447 329 431H268Q263 437 257 462Q254 484 233 484H219V431H164ZM221 520H233Q259 520 259 538Q259 555 235 555Q232
555 228 555T221 554V520Z" />
<glyph unicode="&#xaf;" glyph-name="overscore" horiz-adv-x="300" d="M20 580V675H281V580H20Z" />
<glyph unicode="&#xb0;" glyph-name="degree" horiz-adv-x="373" d="M26 531Q25 595 72 640T187 685H188Q256 685 301 641T347 533Q347 467 300 423T186 379Q117 379 72 423T26 531ZM118 562T118 531T137 479T187 458Q216 458 235 479T255 531T236 584T186 606H185Q157
606 138 584Z" />
<glyph unicode="&#xb1;" glyph-name="plusminus" horiz-adv-x="596" d="M40 0V108H556V0H40ZM40 311V418H242V582H354V418H556V311H354V145H242V311H40Z" />
<glyph unicode="&#xb2;" glyph-name="uni00B2" horiz-adv-x="369" d="M16 443V508L77 562Q88 572 106 587T132 609T152 627T169 645T180 660T188 677T190 693Q190 711 176 721T138 732Q88 732 51 706L17 795Q80 838 173 838Q248 838 291 804T334 714Q334 694 327
675T312 643T286 612T259 587T227 561L206 546V543H341V443H16Z" />
<glyph unicode="&#xb3;" glyph-name="uni00B3" horiz-adv-x="366" d="M10 467L34 556Q88 530 135 530Q162 530 180 539T199 566Q199 585 176 596T120 607H89V685H117Q189 685 189 717Q189 746 141 746Q92 746 48 722L24 806Q79 838 175 838Q248 838 288 810T329
738Q329 674 244 649V647Q287 643 315 619T343 558Q343 503 291 471T153 438Q60 438 10 467Z" />
<glyph unicode="&#xb4;" glyph-name="acute" horiz-adv-x="300" d="M64 550L150 706H309L187 550H64Z" />
<glyph unicode="&#xb5;" glyph-name="uni00B5" horiz-adv-x="598" d="M56 -22V492H236V224Q236 132 295 132Q316 132 333 145T357 175Q362 184 362 202V492H542V171Q542 145 551 135T582 123L572 1Q552 -11 507 -11Q417 -11 386 64H383Q371 35 342 15T270 -6Q241
-6 217 13V-22Q217 -147 228 -198H69Q56 -166 56 -22Z" />
<glyph unicode="&#xb6;" glyph-name="paragraph" horiz-adv-x="556" d="M31 450Q30 484 37 514T65 576T119 629T207 665T335 679Q444 679 489 667V-46H378V570H306V-46H195V264H189Q169 264 144 275T93 308T50 367T31 450Z" />
<glyph unicode="&#xb7;" glyph-name="middot" horiz-adv-x="283" d="M39 212T39 258T68 333T142 363T215 334T245 258Q245 211 217 182T142 153H141Q96 153 68 182Z" />
<glyph unicode="&#xb8;" glyph-name="cedilla" horiz-adv-x="300" d="M43 -184L65 -122Q96 -139 120 -139Q152 -139 152 -116Q152 -87 74 -82L115 5H209L184 -41Q214 -45 235 -65T257 -115Q257 -162 221 -183T129 -205Q75 -205 43 -184Z" />
<glyph unicode="&#xb9;" glyph-name="uni00B9" horiz-adv-x="324" d="M21 784L141 833H260V443H122V723H121L38 688L21 784Z" />
<glyph unicode="&#xba;" glyph-name="ordmasculine" horiz-adv-x="399" d="M26 424Q26 498 74 544T201 591H202Q279 591 325 546T372 430Q372 349 322 305T197 261Q124 261 75 306T26 424ZM151 425Q151 392 163 369T199 346Q247 346 247 427Q247 458 234 482T199
506H198Q174 506 163 481T151 425Z" />
<glyph unicode="&#xbb;" glyph-name="guillemotright" horiz-adv-x="484" d="M23 59L136 252L23 446H142L252 252L142 59H23ZM227 59L340 252L227 446H346L456 252L346 59H227Z" />
<glyph unicode="&#xbc;" glyph-name="onequarter" horiz-adv-x="863" d="M32 607L152 656H271V266H134V546H132L50 511L32 607ZM189 -11L552 661H646L283 -11H189ZM457 85V158L618 394H777V170H827V85H777V0H651V85H457ZM577 171L580 170H651V225Q651 240 653
267T655 304H653Q625 247 616 234L577 171Z" />
<glyph unicode="&#xbd;" glyph-name="onehalf" horiz-adv-x="863" d="M21 607L141 656H260V266H122V546H121L39 511L21 607ZM163 -11L526 661H620L257 -11H163ZM504 0V65L565 119Q575 128 593 144T619 166T639 184T656 202T667 217T675 234T677 250Q677 289 626
289Q576 289 539 263L505 352Q568 395 660 395Q735 395 778 361T821 271Q821 238 803 208T768 162T715 118L694 103V100H829V0H504Z" />
<glyph unicode="&#xbe;" glyph-name="threequarters" horiz-adv-x="863" d="M26 290L50 379Q104 353 150 353Q177 353 196 362T215 389Q215 408 192 419T136 430H105V508H133Q205 508 205 540Q205 569 157 569T63 545L39 629Q96 661 191 661Q264 661 304 633T345
561Q345 497 260 472V470Q303 466 331 442T359 381Q359 326 307 294T169 261Q76 261 26 290ZM218 -11L582 661H676L312 -11H218ZM466 85V158L627 394H786V170H836V85H786V0H660V85H466ZM587 171L590 170H660V225Q660 236 665 304H662Q634 247 625 234L587 171Z"
/>
<glyph unicode="&#xbf;" glyph-name="questiondown" horiz-adv-x="463" d="M36 -41Q36 -29 37 -18T41 3T48 24T56 42T66 60T77 75T89 90T100 103T111 115T122 127Q170 178 170 242V256H327L328 231Q330 151 270 80Q268 77 262 70T253 59T245 49T237 39T231 29T225
18T221 9T218 -1T217 -11Q217 -56 280 -59Q336 -59 379 -30L416 -159Q340 -200 239 -200Q140 -200 88 -155T36 -41ZM150 393Q150 439 178 468T252 497H253Q298 497 326 468T355 393Q355 348 327 319T253 290T180 319T150 393Z" />
<glyph unicode="&#xc0;" glyph-name="Agrave" horiz-adv-x="675" d="M14 0L210 674H450L651 0H456L413 156H239L201 0H14ZM149 836H333L413 712H270L149 836ZM263 290H388L357 411Q351 433 339 484T324 544H322Q317 525 307 478T292 410L263 290Z" />
<glyph unicode="&#xc1;" glyph-name="Aacute" horiz-adv-x="675" d="M14 0L210 674H450L651 0H456L413 156H239L201 0H14ZM253 710L334 836H517L397 710H253ZM263 290H388L357 411Q351 433 339 484T324 544H322Q317 525 307 478T292 410L263 290Z" />
<glyph unicode="&#xc2;" glyph-name="Acircumflex" horiz-adv-x="675" d="M14 0L210 674H450L651 0H456L413 156H239L201 0H14ZM170 710L269 836H404L503 710H382L337 769H335L291 710H170ZM263 290H388L357 411Q351 433 339 484T324 544H322Q317 525 307 478T292
410L263 290Z" />
<glyph unicode="&#xc3;" glyph-name="Atilde" horiz-adv-x="675" d="M14 0L210 674H450L651 0H456L413 156H239L201 0H14ZM194 714Q192 783 213 818T275 853Q304 853 340 834Q371 814 383 814Q396 814 401 823T410 858H488Q492 721 404 721Q373 721 337 739Q306
757 296 757Q276 757 273 714H194ZM263 290H388L357 411Q351 433 339 484T324 544H322Q317 525 307 478T292 410L263 290Z" />
<glyph unicode="&#xc4;" glyph-name="Adieresis" horiz-adv-x="675" d="M14 0L210 674H450L651 0H456L413 156H239L201 0H14ZM155 754T155 786T177 840T233 862Q264 862 285 840T307 786T286 732T233 709H232Q200 709 178 731ZM263 290H388L357 411Q351 433 339
484T324 544H322Q317 525 307 478T292 410L263 290ZM373 754T373 786T395 840T450 862Q482 862 503 840T525 786T503 732T450 709H449Q416 709 395 731Z" />
<glyph unicode="&#xc5;" glyph-name="Aring" horiz-adv-x="675" d="M14 0L210 674H450L651 0H456L413 156H239L201 0H14ZM211 803Q211 847 243 876T333 906H334Q392 906 423 878T454 804Q454 760 422 732T333 703T244 731T211 803ZM263 290H388L357 411Q351 433
339 484T324 544H322Q317 525 307 478T292 410L263 290ZM289 821T289 803T300 773T331 760Q351 760 363 772T375 803Q375 821 363 834T331 848H330Q311 848 300 835Z" />
<glyph unicode="&#xc6;" glyph-name="AE" horiz-adv-x="902" d="M4 0L282 674H835V527H563L577 414H833V268H600L617 148H876V0H462L441 161H248L190 0H4ZM301 305H420L401 455L389 548H386Q380 528 369 493T356 452L301 305Z" />
<glyph unicode="&#xc7;" glyph-name="Ccedilla" horiz-adv-x="602" d="M34 326Q34 441 86 524T222 646T409 685Q522 685 578 655L543 513Q483 537 418 537Q334 537 279 487T224 338Q224 245 276 192T421 139Q491 139 542 159L567 17Q514 -7 415 -10L400 -42Q474
-61 474 -126Q474 -177 437 -200T347 -224Q291 -224 255 -204L277 -135Q303 -149 334 -149Q367 -149 367 -126Q367 -99 288 -91L326 -5Q181 14 108 105T34 326Z" />
<glyph unicode="&#xc8;" glyph-name="Egrave" horiz-adv-x="552" d="M62 0V674H500V527H243V418H485V272H243V148H514V0H62ZM107 836H291L371 712H228L107 836Z" />
<glyph unicode="&#xc9;" glyph-name="Eacute" horiz-adv-x="552" d="M62 0V674H500V527H243V418H485V272H243V148H514V0H62ZM203 710L284 836H467L347 710H203Z" />
<glyph unicode="&#xca;" glyph-name="Ecircumflex" horiz-adv-x="552" d="M62 0V674H500V527H243V418H485V272H243V148H514V0H62ZM122 710L221 836H356L455 710H334L289 769H287L243 710H122Z" />
<glyph unicode="&#xcb;" glyph-name="Edieresis" horiz-adv-x="552" d="M62 0V674H500V527H243V418H485V272H243V148H514V0H62ZM93 754T93 786T115 840T171 862Q202 862 223 840T245 786T224 732T171 709H170Q138 709 116 731ZM311 754T311 786T333 840T388 862Q420
862 441 840T463 786T441 732T388 709H387Q354 709 333 731Z" />
<glyph unicode="&#xcc;" glyph-name="Igrave" horiz-adv-x="305" d="M-29 836H155L235 712H92L-29 836ZM62 0V674H243V0H62Z" />
<glyph unicode="&#xcd;" glyph-name="Iacute" horiz-adv-x="305" d="M62 0V674H243V0H62ZM69 710L150 836H333L213 710H69Z" />
<glyph unicode="&#xce;" glyph-name="Icircumflex" horiz-adv-x="305" d="M-14 710L85 836H220L319 710H198L153 769H151L107 710H-14ZM62 0V674H243V0H62Z" />
<glyph unicode="&#xcf;" glyph-name="Idieresis" horiz-adv-x="305" d="M-33 754T-33 786T-11 840T45 862Q76 862 97 840T119 786T98 732T45 709H44Q12 709 -10 731ZM62 0V674H243V0H62ZM185 754T185 786T207 840T262 862Q294 862 315 840T337 786T315 732T262
709H261Q228 709 207 731Z" />
<glyph unicode="&#xd0;" glyph-name="Eth" horiz-adv-x="719" d="M5 274V414H71V667Q168 682 286 682Q384 682 448 667T563 617Q685 533 685 354Q685 166 567 73Q460 -11 251 -11Q141 -11 71 1V274H5ZM252 132Q261 130 290 130Q384 130 438 183T493 348Q493 449
443 496T307 544Q274 544 252 539V414H365V274H252V132Z" />
<glyph unicode="&#xd1;" glyph-name="Ntilde" horiz-adv-x="705" d="M62 0V674H275L382 467Q434 372 488 231H491Q477 356 477 515V674H642V0H452L338 224Q266 361 224 468H221Q227 332 227 166V0H62ZM207 714Q205 783 226 818T288 853Q317 853 353 834Q384 814
396 814Q409 814 414 823T423 858H501Q505 721 417 721Q386 721 350 739Q319 757 309 757Q289 757 286 714H207Z" />
<glyph unicode="&#xd2;" glyph-name="Ograve" horiz-adv-x="730" d="M34 333Q34 484 126 584T369 685Q524 685 610 587T696 344Q696 181 605 85T358 -11Q207 -11 121 87T34 333ZM183 836H367L447 712H304L183 836ZM225 336Q225 242 263 187T367 132Q431 132 468
189T505 338Q505 427 468 484T366 542T264 486T225 336Z" />
<glyph unicode="&#xd3;" glyph-name="Oacute" horiz-adv-x="730" d="M34 333Q34 484 126 584T369 685Q524 685 610 587T696 344Q696 181 605 85T358 -11Q207 -11 121 87T34 333ZM225 336Q225 242 263 187T367 132Q431 132 468 189T505 338Q505 427 468 484T366
542T264 486T225 336ZM288 710L369 836H552L432 710H288Z" />
<glyph unicode="&#xd4;" glyph-name="Ocircumflex" horiz-adv-x="730" d="M34 333Q34 484 126 584T369 685Q524 685 610 587T696 344Q696 181 605 85T358 -11Q207 -11 121 87T34 333ZM199 710L298 836H433L532 710H411L366 769H364L320 710H199ZM225 336Q225 242
263 187T367 132Q431 132 468 189T505 338Q505 427 468 484T366 542T264 486T225 336Z" />
<glyph unicode="&#xd5;" glyph-name="Otilde" horiz-adv-x="730" d="M34 333Q34 484 126 584T369 685Q524 685 610 587T696 344Q696 181 605 85T358 -11Q207 -11 121 87T34 333ZM219 712Q217 781 238 816T300 851Q329 851 365 832Q396 812 408 812Q421 812 426
821T435 856H513Q517 719 429 719Q398 719 362 737Q331 755 321 755Q301 755 298 712H219ZM225 336Q225 242 263 187T367 132Q431 132 468 189T505 338Q505 427 468 484T366 542T264 486T225 336Z" />
<glyph unicode="&#xd6;" glyph-name="Odieresis" horiz-adv-x="730" d="M34 333Q34 484 126 584T369 685Q524 685 610 587T696 344Q696 181 605 85T358 -11Q207 -11 121 87T34 333ZM180 754T180 786T202 840T258 862Q289 862 310 840T332 786T311 732T258 709H257Q225
709 203 731ZM225 336Q225 242 263 187T367 132Q431 132 468 189T505 338Q505 427 468 484T366 542T264 486T225 336ZM398 754T398 786T420 840T475 862Q507 862 528 840T550 786T528 732T475 709H474Q441 709 420 731Z" />
<glyph unicode="&#xd7;" glyph-name="multiply" horiz-adv-x="596" d="M40 77L223 263L40 450L115 526L298 339L482 526L556 450L373 263L556 77L481 0L298 187L115 0L40 77Z" />
<glyph unicode="&#xd8;" glyph-name="Oslash" horiz-adv-x="730" d="M34 338Q34 485 125 585T366 685Q444 685 506 658L560 739L661 671L607 588Q696 493 696 341Q696 181 605 85T365 -11Q294 -11 232 14L172 -77L75 -1L130 83Q34 181 34 338ZM215 337Q215 285
231 238H232L424 530Q398 545 366 545Q297 545 256 489T215 337ZM315 142Q334 129 366 129Q435 129 475 185T515 338Q515 385 504 426L502 427L315 142Z" />
<glyph unicode="&#xd9;" glyph-name="Ugrave" horiz-adv-x="697" d="M61 307V674H242V292Q242 132 348 132Q455 132 455 292V674H636V302Q636 147 561 68T343 -11Q61 -11 61 307ZM169 836H353L433 712H290L169 836Z" />
<glyph unicode="&#xda;" glyph-name="Uacute" horiz-adv-x="697" d="M61 307V674H242V292Q242 132 348 132Q455 132 455 292V674H636V302Q636 147 561 68T343 -11Q61 -11 61 307ZM260 710L341 836H524L404 710H260Z" />
<glyph unicode="&#xdb;" glyph-name="Ucircumflex" horiz-adv-x="697" d="M61 307V674H242V292Q242 132 348 132Q455 132 455 292V674H636V302Q636 147 561 68T343 -11Q61 -11 61 307ZM195 710L294 836H429L528 710H407L362 769H360L316 710H195Z" />
<glyph unicode="&#xdc;" glyph-name="Udieresis" horiz-adv-x="697" d="M61 307V674H242V292Q242 132 348 132Q455 132 455 292V674H636V302Q636 147 561 68T343 -11Q61 -11 61 307ZM171 754T171 786T193 840T249 862Q280 862 301 840T323 786T302 732T249 709H248Q216
709 194 731ZM389 754T389 786T411 840T466 862Q498 862 519 840T541 786T519 732T466 709H465Q432 709 411 731Z" />
<glyph unicode="&#xdd;" glyph-name="Yacute" horiz-adv-x="629" d="M7 674H214L271 522Q291 472 317 398H319Q320 402 362 522L418 674H621L400 279V0H220V272L7 674ZM239 710L320 836H503L383 710H239Z" />
<glyph unicode="&#xde;" glyph-name="Thorn" horiz-adv-x="601" d="M62 0V674H240V557Q285 560 317 560Q440 560 505 506Q574 450 574 354Q574 231 499 174T306 117Q295 117 240 122V0H62ZM240 262Q264 256 297 256Q347 256 371 279T396 341Q396 380 371 402T297
424Q260 424 240 420V262Z" />
<glyph unicode="&#xdf;" glyph-name="germandbls" horiz-adv-x="622" d="M56 0V422Q56 580 135 653Q208 721 330 721Q430 721 495 668T561 529Q561 477 537 447Q485 420 485 383Q485 354 513 325Q538 297 549 284T575 237T591 167Q591 86 536 38T380 -11Q310 -11
272 3L293 135Q315 124 356 124Q380 124 394 134T409 161Q409 183 381 214Q333 265 319 295Q304 326 304 359Q304 398 324 431T381 485Q388 499 388 516Q388 544 370 564T321 585Q236 585 236 439V0H56Z" />
<glyph unicode="&#xe0;" glyph-name="agrave" horiz-adv-x="548" d="M27 144Q27 239 104 286T312 335V339Q312 381 232 381Q155 381 93 344L61 459Q149 503 265 503Q385 503 439 445T493 286V120Q493 33 501 0H339L329 43H326Q278 -11 189 -11Q116 -11 72 34T27
144ZM103 706H263L348 550H226L103 706ZM203 161Q203 138 217 126T254 114Q274 114 292 126T316 159Q318 167 318 185V225Q203 225 203 161Z" />
<glyph unicode="&#xe1;" glyph-name="aacute" horiz-adv-x="548" d="M27 144Q27 239 104 286T312 335V339Q312 381 232 381Q155 381 93 344L61 459Q149 503 265 503Q385 503 439 445T493 286V120Q493 33 501 0H339L329 43H326Q278 -11 189 -11Q116 -11 72 34T27
144ZM198 550L284 706H443L321 550H198ZM203 161Q203 138 217 126T254 114Q274 114 292 126T316 159Q318 167 318 185V225Q203 225 203 161Z" />
<glyph unicode="&#xe2;" glyph-name="acircumflex" horiz-adv-x="548" d="M27 144Q27 239 104 286T312 335V339Q312 381 232 381Q155 381 93 344L61 459Q149 503 265 503Q385 503 439 445T493 286V120Q493 33 501 0H339L329 43H326Q278 -11 189 -11Q116 -11 72
34T27 144ZM109 550L211 706H331L432 550H319L272 634H270L223 550H109ZM203 161Q203 138 217 126T254 114Q274 114 292 126T316 159Q318 167 318 185V225Q203 225 203 161Z" />
<glyph unicode="&#xe3;" glyph-name="atilde" horiz-adv-x="548" d="M27 144Q27 239 104 286T312 335V339Q312 381 232 381Q155 381 93 344L61 459Q149 503 265 503Q385 503 439 445T493 286V120Q493 33 501 0H339L329 43H326Q278 -11 189 -11Q116 -11 72 34T27
144ZM112 554Q110 622 134 659T200 697Q231 697 267 677Q299 657 309 657Q322 657 327 666T335 702H415Q419 562 327 562Q296 562 254 584Q227 600 218 600Q196 600 195 554H112ZM203 161Q203 138 217 126T254 114Q274 114 292 126T316 159Q318 167 318 185V225Q203
225 203 161Z" />
<glyph unicode="&#xe4;" glyph-name="adieresis" horiz-adv-x="548" d="M27 144Q27 239 104 286T312 335V339Q312 381 232 381Q155 381 93 344L61 459Q149 503 265 503Q385 503 439 445T493 286V120Q493 33 501 0H339L329 43H326Q278 -11 189 -11Q116 -11 72 34T27
144ZM84 630Q84 664 107 686T165 709Q197 709 219 687T241 630Q241 597 219 574T165 551H164Q130 551 107 574T84 630ZM203 161Q203 138 217 126T254 114Q274 114 292 126T316 159Q318 167 318 185V225Q203 225 203 161ZM306 630Q306 664 328 686T386 709Q419 709
441 687T463 630Q463 597 441 574T386 551H384Q351 551 329 574T306 630Z" />
<glyph unicode="&#xe5;" glyph-name="aring" horiz-adv-x="548" d="M27 144Q27 239 104 286T312 335V339Q312 381 232 381Q155 381 93 344L61 459Q149 503 265 503Q385 503 439 445T493 286V120Q493 33 501 0H339L329 43H326Q278 -11 189 -11Q116 -11 72 34T27
144ZM155 639Q155 684 187 712T278 741Q335 741 365 713T396 640Q396 596 364 568T277 540Q221 540 188 568T155 639ZM203 161Q203 138 217 126T254 114Q274 114 292 126T316 159Q318 167 318 185V225Q203 225 203 161ZM233 639Q233 622 244 609T276 595Q297 595
308 608T320 640T308 672T275 686Q255 686 244 672T233 639Z" />
<glyph unicode="&#xe6;" glyph-name="ae" horiz-adv-x="816" d="M27 149Q27 238 105 284T314 331V343Q314 349 308 356T281 372T229 380Q163 380 96 343L62 456Q153 503 244 503Q358 503 408 434H410Q474 503 576 503Q679 503 734 431T789 251Q789 242 785 190H482Q486
160 519 141T605 121Q677 121 743 147L766 27Q691 -11 578 -11Q516 -11 467 9T390 68H386Q316 -11 203 -11Q123 -11 75 34T27 149ZM203 162Q203 139 218 127T256 114Q294 114 315 152Q320 161 320 180V223Q203 223 203 162ZM481 310H625Q625 326 621 341T600 371T555
387Q519 387 500 362T481 310Z" />
<glyph unicode="&#xe7;" glyph-name="ccedilla" horiz-adv-x="452" d="M31 242Q31 353 106 428T319 503Q383 503 433 486L407 353Q375 366 330 366Q279 366 247 334T215 248Q215 191 249 161T334 130Q384 130 413 142L433 10Q396 -7 326 -10L311 -42Q385 -61 385
-126Q385 -177 348 -200T258 -224Q202 -224 166 -204L188 -135Q214 -149 245 -149Q278 -149 278 -126Q278 -99 199 -91L237 -5Q140 11 86 76T31 242Z" />
<glyph unicode="&#xe8;" glyph-name="egrave" horiz-adv-x="539" d="M31 241Q31 286 46 330T90 414T170 478T286 503Q399 503 456 432T513 251Q513 211 506 183H202Q206 155 242 139T328 122Q403 122 463 141L486 21Q407 -11 302 -11Q173 -11 102 56T31 241ZM113
706H273L358 550H236L113 706ZM200 305H347Q347 334 331 359T277 385Q241 385 222 360T200 305Z" />
<glyph unicode="&#xe9;" glyph-name="eacute" horiz-adv-x="539" d="M31 241Q31 286 46 330T90 414T170 478T286 503Q399 503 456 432T513 251Q513 211 506 183H202Q206 155 242 139T328 122Q403 122 463 141L486 21Q407 -11 302 -11Q173 -11 102 56T31 241ZM200
305H347Q347 334 331 359T277 385Q241 385 222 360T200 305ZM213 550L299 706H458L336 550H213Z" />
<glyph unicode="&#xea;" glyph-name="ecircumflex" horiz-adv-x="539" d="M31 241Q31 286 46 330T90 414T170 478T286 503Q399 503 456 432T513 251Q513 211 506 183H202Q206 155 242 139T328 122Q403 122 463 141L486 21Q407 -11 302 -11Q173 -11 102 56T31 241ZM119
550L221 706H341L442 550H329L282 634H280L233 550H119ZM200 305H347Q347 334 331 359T277 385Q241 385 222 360T200 305Z" />
<glyph unicode="&#xeb;" glyph-name="edieresis" horiz-adv-x="539" d="M31 241Q31 286 46 330T90 414T170 478T286 503Q399 503 456 432T513 251Q513 211 506 183H202Q206 155 242 139T328 122Q403 122 463 141L486 21Q407 -11 302 -11Q173 -11 102 56T31 241ZM96
630Q96 664 119 686T177 709Q209 709 231 687T253 630Q253 597 231 574T177 551H176Q142 551 119 574T96 630ZM200 305H347Q347 334 331 359T277 385Q241 385 222 360T200 305ZM318 630Q318 664 340 686T398 709Q431 709 453 687T475 630Q475 597 453 574T398 551H396Q363
551 341 574T318 630Z" />
<glyph unicode="&#xec;" glyph-name="igrave" horiz-adv-x="292" d="M-31 706H129L214 550H92L-31 706ZM56 0V492H236V0H56Z" />
<glyph unicode="&#xed;" glyph-name="iacute" horiz-adv-x="292" d="M56 0V492H236V0H56ZM75 550L161 706H320L198 550H75Z" />
<glyph unicode="&#xee;" glyph-name="icircumflex" horiz-adv-x="292" d="M-16 550L86 706H206L307 550H194L147 634H145L98 550H-16ZM56 0V492H236V0H56Z" />
<glyph unicode="&#xef;" glyph-name="idieresis" horiz-adv-x="292" d="M-45 630Q-45 664 -22 686T36 709Q68 709 90 687T112 630Q112 597 90 574T36 551H35Q2 551 -21 574T-45 630ZM56 0V492H236V0H56ZM177 630Q177 664 199 686T257 709Q290 709 312 687T334
630Q334 597 312 574T257 551H255Q222 551 200 574T177 630Z" />
<glyph unicode="&#xf0;" glyph-name="eth" horiz-adv-x="589" d="M31 238Q31 339 98 402T267 468Q296 470 320 459L322 462Q285 504 248 526L104 465L73 533L173 576Q139 596 84 619L162 717Q244 690 326 638L469 697L503 632L398 589Q474 528 518 442Q558 365
558 259Q558 128 481 59T295 -11Q181 -11 106 57T31 238ZM217 239Q217 186 236 151T296 116H297Q334 116 353 149T372 241Q372 310 353 335Q332 362 297 362Q255 362 236 325T217 239Z" />
<glyph unicode="&#xf1;" glyph-name="ntilde" horiz-adv-x="599" d="M52 492H207L215 429H219Q238 457 275 480T366 503Q452 503 497 448T543 290V0H363V268Q363 358 300 358Q259 358 241 315Q236 304 236 279V0H56V325Q56 402 52 492ZM150 554Q148 622 172 659T238
697Q269 697 305 677Q337 657 347 657Q360 657 365 666T373 702H453Q457 562 365 562Q334 562 292 584Q265 600 256 600Q234 600 233 554H150Z" />
<glyph unicode="&#xf2;" glyph-name="ograve" horiz-adv-x="589" d="M31 243Q31 361 104 432T302 503Q417 503 487 433T558 251Q558 124 481 57T292 -11Q179 -11 105 57T31 243ZM127 706H287L372 550H250L127 706ZM217 246Q217 188 237 152T297 116Q333 116 352
151T372 246Q372 302 353 339T296 376Q255 376 236 339T217 246Z" />
<glyph unicode="&#xf3;" glyph-name="oacute" horiz-adv-x="589" d="M31 243Q31 361 104 432T302 503Q417 503 487 433T558 251Q558 124 481 57T292 -11Q179 -11 105 57T31 243ZM217 246Q217 188 237 152T297 116Q333 116 352 151T372 246Q372 302 353 339T296
376Q255 376 236 339T217 246ZM221 550L307 706H466L344 550H221Z" />
<glyph unicode="&#xf4;" glyph-name="ocircumflex" horiz-adv-x="589" d="M31 243Q31 361 104 432T302 503Q417 503 487 433T558 251Q558 124 481 57T292 -11Q179 -11 105 57T31 243ZM133 550L235 706H355L456 550H343L296 634H294L247 550H133ZM217 246Q217 188
237 152T297 116Q333 116 352 151T372 246Q372 302 353 339T296 376Q255 376 236 339T217 246Z" />
<glyph unicode="&#xf5;" glyph-name="otilde" horiz-adv-x="589" d="M31 243Q31 361 104 432T302 503Q417 503 487 433T558 251Q558 124 481 57T292 -11Q179 -11 105 57T31 243ZM143 554Q141 622 165 659T231 697Q262 697 298 677Q330 657 340 657Q353 657 358
666T366 702H446Q450 562 358 562Q327 562 285 584Q258 600 249 600Q227 600 226 554H143ZM217 246Q217 188 237 152T297 116Q333 116 352 151T372 246Q372 302 353 339T296 376Q255 376 236 339T217 246Z" />
<glyph unicode="&#xf6;" glyph-name="odieresis" horiz-adv-x="589" d="M31 243Q31 361 104 432T302 503Q417 503 487 433T558 251Q558 124 481 57T292 -11Q179 -11 105 57T31 243ZM104 630Q104 664 127 686T185 709Q217 709 239 687T261 630Q261 597 239 574T185
551H184Q150 551 127 574T104 630ZM217 246Q217 188 237 152T297 116Q333 116 352 151T372 246Q372 302 353 339T296 376Q255 376 236 339T217 246ZM326 630Q326 664 348 686T406 709Q439 709 461 687T483 630Q483 597 461 574T406 551H404Q371 551 349 574T326
630Z" />
<glyph unicode="&#xf7;" glyph-name="divide" horiz-adv-x="596" d="M40 213V321H556V213H40ZM217 54T217 91T239 150T298 173Q335 173 357 151T380 91Q380 54 358 32T298 9H297Q261 9 239 31ZM217 406T217 443T239 502T298 525Q335 525 357 503T380 443Q380 406
358 384T298 361H297Q261 361 239 383Z" />
<glyph unicode="&#xf8;" glyph-name="oslash" horiz-adv-x="589" d="M31 246Q31 360 103 431T294 503H295Q362 503 411 480L460 553L519 512L472 442Q558 373 558 247Q558 124 481 57T296 -11Q228 -11 183 11L132 -64L75 -20L120 48Q31 116 31 246ZM204 246Q204
209 213 187L216 186L334 363Q316 376 294 376Q248 376 226 337T204 246ZM257 130Q271 116 296 116Q338 116 361 150T385 242Q385 276 378 300L375 301L257 130Z" />
<glyph unicode="&#xf9;" glyph-name="ugrave" horiz-adv-x="598" d="M55 202V492H235V231Q235 134 298 134Q341 134 356 176Q361 185 361 202V492H541V168Q541 84 545 0H390L382 65H378Q327 -11 229 -11Q145 -11 100 43T55 202ZM128 706H288L373 550H251L128 706Z" />
<glyph unicode="&#xfa;" glyph-name="uacute" horiz-adv-x="598" d="M55 202V492H235V231Q235 134 298 134Q341 134 356 176Q361 185 361 202V492H541V168Q541 84 545 0H390L382 65H378Q327 -11 229 -11Q145 -11 100 43T55 202ZM228 550L314 706H473L351 550H228Z" />
<glyph unicode="&#xfb;" glyph-name="ucircumflex" horiz-adv-x="598" d="M55 202V492H235V231Q235 134 298 134Q341 134 356 176Q361 185 361 202V492H541V168Q541 84 545 0H390L382 65H378Q327 -11 229 -11Q145 -11 100 43T55 202ZM138 550L240 706H360L461
550H348L301 634H299L252 550H138Z" />
<glyph unicode="&#xfc;" glyph-name="udieresis" horiz-adv-x="598" d="M55 202V492H235V231Q235 134 298 134Q341 134 356 176Q361 185 361 202V492H541V168Q541 84 545 0H390L382 65H378Q327 -11 229 -11Q145 -11 100 43T55 202ZM112 630Q112 664 135 686T193
709Q225 709 247 687T269 630Q269 597 247 574T193 551H192Q158 551 135 574T112 630ZM334 630Q334 664 356 686T414 709Q447 709 469 687T491 630Q491 597 469 574T414 551H412Q379 551 357 574T334 630Z" />
<glyph unicode="&#xfd;" glyph-name="yacute" horiz-adv-x="545" d="M5 492H205L264 271Q268 256 275 225T285 184H289Q292 197 298 228T307 271L352 492H544L439 180Q386 33 347 -39T263 -149Q194 -211 100 -221L63 -69Q93 -64 124 -50Q161 -36 182 -5Q192 7
192 17Q192 26 185 44L5 492ZM217 550L303 706H462L340 550H217Z" />
<glyph unicode="&#xfe;" glyph-name="thorn" horiz-adv-x="610" d="M56 -198V680H236V439H238Q283 503 376 503Q457 505 518 437T579 249Q579 184 559 132T505 50T435 5T359 -11Q278 -11 238 38H236V-198H56ZM236 204Q236 175 252 156Q277 126 309 126Q349 126
372 158T396 247Q396 298 374 330T314 363Q268 363 246 324Q236 304 236 285V204Z" />
<glyph unicode="&#xff;" glyph-name="ydieresis" horiz-adv-x="545" d="M5 492H205L264 271Q268 256 275 225T285 184H289Q292 197 298 228T307 271L352 492H544L439 180Q386 33 347 -39T263 -149Q194 -211 100 -221L63 -69Q93 -64 124 -50Q161 -36 182 -5Q192
7 192 17Q192 26 185 44L5 492ZM94 630Q94 664 117 686T175 709Q207 709 229 687T251 630Q251 597 229 574T175 551H174Q140 551 117 574T94 630ZM316 630Q316 664 338 686T396 709Q429 709 451 687T473 630Q473 597 451 574T396 551H394Q361 551 339 574T316 630Z"
/>
<glyph unicode="&#x100;" glyph-name="Amacron" horiz-adv-x="675" d="M14 0L210 674H450L651 0H456L413 156H239L201 0H14ZM199 735V827H466V735H199ZM263 290H388L357 411Q351 433 339 484T324 544H322Q317 525 307 478T292 410L263 290Z" />
<glyph unicode="&#x101;" glyph-name="amacron" horiz-adv-x="548" d="M27 144Q27 239 104 286T312 335V339Q312 381 232 381Q155 381 93 344L61 459Q149 503 265 503Q385 503 439 445T493 286V120Q493 33 501 0H339L329 43H326Q278 -11 189 -11Q116 -11 72 34T27
144ZM144 580V675H405V580H144ZM203 161Q203 138 217 126T254 114Q274 114 292 126T316 159Q318 167 318 185V225Q203 225 203 161Z" />
<glyph unicode="&#x102;" glyph-name="Abreve" horiz-adv-x="675" d="M14 0L210 674H450L651 0H456L413 156H239L201 0H14ZM188 841H281Q285 796 334 796Q384 796 393 841H482Q481 779 444 743T335 706Q260 706 225 742T188 841ZM263 290H388L357 411Q351 433
339 484T324 544H322Q317 525 307 478T292 410L263 290Z" />
<glyph unicode="&#x103;" glyph-name="abreve" horiz-adv-x="548" d="M27 144Q27 239 104 286T312 335V339Q312 381 232 381Q155 381 93 344L61 459Q149 503 265 503Q385 503 439 445T493 286V120Q493 33 501 0H339L329 43H326Q278 -11 189 -11Q116 -11 72 34T27
144ZM129 697H220Q227 639 273 639Q325 639 329 697H419Q418 629 381 588T273 547Q204 547 167 588T129 697ZM203 161Q203 138 217 126T254 114Q274 114 292 126T316 159Q318 167 318 185V225Q203 225 203 161Z" />
<glyph unicode="&#x104;" glyph-name="Aogonek" horiz-adv-x="675" d="M14 0L210 674H450L651 0H551Q538 -30 538 -57Q538 -82 554 -98T594 -115Q616 -115 637 -108L662 -190Q615 -225 550 -225Q493 -225 461 -196T429 -110Q429 -94 432 -75T440 -44T449 -17T456
0L413 156H239L201 0H14ZM263 290H388L357 411Q351 433 339 484T324 544H322Q317 525 307 478T292 410L263 290Z" />
<glyph unicode="&#x105;" glyph-name="aogonek" horiz-adv-x="548" d="M27 144Q27 239 104 286T312 335V339Q312 381 232 381Q155 381 93 344L61 459Q149 503 265 503Q385 503 439 445T493 286V120Q493 33 501 0H434Q421 -29 421 -60Q421 -85 434 -99T468 -113T512
-103L537 -186Q486 -225 421 -225Q372 -225 342 -197T312 -115Q312 -73 339 0L329 43H326Q278 -11 189 -11Q116 -11 72 34T27 144ZM203 161Q203 138 217 126T254 114Q274 114 292 126T316 159Q318 167 318 185V225Q203 225 203 161Z" />
<glyph unicode="&#x106;" glyph-name="Cacute" horiz-adv-x="602" d="M34 326Q34 441 86 524T222 646T409 685Q522 685 578 655L543 513Q483 537 418 537Q334 537 279 487T224 338Q224 245 276 192T421 139Q491 139 542 159L567 17Q506 -11 397 -11Q306 -11 235
16T121 90T56 197T34 326ZM287 710L368 836H551L431 710H287Z" />
<glyph unicode="&#x107;" glyph-name="cacute" horiz-adv-x="452" d="M31 242Q31 353 106 428T319 503Q383 503 433 486L407 353Q375 366 330 366Q279 366 247 334T215 248Q215 191 249 161T334 130Q384 130 413 142L433 10Q385 -11 297 -11Q174 -11 103 57T31
242ZM201 550L287 706H446L324 550H201Z" />
<glyph unicode="&#x108;" glyph-name="Ccircumflex" horiz-adv-x="602" d="M34 326Q34 441 86 524T222 646T409 685Q522 685 578 655L543 513Q483 537 418 537Q334 537 279 487T224 338Q224 245 276 192T421 139Q491 139 542 159L567 17Q506 -11 397 -11Q306 -11
235 16T121 90T56 197T34 326ZM197 714L296 840H431L530 714H409L364 773H362L318 714H197Z" />
<glyph unicode="&#x109;" glyph-name="ccircumflex" horiz-adv-x="452" d="M31 242Q31 353 106 428T319 503Q383 503 433 486L407 353Q375 366 330 366Q279 366 247 334T215 248Q215 191 249 161T334 130Q384 130 413 142L433 10Q385 -11 297 -11Q174 -11 103
57T31 242ZM106 550L208 706H328L429 550H316L269 634H267L220 550H106Z" />
<glyph unicode="&#x10a;" glyph-name="Cdotaccent" horiz-adv-x="602" d="M34 326Q34 441 86 524T222 646T409 685Q522 685 578 655L543 513Q483 537 418 537Q334 537 279 487T224 338Q224 245 276 192T421 139Q491 139 542 159L567 17Q506 -11 397 -11Q306 -11
235 16T121 90T56 197T34 326ZM286 786Q286 819 309 840T365 862Q397 862 418 841T440 786Q440 755 418 732T365 709H364Q332 709 309 732T286 786Z" />
<glyph unicode="&#x10b;" glyph-name="cdotaccent" horiz-adv-x="452" d="M31 242Q31 353 106 428T319 503Q383 503 433 486L407 353Q375 366 330 366Q279 366 247 334T215 248Q215 191 249 161T334 130Q384 130 413 142L433 10Q385 -11 297 -11Q174 -11 103 57T31
242ZM203 630Q203 664 226 686T284 709Q316 709 338 687T360 630Q360 597 338 574T284 551H283Q250 551 227 574T203 630Z" />
<glyph unicode="&#x10c;" glyph-name="Ccaron" horiz-adv-x="602" d="M34 326Q34 441 86 524T222 646T409 685Q522 685 578 655L543 513Q483 537 418 537Q334 537 279 487T224 338Q224 245 276 192T421 139Q491 139 542 159L567 17Q506 -11 397 -11Q306 -11 235
16T121 90T56 197T34 326ZM199 836H321L365 777H367L411 836H532L433 710H299L199 836Z" />
<glyph unicode="&#x10d;" glyph-name="ccaron" horiz-adv-x="452" d="M31 242Q31 353 106 428T319 503Q383 503 433 486L407 353Q375 366 330 366Q279 366 247 334T215 248Q215 191 249 161T334 130Q384 130 413 142L433 10Q385 -11 297 -11Q174 -11 103 57T31
242ZM111 706H224L271 622H273L320 706H434L332 550H212L111 706Z" />
<glyph unicode="&#x10e;" glyph-name="Dcaron" horiz-adv-x="710" d="M62 4V665Q152 679 277 679Q456 679 554 612Q676 528 676 353Q676 167 558 76Q451 -8 242 -8Q132 -8 62 4ZM161 836H283L327 777H329L373 836H494L395 710H261L161 836ZM243 135Q252 133 281
133Q373 131 428 185T484 348Q484 443 433 492T298 541Q261 541 243 537V135Z" />
<glyph unicode="&#x10f;" glyph-name="dcaron" horiz-adv-x="620" d="M31 243Q30 362 94 432T251 503Q339 503 372 456H374V710H554V156Q554 66 558 0H398L391 67H389Q343 -11 240 -11Q152 -11 92 59T31 243ZM214 247Q214 192 238 162T301 132Q328 132 347 149T371
191Q374 206 374 224V280Q374 295 373 303Q368 330 348 348T301 366Q258 366 236 333T214 247ZM592 530Q617 578 617 636Q617 670 601 706L711 723Q723 714 732 692T741 647Q741 548 669 484L592 530Z" />
<glyph unicode="&#x110;" glyph-name="Dcroat" horiz-adv-x="719" d="M5 274V414H71V667Q168 682 286 682Q384 682 448 667T563 617Q685 533 685 354Q685 166 567 73Q460 -11 251 -11Q141 -11 71 1V274H5ZM252 132Q261 130 290 130Q384 130 438 183T493 348Q493
449 443 496T307 544Q274 544 252 539V414H365V274H252V132Z" />
<glyph unicode="&#x111;" glyph-name="" horiz-adv-x="610" d="M31 243Q30 362 94 432T251 503Q339 503 372 456H374V535H200V630H374V710H554V630H636V535H554V156Q554 66 558 0H398L391 67H389Q343 -11 240 -11Q152 -11 92 59T31 243ZM214 247Q214 192 238 162T301
132Q328 132 347 149T371 191Q374 206 374 224V280Q374 295 373 303Q368 330 348 348T301 366Q258 366 236 333T214 247Z" />
<glyph unicode="&#x112;" glyph-name="Emacron" horiz-adv-x="552" d="M62 0V674H500V527H243V418H485V272H243V148H514V0H62ZM143 735V827H410V735H143Z" />
<glyph unicode="&#x113;" glyph-name="emacron" horiz-adv-x="539" d="M31 241Q31 286 46 330T90 414T170 478T286 503Q399 503 456 432T513 251Q513 211 506 183H202Q206 155 242 139T328 122Q403 122 463 141L486 21Q407 -11 302 -11Q173 -11 102 56T31 241ZM143
580V675H404V580H143ZM200 305H347Q347 334 331 359T277 385Q241 385 222 360T200 305Z" />
<glyph unicode="&#x114;" glyph-name="Ebreve" horiz-adv-x="552" d="M62 0V674H500V527H243V418H485V272H243V148H514V0H62ZM139 842H232Q236 797 285 797Q335 797 344 842H433Q432 780 395 744T286 707Q211 707 176 743T139 842Z" />
<glyph unicode="&#x115;" glyph-name="ebreve" horiz-adv-x="539" d="M31 241Q31 286 46 330T90 414T170 478T286 503Q399 503 456 432T513 251Q513 211 506 183H202Q206 155 242 139T328 122Q403 122 463 141L486 21Q407 -11 302 -11Q173 -11 102 56T31 241ZM130
697H221Q228 639 274 639Q326 639 330 697H420Q419 629 382 588T274 547Q205 547 168 588T130 697ZM200 305H347Q347 334 331 359T277 385Q241 385 222 360T200 305Z" />
<glyph unicode="&#x116;" glyph-name="Edotaccent" horiz-adv-x="552" d="M62 0V674H500V527H243V418H485V272H243V148H514V0H62ZM199 786Q199 819 222 840T278 862Q310 862 331 841T353 786Q353 755 331 732T278 709H277Q245 709 222 732T199 786Z" />
<glyph unicode="&#x117;" glyph-name="edotaccent" horiz-adv-x="539" d="M31 241Q31 286 46 330T90 414T170 478T286 503Q399 503 456 432T513 251Q513 211 506 183H202Q206 155 242 139T328 122Q403 122 463 141L486 21Q407 -11 302 -11Q173 -11 102 56T31 241ZM197
630Q197 664 220 686T278 709Q310 709 332 687T354 630Q354 597 332 574T278 551H277Q244 551 221 574T197 630ZM200 305H347Q347 334 331 359T277 385Q241 385 222 360T200 305Z" />
<glyph unicode="&#x118;" glyph-name="Eogonek" horiz-adv-x="552" d="M62 0V674H500V527H243V418H485V272H243V148H514V0H484Q459 -17 441 -41T422 -86Q422 -99 431 -107T456 -115Q476 -115 498 -107L522 -189Q473 -225 403 -225Q352 -225 323 -199T294 -127Q294
-53 360 0H62Z" />
<glyph unicode="&#x119;" glyph-name="eogonek" horiz-adv-x="539" d="M31 241Q31 286 46 330T90 414T170 478T286 503Q399 503 456 432T513 251Q513 211 506 183H202Q206 155 242 139T328 122Q403 122 463 141L486 21Q469 14 444 6Q415 -9 389 -36T362 -86Q362
-115 393 -115Q412 -115 437 -105L463 -186Q416 -225 346 -225Q295 -225 267 -201T238 -136Q238 -70 303 -12V-11H295Q170 -10 101 57T31 241ZM200 305H347Q347 334 331 359T277 385Q241 385 222 360T200 305Z" />
<glyph unicode="&#x11a;" glyph-name="Ecaron" horiz-adv-x="552" d="M62 0V674H500V527H243V418H485V272H243V148H514V0H62ZM110 836H232L276 777H278L322 836H443L344 710H210L110 836Z" />
<glyph unicode="&#x11b;" glyph-name="ecaron" horiz-adv-x="539" d="M31 241Q31 286 46 330T90 414T170 478T286 503Q399 503 456 432T513 251Q513 211 506 183H202Q206 155 242 139T328 122Q403 122 463 141L486 21Q407 -11 302 -11Q173 -11 102 56T31 241ZM112
706H225L272 622H274L321 706H435L333 550H213L112 706ZM200 305H347Q347 334 331 359T277 385Q241 385 222 360T200 305Z" />
<glyph unicode="&#x11c;" glyph-name="Gcircumflex" horiz-adv-x="697" d="M34 328Q35 497 145 589T428 681Q555 681 623 648L587 504Q520 532 427 532Q338 532 281 484T224 337Q224 244 277 191T416 138Q456 138 472 144V260H382V400H646V32Q531 -7 414 -7Q226
-7 130 84T34 328ZM213 714L312 840H447L546 714H425L380 773H378L334 714H213Z" />
<glyph unicode="&#x11d;" glyph-name="gcircumflex" horiz-adv-x="596" d="M31 245Q31 359 95 431T254 503Q340 503 381 440H383L389 492H545Q540 442 540 340V72Q540 -81 464 -148Q392 -209 256 -209Q145 -209 73 -173L107 -37Q173 -72 249 -72Q300 -72 331 -44T363
39V61H361Q318 6 238 6Q147 6 89 72T31 245ZM139 550L241 706H361L462 550H349L302 634H300L253 550H139ZM214 248Q214 199 235 168T294 137Q318 137 335 151T357 186Q360 196 360 223V289Q360 298 358 312Q345 368 294 368Q260 368 237 336T214 248Z" />
<glyph unicode="&#x11e;" glyph-name="Gbreve" horiz-adv-x="697" d="M34 328Q35 497 145 589T428 681Q555 681 623 648L587 504Q520 532 427 532Q338 532 281 484T224 337Q224 244 277 191T416 138Q456 138 472 144V260H382V400H646V32Q531 -7 414 -7Q226 -7
130 84T34 328ZM241 847H334Q338 802 387 802Q437 802 446 847H535Q534 785 497 749T388 712Q313 712 278 748T241 847Z" />
<glyph unicode="&#x11f;" glyph-name="gbreve" horiz-adv-x="596" d="M31 245Q31 359 95 431T254 503Q340 503 381 440H383L389 492H545Q540 442 540 340V72Q540 -81 464 -148Q392 -209 256 -209Q145 -209 73 -173L107 -37Q173 -72 249 -72Q300 -72 331 -44T363
39V61H361Q318 6 238 6Q147 6 89 72T31 245ZM156 697H247Q254 639 300 639Q352 639 356 697H446Q445 629 408 588T300 547Q231 547 194 588T156 697ZM214 248Q214 199 235 168T294 137Q318 137 335 151T357 186Q360 196 360 223V289Q360 298 358 312Q345 368 294
368Q260 368 237 336T214 248Z" />
<glyph unicode="&#x120;" glyph-name="Gdotaccent" horiz-adv-x="697" d="M34 328Q35 497 145 589T428 681Q555 681 623 648L587 504Q520 532 427 532Q338 532 281 484T224 337Q224 244 277 191T416 138Q456 138 472 144V260H382V400H646V32Q531 -7 414 -7Q226
-7 130 84T34 328ZM303 786Q303 819 326 840T382 862Q414 862 435 841T457 786Q457 755 435 732T382 709H381Q349 709 326 732T303 786Z" />
<glyph unicode="&#x121;" glyph-name="gdotaccent" horiz-adv-x="596" d="M31 245Q31 359 95 431T254 503Q340 503 381 440H383L389 492H545Q540 442 540 340V72Q540 -81 464 -148Q392 -209 256 -209Q145 -209 73 -173L107 -37Q173 -72 249 -72Q300 -72 331 -44T363
39V61H361Q318 6 238 6Q147 6 89 72T31 245ZM214 248Q214 199 235 168T294 137Q318 137 335 151T357 186Q360 196 360 223V289Q360 298 358 312Q345 368 294 368Q260 368 237 336T214 248ZM215 630Q215 664 238 686T296 709Q328 709 350 687T372 630Q372 597 350
574T296 551H295Q262 551 239 574T215 630Z" />
<glyph unicode="&#x122;" glyph-name="Gcommaaccent" horiz-adv-x="697" d="M34 328Q35 497 145 589T428 681Q555 681 623 648L587 504Q520 532 427 532Q338 532 281 484T224 337Q224 244 277 191T416 138Q456 138 472 144V260H382V400H646V32Q531 -7 414 -7Q226
-7 130 84T34 328ZM258 -176Q283 -170 301 -154T320 -117Q320 -94 293 -57L416 -38Q455 -69 455 -120Q455 -183 408 -215T283 -250L258 -176Z" />
<glyph unicode="&#x123;" glyph-name="gcommaaccent" horiz-adv-x="596" d="M31 245Q31 359 95 431T254 503Q340 503 381 440H383L389 492H545Q540 442 540 340V72Q540 -81 464 -148Q392 -209 256 -209Q145 -209 73 -173L107 -37Q173 -72 249 -72Q300 -72 331
-44T363 39V61H361Q318 6 238 6Q147 6 89 72T31 245ZM207 614Q207 671 253 700T378 731L403 669Q333 658 333 612Q333 588 361 558L245 541Q207 568 207 614ZM214 248Q214 199 235 168T294 137Q318 137 335 151T357 186Q360 196 360 223V289Q360 298 358 312Q345
368 294 368Q260 368 237 336T214 248Z" />
<glyph unicode="&#x124;" glyph-name="Hcircumflex" horiz-adv-x="705" d="M62 0V674H243V425H462V674H642V0H462V267H243V0H62ZM186 710L285 836H420L519 710H398L353 769H351L307 710H186Z" />
<glyph unicode="&#x125;" glyph-name="hcircumflex" horiz-adv-x="599" d="M-15 737L84 863H219L318 737H197L152 796H150L106 737H-15ZM56 0V710H236V440H238Q265 472 296 486Q330 503 371 503Q454 503 498 447T543 285V0H363V265Q363 358 299 358Q257 358 241
319Q236 309 236 290V0H56Z" />
<glyph unicode="&#x126;" glyph-name="Hbar" horiz-adv-x="720" d="M2 468V572H70V674H250V572H469V674H650V572H717V468H650V0H469V236H250V0H70V468H2ZM250 394H469V468H250V394Z" />
<glyph unicode="&#x127;" glyph-name="hbar" horiz-adv-x="599" d="M-24 535V630H56V710H236V630H414V535H236V440H238Q263 470 296 486Q333 503 371 503Q454 503 498 447T543 285V0H363V265Q363 358 299 358Q257 358 241 319Q236 309 236 290V0H56V535H-24Z" />
<glyph unicode="&#x128;" glyph-name="Itilde" horiz-adv-x="305" d="M6 714Q4 783 25 818T87 853Q116 853 152 834Q183 814 195 814Q208 814 213 823T222 858H300Q304 721 216 721Q185 721 149 739Q118 757 108 757Q88 757 85 714H6ZM62 0V674H243V0H62Z" />
<glyph unicode="&#x129;" glyph-name="itilde" horiz-adv-x="292" d="M-6 554Q-8 622 16 659T82 697Q113 697 149 677Q181 657 191 657Q204 657 209 666T217 702H297Q301 562 209 562Q178 562 136 584Q109 600 100 600Q78 600 77 554H-6ZM56 0V492H236V0H56Z" />
<glyph unicode="&#x12a;" glyph-name="Imacron" horiz-adv-x="305" d="M19 735V827H286V735H19ZM62 0V674H243V0H62Z" />
<glyph unicode="&#x12b;" glyph-name="imacron" horiz-adv-x="292" d="M15 580V675H276V580H15ZM56 0V492H236V0H56Z" />
<glyph unicode="&#x12c;" glyph-name="Ibreve" horiz-adv-x="305" d="M5 846H98Q102 801 151 801Q201 801 210 846H299Q298 784 261 748T152 711Q77 711 42 747T5 846ZM62 0V674H243V0H62Z" />
<glyph unicode="&#x12d;" glyph-name="ibreve" horiz-adv-x="292" d="M0 697H91Q98 639 144 639Q196 639 200 697H290Q289 629 252 588T144 547Q75 547 38 588T0 697ZM56 0V492H236V0H56Z" />
<glyph unicode="&#x12e;" glyph-name="Iogonek" horiz-adv-x="305" d="M35 -111Q35 -95 38 -76T46 -45T55 -17T62 0V674H243V0H157Q144 -30 144 -56T160 -98T200 -115Q222 -115 243 -108L268 -190Q221 -225 157 -225Q100 -225 68 -196T35 -111Z" />
<glyph unicode="&#x12f;" glyph-name="iogonek" horiz-adv-x="292" d="M29 -110Q29 -72 56 0V492H236V0H151Q138 -26 138 -57Q138 -82 153 -98T193 -115Q215 -115 236 -108L261 -190Q215 -225 150 -225Q93 -225 61 -196T29 -110ZM50 631Q50 670 76 695T146 720T215
695T241 631Q242 593 216 568T146 542H145Q102 542 76 567T50 631Z" />
<glyph unicode="&#x130;" glyph-name="Idot" horiz-adv-x="305" d="M62 0V674H243V0H62ZM75 786Q75 819 98 840T154 862Q186 862 207 841T229 786Q229 755 207 732T154 709H153Q121 709 98 732T75 786Z" />
<glyph unicode="&#x131;" glyph-name="dotlessi" horiz-adv-x="292" d="M56 0V492H236V0H56Z" />
<glyph unicode="&#x132;" glyph-name="IJ" horiz-adv-x="734" d="M62 0V674H243V0H62ZM301 5L321 150Q361 139 400 139Q447 139 471 165T496 258V674H677V258Q677 116 612 53T421 -11Q350 -11 301 5Z" />
<glyph unicode="&#x133;" glyph-name="ij" horiz-adv-x="604" d="M54 591T54 628T79 689T146 713T212 689T238 628Q238 591 213 567T145 542Q104 542 79 566ZM56 0V492H236V0H56ZM255 -77Q319 -70 342 -46Q371 -18 371 104V492H551V66Q551 -88 478 -155Q407 -217
272 -217L255 -77ZM369 591T369 628T394 689T461 713T527 689T552 628Q553 591 528 567T459 542Q419 542 394 566Z" />
<glyph unicode="&#x134;" glyph-name="Jcircumflex" horiz-adv-x="429" d="M-4 5L16 150Q56 139 95 139Q142 139 166 165T191 258V674H372V258Q372 116 307 53T116 -11Q45 -11 -4 5ZM114 710L213 836H348L447 710H326L281 769H279L235 710H114Z" />
<glyph unicode="&#x135;" glyph-name="jcircumflex" horiz-adv-x="312" d="M-37 -77Q27 -70 50 -46Q79 -18 79 104V492H259V66Q259 -88 186 -155Q115 -217 -20 -217L-37 -77ZM-1 550L101 706H221L322 550H209L162 634H160L113 550H-1Z" />
<glyph unicode="&#x136;" glyph-name="Kcommaaccent" horiz-adv-x="646" d="M62 0V674H241V388H243Q262 423 287 462L416 674H638L424 387L646 0H437L295 273L241 204V0H62ZM226 -176Q251 -170 269 -154T288 -117Q288 -94 261 -57L384 -38Q423 -69 423 -120Q423
-183 376 -215T251 -250L226 -176Z" />
<glyph unicode="&#x137;" glyph-name="kcommaaccent" horiz-adv-x="575" d="M56 0V710H236V292H238Q259 334 270 352L351 492H566L396 294L591 0H369L272 188L236 140V0H56ZM188 -176Q213 -170 231 -155T250 -117Q250 -94 223 -57L346 -38Q385 -69 385 -120Q385
-183 338 -216T213 -251L188 -176Z" />
<glyph unicode="&#x138;" glyph-name="kgreenlandic" horiz-adv-x="575" d="M56 0V492H236V292H238Q259 334 270 352L351 492H566L396 294L591 0H369L272 188L236 140V0H56Z" />
<glyph unicode="&#x139;" glyph-name="Lacute" horiz-adv-x="528" d="M62 0V674H243V151H502V0H62ZM79 710L160 836H343L223 710H79Z" />
<glyph unicode="&#x13a;" glyph-name="lacute" horiz-adv-x="292" d="M56 0V710H236V0H56ZM60 740L141 866H324L204 740H60Z" />
<glyph unicode="&#x13b;" glyph-name="Lcommaaccent" horiz-adv-x="528" d="M62 0V674H243V151H502V0H62ZM165 -176Q190 -170 208 -154T227 -117Q227 -94 200 -57L323 -38Q362 -69 362 -120Q362 -183 315 -215T190 -250L165 -176Z" />
<glyph unicode="&#x13c;" glyph-name="lcommaaccent" horiz-adv-x="292" d="M36 -176Q61 -170 79 -155T98 -117Q98 -94 71 -57L194 -38Q233 -69 233 -120Q233 -183 186 -216T61 -251L36 -176ZM56 0V710H236V0H56Z" />
<glyph unicode="&#x13d;" glyph-name="Lcaron" horiz-adv-x="528" d="M62 0V674H243V151H502V0H62ZM283 551Q308 557 326 573T345 610Q345 633 318 670L441 689Q480 658 480 607Q480 544 433 512T308 477L283 551Z" />
<glyph unicode="&#x13e;" glyph-name="lcaron" horiz-adv-x="302" d="M56 0V710H236V0H56ZM271 530Q295 583 295 636Q295 672 280 706L390 723Q420 699 420 641Q420 628 419 616T415 593T409 572T402 553T394 536T386 522T377 510T369 500T362 490L356 484L271 530Z" />
<glyph unicode="&#x13f;" glyph-name="Ldot" horiz-adv-x="528" d="M62 0V674H243V151H502V0H62ZM323 382Q323 415 346 436T402 458Q434 458 455 437T477 382Q477 351 455 328T402 305H401Q369 305 346 328T323 382Z" />
<glyph unicode="&#x140;" glyph-name="ldot" horiz-adv-x="389" d="M56 0V710H236V0H56ZM270 400Q270 433 291 454T344 476Q373 476 392 455T412 400Q412 369 393 347T344 324H343Q313 324 292 346T270 400Z" />
<glyph unicode="&#x141;" glyph-name="Lslash" horiz-adv-x="535" d="M-2 173V295L70 343V674H250V462L373 542V419L250 339V151H510V0H70V221L-2 173Z" />
<glyph unicode="&#x142;" glyph-name="lslash" horiz-adv-x="307" d="M0 155V281L63 330V710H244V462L314 517V391L244 336V0H63V204L0 155Z" />
<glyph unicode="&#x143;" glyph-name="Nacute" horiz-adv-x="705" d="M62 0V674H275L382 467Q434 372 488 231H491Q477 356 477 515V674H642V0H452L338 224Q266 361 224 468H221Q227 332 227 166V0H62ZM264 710L345 836H528L408 710H264Z" />
<glyph unicode="&#x144;" glyph-name="nacute" horiz-adv-x="599" d="M52 492H207L215 429H219Q238 457 275 480T366 503Q452 503 497 448T543 290V0H363V268Q363 358 300 358Q259 358 241 315Q236 304 236 279V0H56V325Q56 402 52 492ZM213 550L299 706H458L336
550H213Z" />
<glyph unicode="&#x145;" glyph-name="Ncommaaccent" horiz-adv-x="705" d="M62 0V674H275L382 467Q434 372 488 231H491Q477 356 477 515V674H642V0H452L338 224Q266 361 224 468H221Q227 332 227 166V0H62ZM254 -173Q279 -167 297 -151T316 -114Q316 -91 289
-54L412 -35Q451 -66 451 -117Q451 -180 404 -212T279 -247L254 -173Z" />
<glyph unicode="&#x146;" glyph-name="ncommaaccent" horiz-adv-x="599" d="M52 492H207L215 429H219Q238 457 275 480T366 503Q452 503 497 448T543 290V0H363V268Q363 358 300 358Q259 358 241 315Q236 304 236 279V0H56V325Q56 402 52 492ZM200 -176Q225 -170
243 -155T262 -117Q262 -94 235 -57L358 -38Q397 -69 397 -120Q397 -183 350 -216T225 -251L200 -176Z" />
<glyph unicode="&#x147;" glyph-name="Ncaron" horiz-adv-x="705" d="M62 0V674H275L382 467Q434 372 488 231H491Q477 356 477 515V674H642V0H452L338 224Q266 361 224 468H221Q227 332 227 166V0H62ZM190 836H312L356 777H358L402 836H523L424 710H290L190 836Z" />
<glyph unicode="&#x148;" glyph-name="ncaron" horiz-adv-x="599" d="M52 492H207L215 429H219Q238 457 275 480T366 503Q452 503 497 448T543 290V0H363V268Q363 358 300 358Q259 358 241 315Q236 304 236 279V0H56V325Q56 402 52 492ZM137 706H250L297 622H299L346
706H460L358 550H238L137 706Z" />
<glyph unicode="&#x149;" glyph-name="napostrophe" horiz-adv-x="599" d="M4 566Q32 615 32 654Q32 682 16 708L129 736Q159 715 159 659Q159 583 84 519L4 566ZM52 492H207L215 429H219Q238 457 275 480T366 503Q452 503 497 448T543 290V0H363V268Q363 358
300 358Q259 358 241 315Q236 304 236 279V0H56V325Q56 402 52 492Z" />
<glyph unicode="&#x14a;" glyph-name="Eng" horiz-adv-x="705" d="M62 0V674H275L382 467Q434 372 488 231H491Q477 356 477 515V674H642V53Q642 -79 577 -145T400 -223L359 -87Q451 -63 464 -19L338 224Q266 361 224 468H221Q227 332 227 166V0H62Z" />
<glyph unicode="&#x14b;" glyph-name="eng" horiz-adv-x="599" d="M52 492H207L215 429H219Q238 457 275 480T366 503Q452 503 497 448T543 290V59Q543 -180 329 -202L293 -64Q331 -57 347 -37T363 28V268Q363 358 300 358Q259 358 241 315Q236 304 236 279V0H56V325Q56
402 52 492Z" />
<glyph unicode="&#x14c;" glyph-name="Omacron" horiz-adv-x="730" d="M34 333Q34 484 126 584T369 685Q524 685 610 587T696 344Q696 181 605 85T358 -11Q207 -11 121 87T34 333ZM225 336Q225 242 263 187T367 132Q431 132 468 189T505 338Q505 427 468 484T366
542T264 486T225 336ZM232 735V827H499V735H232Z" />
<glyph unicode="&#x14d;" glyph-name="omacron" horiz-adv-x="589" d="M31 243Q31 361 104 432T302 503Q417 503 487 433T558 251Q558 124 481 57T292 -11Q179 -11 105 57T31 243ZM164 580V675H425V580H164ZM217 246Q217 188 237 152T297 116Q333 116 352 151T372
246Q372 302 353 339T296 376Q255 376 236 339T217 246Z" />
<glyph unicode="&#x14e;" glyph-name="Obreve" horiz-adv-x="730" d="M34 333Q34 484 126 584T369 685Q524 685 610 587T696 344Q696 181 605 85T358 -11Q207 -11 121 87T34 333ZM218 849H311Q315 804 364 804Q414 804 423 849H512Q511 787 474 751T365 714Q290
714 255 750T218 849ZM225 336Q225 242 263 187T367 132Q431 132 468 189T505 338Q505 427 468 484T366 542T264 486T225 336Z" />
<glyph unicode="&#x14f;" glyph-name="obreve" horiz-adv-x="589" d="M31 243Q31 361 104 432T302 503Q417 503 487 433T558 251Q558 124 481 57T292 -11Q179 -11 105 57T31 243ZM149 697H240Q247 639 293 639Q345 639 349 697H439Q438 629 401 588T293 547Q224
547 187 588T149 697ZM217 246Q217 188 237 152T297 116Q333 116 352 151T372 246Q372 302 353 339T296 376Q255 376 236 339T217 246Z" />
<glyph unicode="&#x150;" glyph-name="Ohungarumlaut" horiz-adv-x="730" d="M34 333Q34 484 126 584T369 685Q524 685 610 587T696 344Q696 181 605 85T358 -11Q207 -11 121 87T34 333ZM208 720L267 838H428L330 720H208ZM225 336Q225 242 263 187T367 132Q431
132 468 189T505 338Q505 427 468 484T366 542T264 486T225 336ZM404 720L463 838H624L527 720H404Z" />
<glyph unicode="&#x151;" glyph-name="ohungarumlaut" horiz-adv-x="589" d="M31 243Q31 361 104 432T302 503Q417 503 487 433T558 251Q558 124 481 57T292 -11Q179 -11 105 57T31 243ZM127 550L183 705H318L226 550H127ZM217 246Q217 188 237 152T297 116Q333
116 352 151T372 246Q372 302 353 339T296 376Q255 376 236 339T217 246ZM313 550L369 705H504L412 550H313Z" />
<glyph unicode="&#x152;" glyph-name="OE" horiz-adv-x="954" d="M34 331Q34 491 128 588T379 685Q410 685 470 680Q522 674 532 674H901V527H644V418H887V272H644V148H915V0H519Q505 0 459 -6Q404 -11 377 -11Q290 -11 223 17T115 93T55 202T34 331ZM225 337Q225
245 273 189T408 132Q440 132 464 143V529Q438 542 397 542Q327 542 276 489T225 337Z" />
<glyph unicode="&#x153;" glyph-name="oe" horiz-adv-x="871" d="M31 246Q31 360 102 431T287 503Q338 503 383 484T454 428H456Q518 503 624 503Q735 503 790 432T845 251Q845 237 840 187H539Q543 159 578 141T661 122Q733 122 799 147L822 27Q753 -11 636 -11Q520
-11 459 63H457Q392 -11 276 -11Q172 -11 102 58T31 246ZM217 246Q217 189 236 153T295 116Q333 116 352 151T372 247Q372 303 353 339T298 376H297Q254 376 236 339T217 246ZM536 306H679Q679 385 609 385Q574 385 555 359T536 306Z" />
<glyph unicode="&#x154;" glyph-name="Racute" horiz-adv-x="617" d="M62 0V665Q151 679 280 679Q438 679 508 627Q575 576 575 480Q575 422 540 378T459 317V313Q517 289 545 193Q553 167 565 121T586 43T601 0H416Q397 37 369 155Q356 214 335 233T270 253H241V0H62ZM213
710L294 836H477L357 710H213ZM241 382H288Q338 382 366 405T395 466Q395 544 302 546Q259 546 241 542V382Z" />
<glyph unicode="&#x155;" glyph-name="racute" horiz-adv-x="403" d="M52 492H206L212 403H216Q234 454 271 478T347 503Q370 503 383 500V331Q361 336 337 336Q253 336 239 274Q236 260 236 243V0H56V326Q56 410 52 492ZM124 550L210 706H369L247 550H124Z" />
<glyph unicode="&#x156;" glyph-name="Rcommaaccent" horiz-adv-x="617" d="M62 0V665Q151 679 280 679Q438 679 508 627Q575 576 575 480Q575 422 540 378T459 317V313Q517 289 545 193Q553 167 565 121T586 43T601 0H416Q397 37 369 155Q356 214 335 233T270
253H241V0H62ZM209 -176Q234 -170 252 -154T271 -117Q271 -94 244 -57L367 -38Q406 -69 406 -120Q406 -183 359 -215T234 -250L209 -176ZM241 382H288Q338 382 366 405T395 466Q395 544 302 546Q259 546 241 542V382Z" />
<glyph unicode="&#x157;" glyph-name="rcommaaccent" horiz-adv-x="403" d="M43 -176Q68 -170 86 -155T105 -117Q105 -94 78 -57L201 -38Q240 -69 240 -120Q240 -183 193 -216T68 -251L43 -176ZM52 492H206L212 403H216Q234 454 271 478T347 503Q370 503 383 500V331Q361
336 337 336Q253 336 239 274Q236 260 236 243V0H56V326Q56 410 52 492Z" />
<glyph unicode="&#x158;" glyph-name="Rcaron" horiz-adv-x="617" d="M62 0V665Q151 679 280 679Q438 679 508 627Q575 576 575 480Q575 422 540 378T459 317V313Q517 289 545 193Q553 167 565 121T586 43T601 0H416Q397 37 369 155Q356 214 335 233T270 253H241V0H62ZM136
836H258L302 777H304L348 836H469L370 710H236L136 836ZM241 382H288Q338 382 366 405T395 466Q395 544 302 546Q259 546 241 542V382Z" />
<glyph unicode="&#x159;" glyph-name="rcaron" horiz-adv-x="403" d="M47 706H160L207 622H209L256 706H370L268 550H148L47 706ZM52 492H206L212 403H216Q234 454 271 478T347 503Q370 503 383 500V331Q361 336 337 336Q253 336 239 274Q236 260 236 243V0H56V326Q56
410 52 492Z" />
<glyph unicode="&#x15a;" glyph-name="Sacute" horiz-adv-x="561" d="M40 31L74 180Q156 138 249 138Q341 138 341 193Q341 217 318 234T235 271Q46 337 46 474Q46 566 119 625T316 685Q420 685 499 650L461 506Q390 538 314 538Q273 538 251 525T229 488Q229
464 253 450T350 408Q526 344 526 205Q526 112 453 51T238 -11Q181 -11 127 1T40 31ZM210 710L291 836H474L354 710H210Z" />
<glyph unicode="&#x15b;" glyph-name="sacute" horiz-adv-x="451" d="M30 24L60 151Q82 137 123 126T197 114Q250 114 250 141Q250 155 238 163T186 184Q40 230 42 334Q42 408 100 455T254 503Q341 503 401 475L372 353Q316 380 263 380Q214 380 214 352Q214 340
229 331T288 307Q359 284 390 247T423 154Q423 80 366 35T198 -11Q98 -11 30 24ZM157 550L243 706H402L280 550H157Z" />
<glyph unicode="&#x15c;" glyph-name="Scircumflex" horiz-adv-x="561" d="M40 31L74 180Q156 138 249 138Q341 138 341 193Q341 217 318 234T235 271Q46 337 46 474Q46 566 119 625T316 685Q420 685 499 650L461 506Q390 538 314 538Q273 538 251 525T229 488Q229
464 253 450T350 408Q526 344 526 205Q526 112 453 51T238 -11Q181 -11 127 1T40 31ZM116 710L215 836H350L449 710H328L283 769H281L237 710H116Z" />
<glyph unicode="&#x15d;" glyph-name="scircumflex" horiz-adv-x="451" d="M30 24L60 151Q82 137 123 126T197 114Q250 114 250 141Q250 155 238 163T186 184Q40 230 42 334Q42 408 100 455T254 503Q341 503 401 475L372 353Q316 380 263 380Q214 380 214 352Q214
340 229 331T288 307Q359 284 390 247T423 154Q423 80 366 35T198 -11Q98 -11 30 24ZM67 550L169 706H289L390 550H277L230 634H228L181 550H67Z" />
<glyph unicode="&#x15e;" glyph-name="Scedilla" horiz-adv-x="561" d="M40 31L74 180Q156 138 249 138Q341 138 341 193Q341 217 318 234T235 271Q46 337 46 474Q46 566 119 625T316 685Q420 685 499 650L461 506Q390 538 314 538Q273 538 251 525T229 488Q229
464 253 450T350 408Q526 344 526 205Q526 129 475 73T326 -3L306 -41Q336 -45 357 -65T379 -112Q379 -160 342 -182T250 -205Q198 -205 164 -184L187 -122Q216 -139 241 -139Q274 -139 274 -116Q274 -87 196 -82L230 -11H229Q185 -11 130 1T40 31Z" />
<glyph unicode="&#x15f;" glyph-name="scedilla" horiz-adv-x="451" d="M30 24L60 151Q82 137 123 126T197 114Q250 114 250 141Q250 155 238 163T186 184Q42 229 42 334Q42 408 100 455T254 503Q341 503 401 475L372 353Q316 380 263 380Q214 380 214 352Q214
340 229 331T288 307Q359 284 391 247T423 154Q423 93 384 51T267 -5L248 -41Q278 -45 299 -65T321 -115Q321 -162 285 -183T192 -205Q140 -205 106 -184L129 -122Q158 -139 183 -139Q216 -139 216 -116Q216 -87 138 -82L172 -10H171Q99 -10 30 24Z" />
<glyph unicode="&#x160;" glyph-name="Scaron" horiz-adv-x="561" d="M40 31L74 180Q156 138 249 138Q341 138 341 193Q341 217 318 234T235 271Q46 337 46 474Q46 566 119 625T316 685Q420 685 499 650L461 506Q390 538 314 538Q273 538 251 525T229 488Q229
464 253 450T350 408Q526 344 526 205Q526 112 453 51T238 -11Q181 -11 127 1T40 31ZM122 836H244L288 777H290L334 836H455L356 710H222L122 836Z" />
<glyph unicode="&#x161;" glyph-name="scaron" horiz-adv-x="451" d="M30 24L60 151Q82 137 123 126T197 114Q250 114 250 141Q250 155 238 163T186 184Q40 230 42 334Q42 408 100 455T254 503Q341 503 401 475L372 353Q316 380 263 380Q214 380 214 352Q214 340
229 331T288 307Q359 284 390 247T423 154Q423 80 366 35T198 -11Q98 -11 30 24ZM66 706H179L226 622H228L275 706H389L287 550H167L66 706Z" />
<glyph unicode="&#x162;" glyph-name="Tcommaaccent" horiz-adv-x="570" d="M21 523V674H549V523H374V0H193V523H21ZM172 -176Q197 -170 215 -154T234 -117Q234 -94 207 -57L330 -38Q369 -69 369 -120Q369 -183 322 -215T197 -250L172 -176Z" />
<glyph unicode="&#x163;" glyph-name="tcommaaccent" horiz-adv-x="383" d="M16 360V492H77V585L253 632V492H355V360H253V219Q253 174 265 155T310 136Q338 136 353 140V3Q311 -11 246 -11Q168 -11 123 34Q77 80 77 188V360H16ZM102 -176Q127 -170 145 -155T164
-117Q164 -94 137 -57L260 -38Q299 -69 299 -120Q299 -183 252 -216T127 -251L102 -176Z" />
<glyph unicode="&#x164;" glyph-name="Tcaron" horiz-adv-x="570" d="M21 523V674H549V523H374V0H193V523H21ZM118 836H240L284 777H286L330 836H451L352 710H218L118 836Z" />
<glyph unicode="&#x165;" glyph-name="tcaron" horiz-adv-x="385" d="M16 360V492H77V585L253 632V492H355V360H253V219Q253 174 265 155T310 136Q338 136 353 140V3Q311 -11 246 -11Q168 -11 123 34Q77 80 77 188V360H16ZM309 600Q323 609 331 628T340 665Q340
692 327 718L439 735Q451 725 460 706T469 666Q469 613 432 579T351 536L309 600Z" />
<glyph unicode="&#x166;" glyph-name="Tbar" horiz-adv-x="570" d="M21 523V674H549V523H374V381H484V277H374V0H193V277H81V381H193V523H21Z" />
<glyph unicode="&#x167;" glyph-name="tbar" horiz-adv-x="383" d="M16 218V309H77V360H16V492H77V585L253 632V492H355V360H253V309H330V218H253V205Q253 136 310 136Q338 136 353 140V3Q311 -11 246 -11Q168 -11 123 34Q77 80 77 188V218H16Z" />
<glyph unicode="&#x168;" glyph-name="Utilde" horiz-adv-x="697" d="M61 307V674H242V292Q242 132 348 132Q455 132 455 292V674H636V302Q636 147 561 68T343 -11Q61 -11 61 307ZM202 714Q200 783 221 818T283 853Q312 853 348 834Q379 814 391 814Q404 814 409
823T418 858H496Q500 721 412 721Q381 721 345 739Q314 757 304 757Q284 757 281 714H202Z" />
<glyph unicode="&#x169;" glyph-name="utilde" horiz-adv-x="598" d="M55 202V492H235V231Q235 134 298 134Q341 134 356 176Q361 185 361 202V492H541V168Q541 84 545 0H390L382 65H378Q327 -11 229 -11Q145 -11 100 43T55 202ZM148 554Q146 622 170 659T236
697Q267 697 303 677Q335 657 345 657Q358 657 363 666T371 702H451Q455 562 363 562Q332 562 290 584Q263 600 254 600Q232 600 231 554H148Z" />
<glyph unicode="&#x16a;" glyph-name="Umacron" horiz-adv-x="697" d="M61 307V674H242V292Q242 132 348 132Q455 132 455 292V674H636V302Q636 147 561 68T343 -11Q61 -11 61 307ZM215 735V827H482V735H215Z" />
<glyph unicode="&#x16b;" glyph-name="umacron" horiz-adv-x="598" d="M55 202V492H235V231Q235 134 298 134Q341 134 356 176Q361 185 361 202V492H541V168Q541 84 545 0H390L382 65H378Q327 -11 229 -11Q145 -11 100 43T55 202ZM169 580V675H430V580H169Z" />
<glyph unicode="&#x16c;" glyph-name="Ubreve" horiz-adv-x="697" d="M61 307V674H242V292Q242 132 348 132Q455 132 455 292V674H636V302Q636 147 561 68T343 -11Q61 -11 61 307ZM201 840H294Q298 795 347 795Q397 795 406 840H495Q494 778 457 742T348 705Q273
705 238 741T201 840Z" />
<glyph unicode="&#x16d;" glyph-name="ubreve" horiz-adv-x="598" d="M55 202V492H235V231Q235 134 298 134Q341 134 356 176Q361 185 361 202V492H541V168Q541 84 545 0H390L382 65H378Q327 -11 229 -11Q145 -11 100 43T55 202ZM154 697H245Q252 639 298 639Q350
639 354 697H444Q443 629 406 588T298 547Q229 547 192 588T154 697Z" />
<glyph unicode="&#x16e;" glyph-name="Uring" horiz-adv-x="697" d="M61 307V674H242V292Q242 132 348 132Q455 132 455 292V674H636V302Q636 147 561 68T343 -11Q61 -11 61 307ZM227 789Q227 833 259 862T349 892H350Q408 892 439 864T470 790Q470 746 438 718T349
689T260 717T227 789ZM305 807T305 789T316 759T347 746Q367 746 379 758T391 789Q391 807 379 820T347 834H346Q327 834 316 821Z" />
<glyph unicode="&#x16f;" glyph-name="uring" horiz-adv-x="598" d="M55 202V492H235V231Q235 134 298 134Q341 134 356 176Q361 185 361 202V492H541V168Q541 84 545 0H390L382 65H378Q327 -11 229 -11Q145 -11 100 43T55 202ZM177 639Q177 684 209 712T300 741Q357
741 387 713T418 640Q418 596 386 568T299 540Q243 540 210 568T177 639ZM255 639Q255 622 266 609T298 595Q319 595 330 608T342 640T330 672T297 686Q277 686 266 672T255 639Z" />
<glyph unicode="&#x170;" glyph-name="Uhungarumlaut" horiz-adv-x="697" d="M61 307V674H242V292Q242 132 348 132Q455 132 455 292V674H636V302Q636 147 561 68T343 -11Q61 -11 61 307ZM188 720L247 838H408L310 720H188ZM384 720L443 838H604L507 720H384Z" />
<glyph unicode="&#x171;" glyph-name="uhungarumlaut" horiz-adv-x="598" d="M55 202V492H235V231Q235 134 298 134Q341 134 356 176Q361 185 361 202V492H541V168Q541 84 545 0H390L382 65H378Q327 -11 229 -11Q145 -11 100 43T55 202ZM152 550L208 705H343L251
550H152ZM338 550L394 705H529L437 550H338Z" />
<glyph unicode="&#x172;" glyph-name="Uogonek" horiz-adv-x="697" d="M61 307V674H242V292Q242 132 348 132Q455 132 455 292V674H636V302Q636 47 439 1Q389 -47 389 -81Q389 -97 400 -106T427 -115Q448 -115 469 -106L494 -188Q441 -225 374 -225Q321 -225 293
-200T265 -132Q265 -73 323 -10H317Q61 1 61 307Z" />
<glyph unicode="&#x173;" glyph-name="uogonek" horiz-adv-x="598" d="M55 202V492H235V231Q235 134 298 134Q341 134 356 176Q361 185 361 202V492H541V168Q541 84 545 0H485Q472 -26 472 -57Q472 -82 487 -98T527 -115Q549 -115 570 -108L595 -190Q549 -225
484 -225Q427 -225 395 -196T363 -110Q363 -72 390 0L382 65H378Q327 -11 229 -11Q145 -11 100 43T55 202Z" />
<glyph unicode="&#x174;" glyph-name="Wcircumflex" horiz-adv-x="906" d="M15 674H209L248 424Q253 389 265 307T283 187H285Q297 279 324 426L367 674H560L602 414Q617 315 632 192H634Q645 275 668 426L708 674H891L725 0H528L483 264Q467 357 455 466H453Q434
328 421 263L370 0H170L15 674ZM294 710L393 836H528L627 710H506L461 769H459L415 710H294Z" />
<glyph unicode="&#x175;" glyph-name="wcircumflex" horiz-adv-x="769" d="M8 492H191L220 311Q230 251 244 148H246Q250 173 279 310L318 492H459L496 317Q519 209 529 148H531Q537 209 555 319L585 492H761L614 0H444L410 146Q398 200 383 296H381Q372 211 355
148L319 0H149L8 492ZM223 550L325 706H445L546 550H433L386 634H384L337 550H223Z" />
<glyph unicode="&#x176;" glyph-name="Ycircumflex" horiz-adv-x="629" d="M7 674H214L271 522Q291 472 317 398H319Q320 402 362 522L418 674H621L400 279V0H220V272L7 674ZM149 710L248 836H383L482 710H361L316 769H314L270 710H149Z" />
<glyph unicode="&#x177;" glyph-name="ycircumflex" horiz-adv-x="545" d="M5 492H205L264 271Q268 256 275 225T285 184H289Q292 197 298 228T307 271L352 492H544L439 180Q386 33 347 -39T263 -149Q194 -211 100 -221L63 -69Q93 -64 124 -50Q161 -36 182 -5Q192
7 192 17Q192 26 185 44L5 492ZM119 550L221 706H341L442 550H329L282 634H280L233 550H119Z" />
<glyph unicode="&#x178;" glyph-name="Ydieresis" horiz-adv-x="629" d="M7 674H214L271 522Q291 472 317 398H319Q320 402 362 522L418 674H621L400 279V0H220V272L7 674ZM138 754T138 786T160 840T216 862Q247 862 268 840T290 786T269 732T216 709H215Q183
709 161 731ZM356 754T356 786T378 840T433 862Q465 862 486 840T508 786T486 732T433 709H432Q399 709 378 731Z" />
<glyph unicode="&#x179;" glyph-name="Zacute" horiz-adv-x="588" d="M21 0V96L319 521V525H49V674H553V571L264 153V149H558V0H21ZM206 710L287 836H470L350 710H206Z" />
<glyph unicode="&#x17a;" glyph-name="zacute" horiz-adv-x="486" d="M24 0V103L150 256Q189 302 233 347V350H40V492H454V385L336 241Q278 173 248 145V143H463V0H24ZM172 550L258 706H417L295 550H172Z" />
<glyph unicode="&#x17b;" glyph-name="Zdotaccent" horiz-adv-x="588" d="M21 0V96L319 521V525H49V674H553V571L264 153V149H558V0H21ZM219 786Q219 819 242 840T298 862Q330 862 351 841T373 786Q373 755 351 732T298 709H297Q265 709 242 732T219 786Z" />
<glyph unicode="&#x17c;" glyph-name="zdotaccent" horiz-adv-x="486" d="M24 0V103L150 256Q189 302 233 347V350H40V492H454V385L336 241Q278 173 248 145V143H463V0H24ZM168 630Q168 664 191 686T249 709Q281 709 303 687T325 630Q325 597 303 574T249 551H248Q214
551 191 574T168 630Z" />
<glyph unicode="&#x17d;" glyph-name="Zcaron" horiz-adv-x="588" d="M21 0V96L319 521V525H49V674H553V571L264 153V149H558V0H21ZM132 836H254L298 777H300L344 836H465L366 710H232L132 836Z" />
<glyph unicode="&#x17e;" glyph-name="zcaron" horiz-adv-x="486" d="M24 0V103L150 256Q189 302 233 347V350H40V492H454V385L336 241Q278 173 248 145V143H463V0H24ZM84 706H197L244 622H246L293 706H407L305 550H185L84 706Z" />
<glyph unicode="&#x192;" glyph-name="florin" horiz-adv-x="573" d="M34 -77L58 48Q75 43 101 41Q135 42 149 66T174 177L188 293H115V416H202L205 443Q207 465 212 487T234 542T273 600T337 643T433 661Q488 661 522 645L495 518Q473 526 450 526Q390 526 381
457L375 416H469V293H361L339 125Q333 76 321 40T287 -28T225 -77T131 -94Q63 -92 34 -77Z" />
<glyph unicode="&#x1a0;" glyph-name="Ohorn" horiz-adv-x="730" d="M34 333Q34 484 126 584T369 685Q433 685 500 664Q513 660 533 651T568 635T594 629Q628 629 628 668Q628 705 603 744L729 766Q756 712 756 655Q756 606 729 574T649 536Q696 452 696 344Q696
181 605 85T358 -11Q207 -11 121 87T34 333ZM225 337Q225 246 263 189T367 132Q431 132 468 189T505 338Q505 427 468 484T366 542T264 484T225 337Z" />
<glyph unicode="&#x1a1;" glyph-name="ohorn" horiz-adv-x="604" d="M31 243Q31 361 104 432T302 503Q351 503 393 490Q402 487 432 475T473 462Q505 462 505 496Q505 533 481 571L605 592Q630 542 630 488Q630 440 604 411T531 374Q558 317 558 251Q558 124 481
57T292 -11Q179 -11 105 57T31 243ZM217 246Q217 188 237 152T297 116Q333 116 352 151T372 246Q372 302 353 339T296 376Q255 376 236 339T217 246Z" />
<glyph unicode="&#x1af;" glyph-name="Uhorn" horiz-adv-x="750" d="M61 307V674H242V292Q242 132 348 132Q455 132 455 292V674H587Q619 674 630 683T642 713Q642 746 620 784L744 804Q768 756 768 702Q768 597 653 584L636 582V302Q636 147 561 68T343 -11Q61
-11 61 307Z" />
<glyph unicode="&#x1b0;" glyph-name="uhorn" horiz-adv-x="598" d="M55 202V492H235V231Q235 134 298 134Q341 134 356 176Q361 185 361 202V492H463Q518 492 518 533Q518 566 494 603L618 624Q643 574 643 524Q643 478 617 450T548 415L541 414V168Q541 84 545
0H390L382 65H378Q327 -11 229 -11Q145 -11 100 43T55 202Z" />
<glyph unicode="&#x1fa;" glyph-name="Aringacute" horiz-adv-x="675" d="M14 0L210 674H450L651 0H456L413 156H239L201 0H14ZM222 747T222 787T252 854T338 882Q392 882 421 856T450 788Q450 746 420 720T337 694T253 720ZM255 899L363 994H552L402 899H255ZM263
290H388L357 411Q351 433 339 484T324 544H322Q317 525 307 478T292 410L263 290ZM294 788Q294 772 305 761T336 750Q356 750 367 760T379 788Q379 804 367 815T335 827T305 816T294 788Z" />
<glyph unicode="&#x1fb;" glyph-name="aringacute" horiz-adv-x="548" d="M27 144Q27 239 104 286T312 335V339Q312 381 232 381Q155 381 93 344L61 459Q149 503 265 503Q385 503 439 445T493 286V120Q493 33 501 0H339L329 43H326Q278 -11 189 -11Q116 -11 72
34T27 144ZM153 626Q153 671 185 699T276 728Q333 728 363 700T394 627Q394 583 362 555T275 527Q219 527 186 555T153 626ZM203 161Q203 138 217 126T254 114Q274 114 292 126T316 159Q318 167 318 185V225Q203 225 203 161ZM206 752L318 873H478L328 752H206ZM231
626Q231 609 242 596T274 582Q295 582 306 595T318 627T306 659T273 673Q253 673 242 659T231 626Z" />
<glyph unicode="&#x1fc;" glyph-name="AEacute" horiz-adv-x="902" d="M4 0L282 674H835V527H563L577 414H833V268H600L617 148H876V0H462L441 161H248L190 0H4ZM301 305H420L401 455L389 548H386Q380 528 369 493T356 452L301 305ZM397 710L478 836H661L541 710H397Z" />
<glyph unicode="&#x1fd;" glyph-name="aeacute" horiz-adv-x="816" d="M27 149Q27 238 105 284T314 331V343Q314 349 308 356T281 372T229 380Q163 380 96 343L62 456Q153 503 244 503Q358 503 408 434H410Q474 503 576 503Q679 503 734 431T789 251Q789 242 785
190H482Q486 160 519 141T605 121Q677 121 743 147L766 27Q691 -11 578 -11Q516 -11 467 9T390 68H386Q316 -11 203 -11Q123 -11 75 34T27 149ZM203 162Q203 139 218 127T256 114Q294 114 315 152Q320 161 320 180V223Q203 223 203 162ZM322 550L408 706H567L445
550H322ZM481 310H625Q625 326 621 341T600 371T555 387Q519 387 500 362T481 310Z" />
<glyph unicode="&#x1fe;" glyph-name="Oslashacute" horiz-adv-x="730" d="M34 338Q34 485 125 585T366 685Q444 685 506 658L560 739L661 671L607 588Q696 493 696 341Q696 181 605 85T365 -11Q294 -11 232 14L172 -77L75 -1L130 83Q34 181 34 338ZM215 337Q215
285 231 238H232L424 530Q398 545 366 545Q297 545 256 489T215 337ZM277 714L358 840H541L421 714H277ZM315 142Q334 129 366 129Q435 129 475 185T515 338Q515 385 504 426L502 427L315 142Z" />
<glyph unicode="&#x1ff;" glyph-name="oslashacute" horiz-adv-x="589" d="M31 246Q31 360 103 431T294 503H295Q362 503 411 480L460 553L519 512L472 442Q558 373 558 247Q558 124 481 57T296 -11Q228 -11 183 11L132 -64L75 -20L120 48Q31 116 31 246ZM204
246Q204 209 213 187L216 186L334 363Q316 376 294 376Q248 376 226 337T204 246ZM213 550L299 706H458L336 550H213ZM257 130Q271 116 296 116Q338 116 361 150T385 242Q385 276 378 300L375 301L257 130Z" />
<glyph unicode="&#x218;" glyph-name="Scommaaccent" horiz-adv-x="561" d="M40 31L74 180Q156 138 249 138Q341 138 341 193Q341 217 318 234T235 271Q46 337 46 474Q46 566 119 625T316 685Q420 685 499 650L461 506Q390 538 314 538Q273 538 251 525T229 488Q229
464 253 450T350 408Q526 344 526 205Q526 112 453 51T238 -11Q181 -11 127 1T40 31ZM179 -176Q204 -170 222 -154T241 -117Q241 -94 214 -57L337 -38Q376 -69 376 -120Q376 -183 329 -215T204 -250L179 -176Z" />
<glyph unicode="&#x219;" glyph-name="scommaaccent" horiz-adv-x="451" d="M30 24L60 151Q82 137 123 126T197 114Q250 114 250 141Q250 155 238 163T186 184Q40 230 42 334Q42 408 100 455T254 503Q341 503 401 475L372 353Q316 380 263 380Q214 380 214 352Q214
340 229 331T288 307Q359 284 390 247T423 154Q423 80 366 35T198 -11Q98 -11 30 24ZM124 -176Q149 -170 167 -155T186 -117Q186 -94 159 -57L282 -38Q321 -69 321 -120Q321 -183 274 -216T149 -251L124 -176Z" />
<glyph unicode="&#x21a;" glyph-name="uni021A" horiz-adv-x="570" d="M21 523V674H549V523H374V0H193V523H21ZM172 -176Q197 -170 215 -154T234 -117Q234 -94 207 -57L330 -38Q369 -69 369 -120Q369 -183 322 -215T197 -250L172 -176Z" />
<glyph unicode="&#x21b;" glyph-name="uni021B" horiz-adv-x="383" d="M16 360V492H77V585L253 632V492H355V360H253V219Q253 174 265 155T310 136Q338 136 353 140V3Q311 -11 246 -11Q168 -11 123 34Q77 80 77 188V360H16ZM102 -176Q127 -170 145 -155T164 -117Q164
-94 137 -57L260 -38Q299 -69 299 -120Q299 -183 252 -216T127 -251L102 -176Z" />
<glyph unicode="&#x21c;" glyph-name="uni021C" horiz-adv-x="562" d="M40 631Q134 685 248 685Q343 685 404 642T466 526Q466 474 435 432T348 366V364Q424 351 473 305T523 183Q523 96 461 24T297 -89T80 -130L61 7Q91 8 134 20T222 52T299 104T331 173Q331
205 306 229T226 254Q173 254 122 237L103 357Q175 369 231 404T287 489Q287 515 265 531T206 548Q145 548 73 514L40 631Z" />
<glyph unicode="&#x21d;" glyph-name="uni021D" horiz-adv-x="495" d="M18 450Q96 503 217 503Q311 503 364 464T418 356Q418 274 316 230V228Q386 216 425 175T465 70Q465 4 429 -50T332 -139T200 -191T54 -209L33 -72Q64 -72 100 -67T178 -50T249 -11T277 53Q277
119 189 119Q156 119 104 103L80 224Q244 253 244 319Q244 366 169 366Q118 366 50 333L18 450Z" />
<glyph unicode="&#x232;" glyph-name="uni0232" horiz-adv-x="629" d="M7 674H214L271 522Q291 472 317 398H319Q320 402 362 522L418 674H621L400 279V0H220V272L7 674ZM182 735V827H449V735H182Z" />
<glyph unicode="&#x233;" glyph-name="uni0233" horiz-adv-x="545" d="M5 492H205L264 271Q268 256 275 225T285 184H289Q292 197 298 228T307 271L352 492H544L439 180Q386 33 347 -39T263 -149Q194 -211 100 -221L63 -69Q93 -64 124 -50Q161 -36 182 -5Q192
7 192 17Q192 26 185 44L5 492ZM143 580V675H404V580H143Z" />
<glyph unicode="&#x2c6;" glyph-name="circumflex" horiz-adv-x="300" d="M-11 550L91 706H211L312 550H199L152 634H150L103 550H-11Z" />
<glyph unicode="&#x2c7;" glyph-name="caron" horiz-adv-x="300" d="M-12 706H101L148 622H150L197 706H311L209 550H89L-12 706Z" />
<glyph unicode="&#x2c9;" glyph-name="uni02C9" horiz-adv-x="300" d="M20 580V675H281V580H20Z" />
<glyph unicode="&#x2d8;" glyph-name="breve" horiz-adv-x="300" d="M5 697H96Q103 639 149 639Q201 639 205 697H295Q294 629 257 588T149 547Q80 547 43 588T5 697Z" />
<glyph unicode="&#x2d9;" glyph-name="dotaccent" horiz-adv-x="300" d="M34 630Q34 664 57 686T115 709Q147 709 169 687T191 630Q191 597 169 574T115 551H114Q80 551 57 574T34 630Z" />
<glyph unicode="&#x2da;" glyph-name="ring" horiz-adv-x="300" d="M20 639Q20 684 52 712T143 741Q200 741 230 713T261 640Q261 596 229 568T142 540Q86 540 53 568T20 639ZM98 639Q98 622 109 609T141 595Q162 595 173 608T185 640T173 672T140 686Q120 686
109 672T98 639Z" />
<glyph unicode="&#x2db;" glyph-name="ogonek" horiz-adv-x="300" d="M34 -110Q34 -80 44 -48T64 1H156Q143 -29 143 -60Q143 -83 157 -99T197 -115Q218 -115 242 -107L266 -190Q220 -225 155 -225Q98 -225 66 -196T34 -110Z" />
<glyph unicode="&#x2dc;" glyph-name="tilde" horiz-adv-x="300" d="M-1 554Q-3 622 21 659T87 697Q118 697 154 677Q186 657 196 657Q209 657 214 666T222 702H302Q306 562 214 562Q183 562 141 584Q114 600 105 600Q83 600 82 554H-1Z" />
<glyph unicode="&#x2dd;" glyph-name="hungarumlaut" horiz-adv-x="300" d="M-22 550L34 705H169L77 550H-22ZM164 550L220 705H355L263 550H164Z" />
<glyph unicode="&#x37e;" glyph-name="uni037E" horiz-adv-x="303" d="M20 -118Q66 63 75 179L253 183Q212 36 138 -108L20 -118ZM51 332T51 380T81 458T159 489T237 459T267 380T237 300T159 269H158Q110 269 81 300Z" />
<glyph unicode="&#x384;" glyph-name="tonos" horiz-adv-x="304" d="M84 550L127 706H280L200 550H84Z" />
<glyph unicode="&#x385;" glyph-name="dieresistonos" horiz-adv-x="474" d="M7 629Q7 659 27 678T77 698Q106 698 125 679T144 629Q144 600 125 580T77 560H76Q48 560 28 580T7 629ZM171 555L192 738H320L262 555H171ZM326 629Q326 659 346 678T396 698Q425 698
444 679T464 629Q464 600 445 580T396 560H395Q366 560 346 580T326 629Z" />
<glyph unicode="&#x386;" glyph-name="Alphatonos" horiz-adv-x="685" d="M0 492V674H140L102 492H0ZM24 0L219 674H460L661 0H466L423 156H249L211 0H24ZM273 290H398L367 411Q363 425 351 473T333 544H331Q326 522 316 475T302 410L273 290Z" />
<glyph unicode="&#x387;" glyph-name="anoteleia" horiz-adv-x="303" d="M38 313Q38 364 70 396T152 429T233 397T265 313Q265 262 234 230T152 198H151Q102 198 70 230T38 313Z" />
<glyph unicode="&#x388;" glyph-name="Epsilontonos" horiz-adv-x="677" d="M0 492V674H140L102 492H0ZM187 0V674H625V527H368V418H610V272H368V148H639V0H187Z" />
<glyph unicode="&#x389;" glyph-name="Etatonos" horiz-adv-x="829" d="M0 492V674H140L102 492H0ZM187 0V674H367V425H586V674H767V0H586V267H367V0H187Z" />
<glyph unicode="&#x38a;" glyph-name="Iotatonos" horiz-adv-x="430" d="M0 492V674H140L102 492H0ZM187 0V674H368V0H187Z" />
<glyph unicode="&#x38c;" glyph-name="Omicrontonos" horiz-adv-x="820" d="M0 492V674H140L102 492H0ZM124 333Q124 484 215 584T459 685Q614 685 700 586T786 344Q786 181 695 85T448 -11H447Q296 -11 210 87T124 333ZM315 337Q314 246 352 189T455 132H456Q521
132 558 189T595 338Q595 427 558 484T455 542Q391 542 353 484T315 337Z" />
<glyph unicode="&#x38e;" glyph-name="Upsilontonos" horiz-adv-x="810" d="M0 492V674H140L102 492H0ZM173 531L200 680Q253 680 310 659T409 590Q478 518 489 387H497Q512 502 583 583Q624 627 677 653T772 680L799 526Q724 507 667 435T589 273Q572 202 572
135V0H392V135Q392 206 382 266Q344 501 173 531Z" />
<glyph unicode="&#x38f;" glyph-name="Omegatonos" horiz-adv-x="846" d="M0 492V674H140L102 492H0ZM118 0V136H245V139Q198 176 164 236T130 374Q130 503 225 594T472 685Q624 685 712 595T801 386Q801 244 683 139V136H813V0H497V104Q553 148 584 205T615 350Q615
433 574 487T468 542Q402 542 360 488T317 349Q317 266 350 201T436 104V0H118Z" />
<glyph unicode="&#x390;" glyph-name="iotadieresistonos" horiz-adv-x="299" d="M-72 619Q-72 649 -52 668T-2 688Q27 688 46 669T65 619Q65 591 46 571T-2 551H-3Q-31 551 -51 571T-72 619ZM56 151V492H236V168Q236 120 281 125L273 1Q250 -11 198 -11Q126 -11
91 25T56 151ZM91 548L112 728H239L181 548H91ZM244 619Q244 649 264 668T313 688T362 669T382 619Q382 591 362 571T313 551H312Q284 551 264 571T244 619Z" />
<glyph unicode="&#x391;" glyph-name="Alpha" horiz-adv-x="675" d="M14 0L210 674H450L651 0H456L413 156H239L201 0H14ZM263 290H388L357 411Q351 433 339 484T324 544H322Q317 525 307 478T292 410L263 290Z" />
<glyph unicode="&#x392;" glyph-name="Beta" horiz-adv-x="631" d="M62 4V665Q144 679 275 679Q416 679 481 646Q522 627 547 591T572 508Q572 408 462 366V364Q524 347 559 304T594 200Q594 110 519 53Q437 -8 240 -8Q136 -8 62 4ZM241 127Q254 125 293 125Q342
125 373 145T404 208Q404 287 284 287H241V127ZM241 415H277Q391 415 391 485Q391 550 300 550Q265 550 241 546V415Z" />
<glyph unicode="&#x393;" glyph-name="Gamma" horiz-adv-x="495" d="M62 0V674H492V523H243V0H62Z" />
<glyph unicode="&#x394;" glyph-name="increment" horiz-adv-x="661" d="M12 0V88L220 674H443L645 89V0H12ZM208 148H437L360 391Q340 456 323 533H319Q287 407 285 398L208 148Z" />
<glyph unicode="&#x395;" glyph-name="Epsilon" horiz-adv-x="552" d="M62 0V674H500V527H243V418H485V272H243V148H514V0H62Z" />
<glyph unicode="&#x396;" glyph-name="Zeta" horiz-adv-x="588" d="M21 0V96L319 521V525H49V674H553V571L264 153V149H558V0H21Z" />
<glyph unicode="&#x397;" glyph-name="Eta" horiz-adv-x="705" d="M62 0V674H243V425H462V674H642V0H462V267H243V0H62Z" />
<glyph unicode="&#x398;" glyph-name="Theta" horiz-adv-x="733" d="M34 333Q34 484 126 584T370 685Q475 685 551 637T663 512T699 344Q699 181 608 85T360 -11H359Q208 -11 121 87T34 333ZM224 337Q224 245 263 189T367 132H368Q434 132 471 188T508 338Q508
428 470 485T367 543T263 485T224 337ZM274 270V414H457V270H274Z" />
<glyph unicode="&#x399;" glyph-name="Iota" horiz-adv-x="305" d="M62 0V674H243V0H62Z" />
<glyph unicode="&#x39a;" glyph-name="Kappa" horiz-adv-x="646" d="M62 0V674H241V388H243Q262 423 287 462L416 674H638L424 387L646 0H437L295 273L241 204V0H62Z" />
<glyph unicode="&#x39b;" glyph-name="Lambda" horiz-adv-x="665" d="M14 0L210 674H447L652 0H455L357 378L322 529H320Q315 506 306 454T291 377L203 0H14Z" />
<glyph unicode="&#x39c;" glyph-name="Mu" horiz-adv-x="865" d="M48 0L89 674H332L377 493Q411 351 429 246H433Q474 423 494 494L544 674H782L816 0H640L632 241Q628 398 629 513H626Q597 391 555 249L488 14H347L290 248Q257 388 237 513H235L224 241L214 0H48Z" />
<glyph unicode="&#x39d;" glyph-name="Nu" horiz-adv-x="705" d="M62 0V674H275L382 467Q434 372 488 231H491Q477 356 477 515V674H642V0H452L338 224Q266 361 224 468H221Q227 332 227 166V0H62Z" />
<glyph unicode="&#x39e;" glyph-name="Xi" horiz-adv-x="589" d="M42 0V148H552V0H42ZM58 528V674H536V528H58ZM88 271V417H505V271H88Z" />
<glyph unicode="&#x39f;" glyph-name="Omicron" horiz-adv-x="730" d="M34 333Q34 484 126 584T369 685Q524 685 610 587T696 344Q696 181 605 85T359 -11H358Q207 -11 121 87T34 333ZM225 337Q225 246 263 189T366 132H367Q431 132 468 189T505 338Q505 427 468
484T366 542T264 484T225 337Z" />
<glyph unicode="&#x3a0;" glyph-name="Pi" horiz-adv-x="681" d="M62 0V674H619V0H439V523H243V0H62Z" />
<glyph unicode="&#x3a1;" glyph-name="Rho" horiz-adv-x="602" d="M62 0V665Q148 679 285 679Q429 679 498 626Q533 600 554 557T575 463Q575 356 510 297Q431 227 285 227Q263 227 241 229V0H62ZM241 367Q261 365 282 365Q335 365 366 390T397 459Q397 498 371
520T295 543Q259 543 241 539V367Z" />
<glyph unicode="&#x3a3;" glyph-name="Sigma" horiz-adv-x="590" d="M32 0V101L217 334L42 557V674H531V527H271V523L410 341L261 152V148H554V0H32Z" />
<glyph unicode="&#x3a4;" glyph-name="Tau" horiz-adv-x="570" d="M21 523V674H549V523H374V0H193V523H21Z" />
<glyph unicode="&#x3a5;" glyph-name="Upsilon" horiz-adv-x="642" d="M8 531L35 680Q88 680 144 659T243 590Q313 517 324 387H332Q347 502 418 583Q459 627 511 653T607 680L634 526Q559 507 502 435T423 273Q407 200 407 135V0H226V135Q226 204 217 266Q179
501 8 531Z" />
<glyph unicode="&#x3a6;" glyph-name="Phi" horiz-adv-x="815" d="M33 334Q33 405 59 464T129 560T222 619T324 650V703H492V650Q548 643 598 621T690 561T756 467T781 341Q781 209 698 128T490 27V-29H322V27Q244 38 181 72T76 175T33 334ZM214 334Q214 260 248
212T323 153V526Q279 514 247 466T214 334ZM491 153Q534 164 567 208T600 335Q600 420 568 467T491 526V153Z" />
<glyph unicode="&#x3a7;" glyph-name="Chi" horiz-adv-x="631" d="M13 0L202 341L19 674H227L272 567Q295 517 317 456H320Q344 526 359 566L401 674H607L423 345L619 0H410L360 110L308 227H306Q301 211 263 111L218 0H13Z" />
<glyph unicode="&#x3a8;" glyph-name="Psi" horiz-adv-x="767" d="M40 443V674H213V470Q213 384 236 349T302 311V674H466V310Q509 314 532 356T556 506V674H729V479Q729 330 656 257T467 175V0H302V175Q186 183 113 248T40 443Z" />
<glyph unicode="&#x3a9;" glyph-name="Omega" horiz-adv-x="761" d="M33 0V136H160V139Q113 176 79 236T45 374Q45 503 140 594T387 685Q539 685 627 595T716 386Q716 244 598 139V136H728V0H412V104Q530 198 530 350Q530 433 489 487T383 542Q317 542 275 488T232
349Q232 274 266 204T351 104V0H33Z" />
<glyph unicode="&#x3aa;" glyph-name="Iotadieresis" horiz-adv-x="305" d="M-31 791Q-31 824 -9 845T47 867Q78 867 99 846T120 791Q120 759 99 737T47 715H46Q14 715 -8 737T-31 791ZM62 0V674H243V0H62ZM184 791Q184 824 205 845T260 867Q292 867 313 846T335
791Q335 759 314 737T260 715H259Q227 715 206 737T184 791Z" />
<glyph unicode="&#x3ab;" glyph-name="Upsilondieresis" horiz-adv-x="642" d="M8 531L35 680Q88 680 144 659T243 590Q313 517 324 387H332Q347 502 418 583Q459 627 511 653T607 680L634 526Q559 507 502 435T423 273Q407 200 407 135V0H226V135Q226 204 217
266Q179 501 8 531ZM141 774Q141 807 163 828T219 850Q250 850 271 829T292 774Q292 743 271 721T219 698H218Q186 698 164 720T141 774ZM356 774Q356 807 377 828T432 850Q464 850 485 829T507 774Q507 743 486 721T432 698H431Q399 698 378 720T356 774Z" />
<glyph unicode="&#x3ac;" glyph-name="alphatonos" horiz-adv-x="597" d="M31 235Q31 355 99 429T256 503Q342 503 383 437H387Q391 462 400 492H551Q537 316 537 183Q537 117 581 123L572 -1Q554 -11 509 -11Q419 -11 393 73H391Q341 -11 237 -11Q150 -11 91
57T31 235ZM214 244Q214 195 235 163T288 131Q315 131 334 153T359 209Q362 230 362 249Q362 274 360 284Q355 323 336 344T292 366Q256 366 235 331T214 245V244ZM245 550L287 706H441L361 550H245Z" />
<glyph unicode="&#x3ad;" glyph-name="epsilontonos" horiz-adv-x="481" d="M31 142Q31 185 61 216T133 258V263Q53 292 53 364Q53 421 110 462T275 503Q377 503 446 466L416 353Q366 380 304 380Q234 380 234 344Q234 313 337 312H380V197H338Q283 196 255 189T226
163Q226 122 309 122Q377 122 436 149L459 34Q385 -11 260 -11Q200 -11 151 2T67 52T31 142ZM198 550L241 706H394L315 550H198Z" />
<glyph unicode="&#x3ae;" glyph-name="etatonos" horiz-adv-x="599" d="M39 492H198Q214 464 215 429H219Q238 457 275 480T366 503Q452 503 497 448T543 290V-30Q543 -161 553 -198H382Q363 -170 363 -27V268Q363 358 300 358Q259 358 241 315Q236 304 236 279V0H56V325Q56
440 39 492ZM241 550L283 706H437L357 550H241Z" />
<glyph unicode="&#x3af;" glyph-name="iotatonos" horiz-adv-x="299" d="M56 151V492H236V168Q236 120 281 125L272 1Q251 -11 197 -11Q126 -11 91 25T56 151ZM86 551L129 707H285L205 551H86Z" />
<glyph unicode="&#x3b0;" glyph-name="upsilondieresistonos" horiz-adv-x="573" d="M35 492H211Q228 474 228 395V217Q228 179 245 157T290 134Q361 134 361 296Q361 411 333 492H500Q538 414 538 306Q538 244 524 190T481 90T399 16T275 -11Q174 -11 111 45T47
207V329Q47 454 35 492ZM53 618Q53 648 73 667T124 687Q152 687 171 668T191 618Q191 589 172 569T124 549H123Q94 549 74 569T53 618ZM217 546L238 727H365L307 546H217ZM372 618Q372 648 392 667T441 687T489 668T509 618Q509 589 490 569T441 549H440Q411 549
392 569T372 618Z" />
<glyph unicode="&#x3b1;" glyph-name="alpha" horiz-adv-x="596" d="M31 235Q31 355 99 429T256 503Q342 503 383 437H387Q391 462 400 492H551Q537 316 537 183Q537 117 581 123L572 -1Q554 -11 509 -11Q419 -11 393 73H391Q341 -11 237 -11Q150 -11 91 57T31
235ZM214 244Q214 195 235 163T288 131Q315 131 334 153T359 209Q362 230 362 249Q362 274 360 284Q355 323 336 344T292 366Q256 366 235 331T214 245V244Z" />
<glyph unicode="&#x3b2;" glyph-name="beta" horiz-adv-x="599" d="M52 -27V405Q52 585 133 659Q200 721 306 721Q407 721 461 667T516 534Q516 493 497 451T439 388V382Q491 369 529 318T568 202Q568 109 508 49T354 -11Q274 -11 229 26H227V-27Q227 -149 239
-198H72Q52 -158 52 -27ZM226 161Q260 123 305 123Q346 123 366 148T386 210Q386 251 361 275T298 305H278V413Q285 413 294 416Q322 424 338 448T355 505Q355 539 340 560T297 582Q226 582 226 440V161Z" />
<glyph unicode="&#x3b3;" glyph-name="gamma" horiz-adv-x="536" d="M-16 492H183Q210 451 240 361T287 176H292Q347 313 347 444Q347 459 347 474T346 492H517Q519 482 519 452Q519 361 473 246T346 16Q339 7 339 -8Q339 -18 342 -198H168Q172 -24 152 79Q115
270 -16 492Z" />
<glyph unicode="&#x3b4;" glyph-name="delta" horiz-adv-x="589" d="M31 231Q31 314 77 370T188 457V461L170 478Q119 532 119 580Q119 636 176 678T330 721Q391 721 440 706T517 671L472 561Q455 572 419 583T349 595Q307 595 307 577Q307 567 357 527L438 461Q557
366 557 243Q557 129 480 59T289 -11Q178 -11 105 57T31 231ZM216 234Q216 188 239 152T300 116Q334 116 355 147T377 227Q377 290 325 337L283 374Q216 328 216 234Z" />
<glyph unicode="&#x3b5;" glyph-name="epsilon" horiz-adv-x="481" d="M31 142Q31 185 61 216T133 258V263Q53 292 53 364Q53 421 110 462T275 503Q381 503 446 466L416 353Q366 380 304 380Q234 380 234 344Q234 313 337 312H380V197H338Q283 196 255 189T226
163Q226 122 309 122Q377 122 436 149L459 34Q385 -11 260 -11Q200 -11 151 2T67 52T31 142Z" />
<glyph unicode="&#x3b6;" glyph-name="zeta" d="M33 221Q33 314 81 406T217 576V581H180Q107 581 71 595L87 708Q119 705 234 705H428L453 589Q361 551 290 453T218 255Q218 164 286 128Q326 104 437 87Q448 85 448 72Q448 18 425 -49T369 -157L259 -121Q279 -80
283 -27Q219 -16 174 2Q33 62 33 221Z" />
<glyph unicode="&#x3b7;" glyph-name="eta" horiz-adv-x="599" d="M39 492H198Q214 464 215 429H219Q238 457 275 480T366 503Q452 503 497 448T543 290V-30Q543 -161 553 -198H382Q363 -170 363 -27V268Q363 358 300 358Q259 358 241 315Q236 304 236 279V0H56V325Q56
440 39 492Z" />
<glyph unicode="&#x3b8;" glyph-name="theta" horiz-adv-x="586" d="M31 360Q31 520 100 620T300 721Q427 721 491 624T555 360Q555 187 489 88T292 -11H291Q167 -11 99 85T31 360ZM209 424H376Q376 501 355 549T295 597Q253 597 231 550T209 424ZM210 296Q210
211 231 162T295 113Q379 113 379 296H210Z" />
<glyph unicode="&#x3b9;" glyph-name="iota" horiz-adv-x="299" d="M56 151V492H236V168Q236 120 281 125L272 1Q251 -11 197 -11Q126 -11 91 25T56 151Z" />
<glyph unicode="&#x3ba;" glyph-name="kappa" horiz-adv-x="571" d="M41 492H218Q236 474 236 402V293H238Q284 362 358 492H560V486L386 270V265Q417 256 440 226T492 140L567 0H360L315 96Q291 146 276 168T242 193H236V0H56V359Q56 465 41 492Z" />
<glyph unicode="&#x3bb;" glyph-name="lambda" horiz-adv-x="538" d="M2 0L172 450Q177 463 177 476Q177 485 171 501Q159 534 133 554T79 574H55L71 710Q90 717 128 717Q211 717 263 659T353 496L537 0H345L291 198Q280 236 265 301H260Q251 244 239 200L190 0H2Z" />
<glyph unicode="&#x3bc;" glyph-name="mu" horiz-adv-x="598" d="M56 -22V492H236V224Q236 132 295 132Q316 132 333 145T357 175Q362 184 362 202V492H542V171Q542 145 551 135T582 123L572 1Q552 -11 507 -11Q417 -11 386 64H383Q371 35 342 15T270 -6Q241 -6
217 13V-22Q217 -147 228 -198H69Q56 -166 56 -22Z" />
<glyph unicode="&#x3bd;" glyph-name="nu" horiz-adv-x="529" d="M-3 492H191L244 283Q250 261 258 221T271 165H275Q340 312 340 455Q340 479 339 492H509Q511 479 511 453Q511 282 339 0H164L-3 492Z" />
<glyph unicode="&#x3be;" glyph-name="xi" horiz-adv-x="489" d="M31 195Q31 265 72 318T181 391V397Q132 416 106 454T79 540Q79 617 143 669T321 721Q402 721 466 695L439 579Q399 596 354 596T285 574T260 518Q260 449 384 437Q388 437 397 437T411 436V317H383Q306
317 265 291T223 216Q223 142 345 111Q398 97 470 86Q482 84 482 73Q482 24 458 -46T403 -156L293 -121Q311 -77 313 -28Q271 -21 240 -14T166 10T97 49T51 109T31 195Z" />
<glyph unicode="&#x3bf;" glyph-name="omicron" horiz-adv-x="589" d="M31 243Q31 361 104 432T302 503Q417 503 487 433T558 251Q558 124 481 57T293 -11H292Q179 -11 105 57T31 243ZM217 246Q217 188 237 152T296 116H297Q333 116 352 151T372 246Q372 302 353
339T296 376Q255 376 236 339T217 246Z" />
<glyph unicode="&#x3c0;" glyph-name="pi" horiz-adv-x="620" d="M-2 455Q32 492 189 492H606L591 356H534V158Q534 60 545 0H373Q356 24 356 146V356H273Q273 270 259 162T224 0H51Q72 77 86 182T98 356Q41 356 16 350L-2 455Z" />
<glyph unicode="&#x3c1;" glyph-name="rho" horiz-adv-x="604" d="M52 -27V194Q52 372 156 450Q224 503 322 503Q435 503 504 432T573 246Q573 125 503 57T343 -11Q269 -11 234 27H232V-30Q232 -161 239 -198H64Q52 -165 52 -27ZM232 198Q232 184 235 171Q241
155 260 141T305 126Q345 126 367 158T390 244Q390 296 369 325T312 355Q275 355 254 323T232 233V198Z" />
<glyph unicode="&#x3c2;" glyph-name="sigma1" horiz-adv-x="475" d="M31 227Q31 339 111 421T329 503Q406 503 459 478L426 352Q381 369 339 369Q286 369 252 333T217 238Q217 153 306 123Q348 109 450 89Q459 88 459 75Q459 18 436 -53T381 -158L270 -121Q285
-89 293 -28Q240 -16 226 -11Q31 44 31 227Z" />
<glyph unicode="&#x3c3;" glyph-name="sigma" horiz-adv-x="612" d="M31 240Q31 359 105 431T311 503H405H490H603L596 374Q554 374 498 381L496 376Q522 350 535 312T549 241Q549 117 476 53T293 -11Q179 -11 105 56T31 240ZM217 246Q217 188 237 152T296 116H297Q333
116 352 151T372 246Q372 302 354 339T299 376Q256 376 237 339T217 246Z" />
<glyph unicode="&#x3c4;" glyph-name="tau" horiz-adv-x="469" d="M-11 456Q38 492 179 492H459L443 356H317V186Q317 127 364 127H383L376 2Q352 -11 297 -11Q208 -11 173 33T137 172V356H101Q44 356 11 350L-11 456Z" />
<glyph unicode="&#x3c5;" glyph-name="upsilon" horiz-adv-x="573" d="M35 492H211Q228 474 228 395V217Q228 179 245 157T290 134Q361 134 361 296Q361 411 333 492H500Q538 414 538 306Q538 244 524 190T481 90T399 16T275 -11Q174 -11 111 45T47 207V329Q47
454 35 492Z" />
<glyph unicode="&#x3c6;" glyph-name="phi" horiz-adv-x="741" d="M31 250Q31 346 90 415T215 505L283 409Q252 386 231 346T210 254Q210 198 233 160T296 110V316Q296 412 349 459T476 503Q572 500 640 432T709 256Q709 141 632 70T453 -11V-198H296V-11Q244
-6 198 11T114 59T53 139T31 250ZM453 108Q491 118 515 155T540 252Q540 307 519 344T472 382Q453 382 453 355V108Z" />
<glyph unicode="&#x3c7;" glyph-name="chi" horiz-adv-x="524" d="M-5 -192L168 157L-1 492H192L275 288H279L307 365L356 492H526L358 157L525 -193L354 -231L251 6H246Q213 -81 212 -83L148 -231L-5 -192Z" />
<glyph unicode="&#x3c8;" glyph-name="psi" horiz-adv-x="758" d="M44 492H208Q223 474 223 395V277Q223 122 305 113V620H463V113Q509 114 531 166T553 290Q553 356 543 412T523 492H682Q723 414 723 300Q723 220 700 155T616 43T463 -11V-198H304V-11Q51 7 51
264V362Q51 450 44 492Z" />
<glyph unicode="&#x3c9;" glyph-name="omega" horiz-adv-x="750" d="M31 250Q31 395 111 492H272V489Q205 397 205 263Q205 204 220 172T258 140Q294 140 292 206L289 379H458L454 206Q454 140 489 140Q515 140 529 174T544 273Q544 412 480 489V492H642Q672 462
695 400T719 264Q719 138 659 64T506 -11Q463 -11 427 9T374 63H369Q320 -11 236 -11Q151 -11 91 58T31 250Z" />
<glyph unicode="&#x3ca;" glyph-name="iotadieresis" horiz-adv-x="299" d="M-34 620Q-34 654 -12 675T45 697Q77 697 98 676T119 620Q119 588 98 566T45 543H44Q11 543 -11 565T-34 620ZM56 151V492H236V168Q236 120 281 125L273 1Q250 -11 198 -11Q126 -11 91
25T56 151ZM181 620Q181 654 203 675T258 697T312 676T334 620Q334 588 313 566T258 543H257Q225 543 203 565T181 620Z" />
<glyph unicode="&#x3cb;" glyph-name="upsilondieresis" horiz-adv-x="573" d="M35 492H211Q228 474 228 395V217Q228 179 245 157T290 134Q361 134 361 296Q361 411 333 492H500Q538 414 538 306Q538 244 524 190T481 90T399 16T275 -11Q174 -11 111 45T47 207V329Q47
454 35 492ZM94 620Q94 653 116 675T172 697Q204 697 225 676T246 620Q246 588 225 566T172 543H171Q138 543 116 565T94 620ZM309 620Q309 654 330 675T386 697Q418 697 439 676T461 620Q461 588 440 566T386 543H385Q352 543 331 565T309 620Z" />
<glyph unicode="&#x3cc;" glyph-name="omicrontonos" horiz-adv-x="589" d="M31 243Q31 361 104 432T302 503Q417 503 487 433T558 251Q558 124 481 57T293 -11H292Q179 -11 105 57T31 243ZM217 246Q217 188 237 152T296 116H297Q333 116 352 151T372 246Q372
302 353 339T296 376Q255 376 236 339T217 246ZM237 550L280 706H433L353 550H237Z" />
<glyph unicode="&#x3cd;" glyph-name="upsilontonos" horiz-adv-x="573" d="M35 492H211Q228 474 228 395V217Q228 179 245 157T290 134Q361 134 361 296Q361 411 333 492H500Q538 414 538 306Q538 244 524 190T481 90T399 16T275 -11Q174 -11 111 45T47 207V329Q47
454 35 492ZM221 551L264 707H420L340 551H221Z" />
<glyph unicode="&#x3ce;" glyph-name="omegatonos" horiz-adv-x="750" d="M31 250Q31 395 111 492H272V489Q205 397 205 263Q205 204 220 172T259 140Q294 140 292 206L290 379H458L455 206Q455 140 489 140Q515 140 530 174T545 273Q545 411 480 489V492H642Q672
462 696 400T720 264Q720 138 660 64T506 -11Q464 -11 428 9T374 63H370Q319 -11 236 -11Q151 -11 91 58T31 250ZM318 550L360 706H514L434 550H318Z" />
<glyph unicode="&#x401;" glyph-name="afii10023" horiz-adv-x="552" d="M62 0V674H500V527H243V418H485V272H243V148H514V0H62ZM93 754T93 786T115 840T171 862Q202 862 223 840T245 786T224 732T171 709H170Q138 709 116 731ZM311 754T311 786T333 840T388 862Q420
862 441 840T463 786T441 732T388 709H387Q354 709 333 731Z" />
<glyph unicode="&#x402;" glyph-name="afii10051" horiz-adv-x="747" d="M21 526V674H601V526H371V429H376Q422 452 486 452Q588 452 652 373Q714 297 714 170Q714 68 672 -6T549 -116Q492 -152 432 -157L406 -8Q461 6 485 31Q524 70 524 159Q524 239 496 275Q468
307 427 307Q396 307 371 290V0H191V526H21Z" />
<glyph unicode="&#x403;" glyph-name="afii10052" horiz-adv-x="514" d="M62 0V674H492V527H243V0H62ZM189 710L270 836H453L333 710H189Z" />
<glyph unicode="&#x404;" glyph-name="afii10053" horiz-adv-x="603" d="M34 334Q34 402 56 463T121 575T237 655T400 685Q507 685 577 651L542 513Q482 540 408 540Q332 540 287 504T228 409H517V269H230Q239 207 290 172T422 137Q490 137 543 158L568 22Q502
-11 396 -11Q223 -11 129 82T34 334Z" />
<glyph unicode="&#x405;" glyph-name="afii10054" horiz-adv-x="561" d="M40 31L74 180Q156 138 249 138Q341 138 341 193Q341 217 318 234T235 271Q46 337 46 474Q46 566 119 625T316 685Q420 685 499 650L461 506Q390 538 314 538Q273 538 251 525T229 488Q229
464 253 450T350 408Q526 344 526 205Q526 112 453 51T238 -11Q181 -11 127 1T40 31Z" />
<glyph unicode="&#x406;" glyph-name="afii10055" horiz-adv-x="305" d="M62 0V674H243V0H62Z" />
<glyph unicode="&#x407;" glyph-name="afii10056" horiz-adv-x="305" d="M-33 754T-33 786T-11 840T45 862Q76 862 97 840T119 786T98 732T45 709H44Q12 709 -10 731ZM62 0V674H243V0H62ZM185 754T185 786T207 840T262 862Q294 862 315 840T337 786T315 732T262
709H261Q228 709 207 731Z" />
<glyph unicode="&#x408;" glyph-name="afii10057" horiz-adv-x="429" d="M-4 5L16 150Q56 139 95 139Q142 139 166 165T191 258V674H372V258Q372 116 307 53T116 -11Q45 -11 -4 5Z" />
<glyph unicode="&#x409;" glyph-name="afii10058" horiz-adv-x="972" d="M-3 133Q49 140 77 172Q124 223 124 375V674H595V441Q639 445 673 445Q785 445 862 389T940 226Q940 128 871 70Q781 -8 590 -8Q489 -8 415 4V527H300V386Q300 237 272 150T167 22Q105 -12
20 -12L-3 133ZM594 130Q611 127 639 127Q686 127 719 153T752 223Q752 268 721 290T642 313Q626 313 594 309V130Z" />
<glyph unicode="&#x40a;" glyph-name="afii10059" horiz-adv-x="978" d="M62 0V674H243V431H421V674H600V441Q648 445 679 445Q794 445 870 389T946 227Q946 129 877 70Q786 -8 596 -8Q493 -8 421 4V280H243V0H62ZM600 131Q623 127 646 127Q694 127 726 153T758
223Q758 268 728 290T648 313Q630 313 600 309V131Z" />
<glyph unicode="&#x40b;" glyph-name="afii10060" horiz-adv-x="755" d="M21 526V674H592V526H372V416H376Q433 453 514 453Q602 453 648 399Q698 343 698 237V0H518V214Q518 265 497 287Q479 308 443 308Q405 308 372 284V0H191V526H21Z" />
<glyph unicode="&#x40c;" glyph-name="afii10061" horiz-adv-x="633" d="M62 0V674H240V402H248L415 674H634L408 379Q506 348 546 222Q597 62 626 0H432Q416 32 384 144Q366 205 342 238T270 271H240V0H62ZM228 705L309 831H492L372 705H228Z" />
<glyph unicode="&#x40e;" glyph-name="afii10062" horiz-adv-x="617" d="M3 676H207L289 453Q300 425 315 381T336 320H340Q342 326 353 372T374 455L433 676H623L503 350Q422 140 367 75Q293 -16 176 -16Q127 -16 90 -3L102 142Q124 136 160 136Q219 136 234
175Q239 188 231 202L3 676ZM154 836H273Q273 775 310 775Q346 775 350 836H468Q458 706 308 706Q167 706 154 836Z" />
<glyph unicode="&#x40f;" glyph-name="afii10145" horiz-adv-x="690" d="M62 0V674H243V148H448V674H629V0H428L420 -188H272L264 0H62Z" />
<glyph unicode="&#x410;" glyph-name="afii10017" horiz-adv-x="675" d="M14 0L210 674H450L651 0H456L413 156H239L201 0H14ZM263 290H388L357 411Q351 433 339 484T324 544H322Q317 525 307 478T292 410L263 290Z" />
<glyph unicode="&#x411;" glyph-name="afii10018" horiz-adv-x="628" d="M62 4V674H540V527H242V440Q282 445 323 445Q445 445 520 386Q595 328 595 226Q595 129 527 71Q434 -8 238 -8Q136 -8 62 4ZM241 131Q262 127 294 127Q341 127 374 154Q405 180 405 223Q405
260 377 285Q343 313 288 313Q275 313 241 309V131Z" />
<glyph unicode="&#x412;" glyph-name="afii10019" horiz-adv-x="631" d="M62 4V665Q144 679 275 679Q416 679 481 646Q522 627 547 591T572 508Q572 408 462 366V364Q524 347 559 304T594 200Q594 110 519 53Q437 -8 240 -8Q136 -8 62 4ZM241 127Q254 125 293
125Q342 125 373 145T404 208Q404 287 284 287H241V127ZM241 415H277Q391 415 391 485Q391 550 300 550Q265 550 241 546V415Z" />
<glyph unicode="&#x413;" glyph-name="afii10020" horiz-adv-x="514" d="M62 0V674H492V527H243V0H62Z" />
<glyph unicode="&#x414;" glyph-name="afii10021" horiz-adv-x="713" d="M14 137L73 142Q112 209 136 292Q160 388 160 490V674H628V142L699 137L692 -174H556L547 0H165L156 -174H20L14 137ZM256 146H448V527H327V454Q327 355 299 255Q278 188 256 146Z" />
<glyph unicode="&#x415;" glyph-name="afii10022" horiz-adv-x="552" d="M62 0V674H500V527H243V418H485V272H243V148H514V0H62Z" />
<glyph unicode="&#x416;" glyph-name="afii10024" horiz-adv-x="907" d="M-2 0Q12 31 23 63T51 149T71 212Q115 354 224 377L-2 674H209L358 403H366V674H540V403H547L698 674H907L681 377Q791 364 837 217Q845 192 858 148T883 67T908 0H726Q709 39 680 145Q647
271 561 271H540V0H366V271H345Q260 271 225 145Q199 40 180 0H-2Z" />
<glyph unicode="&#x417;" glyph-name="afii10025" horiz-adv-x="566" d="M28 38L64 176Q92 162 140 149T232 135Q284 135 313 153T343 207Q343 279 220 279H145V412H219Q266 412 294 429T323 479Q323 505 299 522T230 539Q163 539 78 502L38 630Q137 685 262 685Q378
685 444 635T511 509Q511 447 476 408T379 352V350Q442 341 487 299T533 194Q533 139 506 97T435 33T342 0T241 -11Q112 -11 28 38Z" />
<glyph unicode="&#x418;" glyph-name="afii10026" horiz-adv-x="704" d="M62 0V674H228V510Q228 377 220 197H223Q274 315 342 445L456 674H641V0H476V161Q476 342 488 449H485Q436 314 375 203L270 0H62Z" />
<glyph unicode="&#x419;" glyph-name="afii10027" horiz-adv-x="704" d="M62 0V674H228V510Q228 377 220 197H223Q274 315 342 445L456 674H641V0H476V161Q476 342 488 449H485Q436 314 375 203L270 0H62ZM195 834H314Q314 773 351 773Q387 773 391 834H509Q499
704 349 704Q208 704 195 834Z" />
<glyph unicode="&#x41a;" glyph-name="afii10028" horiz-adv-x="633" d="M62 0V674H240V402H248L415 674H634L408 379Q506 348 546 222Q597 62 626 0H432Q416 32 384 144Q366 205 342 238T270 271H240V0H62Z" />
<glyph unicode="&#x41b;" glyph-name="afii10029" horiz-adv-x="666" d="M-3 133Q47 140 77 170Q125 221 125 374V674H604V0H424V527H301V386Q301 238 272 151T167 22Q107 -12 20 -12L-3 133Z" />
<glyph unicode="&#x41c;" glyph-name="afii10030" horiz-adv-x="865" d="M48 0L89 674H332L377 493Q411 351 429 246H433Q474 423 494 494L544 674H782L816 0H640L632 241Q628 398 629 513H626Q597 391 555 249L488 14H347L290 248Q257 388 237 513H235L224 241L214
0H48Z" />
<glyph unicode="&#x41d;" glyph-name="afii10031" horiz-adv-x="705" d="M62 0V674H243V425H462V674H642V0H462V267H243V0H62Z" />
<glyph unicode="&#x41e;" glyph-name="afii10032" horiz-adv-x="730" d="M34 333Q34 484 126 584T369 685Q524 685 610 587T696 344Q696 181 605 85T358 -11Q207 -11 121 87T34 333ZM225 336Q225 242 263 187T367 132Q431 132 468 189T505 338Q505 427 468 484T366
542T264 486T225 336Z" />
<glyph unicode="&#x41f;" glyph-name="afii10033" horiz-adv-x="693" d="M62 0V674H631V0H451V527H243V0H62Z" />
<glyph unicode="&#x420;" glyph-name="afii10034" horiz-adv-x="602" d="M62 0V665Q148 679 285 679Q429 679 498 626Q533 600 554 557T575 463Q575 356 510 297Q431 227 285 227Q263 227 241 229V0H62ZM241 367Q261 365 282 365Q335 365 366 390T397 459Q397
498 371 520T295 543Q259 543 241 539V367Z" />
<glyph unicode="&#x421;" glyph-name="afii10035" horiz-adv-x="602" d="M34 326Q34 441 86 524T222 646T409 685Q522 685 578 655L543 513Q483 537 418 537Q334 537 279 487T224 338Q224 245 276 192T421 139Q491 139 542 159L567 17Q506 -11 397 -11Q306 -11
235 16T121 90T56 197T34 326Z" />
<glyph unicode="&#x422;" glyph-name="afii10036" horiz-adv-x="570" d="M21 523V674H549V523H374V0H193V523H21Z" />
<glyph unicode="&#x423;" glyph-name="afii10037" horiz-adv-x="617" d="M3 676H207L289 453Q300 425 315 381T336 320H340Q342 326 353 372T374 455L433 676H623L503 350Q422 140 367 75Q293 -16 176 -16Q127 -16 90 -3L102 142Q124 136 160 136Q219 136 234
175Q239 188 231 202L3 676Z" />
<glyph unicode="&#x424;" glyph-name="afii10038" horiz-adv-x="817" d="M34 334Q34 395 52 446T99 531T166 590T244 628T325 645V703H493V645Q550 640 600 621T692 566T758 473T783 340Q783 266 759 208T694 115T602 59T492 32V-29H324V32Q266 37 216 56T124
110T58 203T34 334ZM215 337Q215 255 250 209T325 157V522Q281 513 248 469T215 337ZM492 157Q534 164 568 207T602 340Q602 427 570 470T492 522V157Z" />
<glyph unicode="&#x425;" glyph-name="afii10039" horiz-adv-x="631" d="M13 0L202 341L19 674H227L272 567Q295 517 317 456H320Q344 526 359 566L401 674H607L423 345L619 0H410L360 110L308 227H306Q301 211 263 111L218 0H13Z" />
<glyph unicode="&#x426;" glyph-name="afii10040" horiz-adv-x="713" d="M62 0V674H243V148H447V674H628V142L699 137L691 -174H555L546 0H62Z" />
<glyph unicode="&#x427;" glyph-name="afii10041" horiz-adv-x="661" d="M55 450V674H235V482Q235 380 336 380Q374 380 419 400V674H599V-11H419V269H416Q347 238 270 238Q168 238 112 293T55 450Z" />
<glyph unicode="&#x428;" glyph-name="afii10042" horiz-adv-x="942" d="M62 0V674H239V148H383V674H559V148H703V674H880V0H62Z" />
<glyph unicode="&#x429;" glyph-name="afii10043" horiz-adv-x="964" d="M62 0V674H239V148H383V674H559V148H703V674H880V142L951 137L943 -174H807L798 0H62Z" />
<glyph unicode="&#x42a;" glyph-name="afii10044" horiz-adv-x="738" d="M18 527V674H367V447Q405 453 448 453Q554 453 629 393T705 230Q705 137 650 82Q561 -8 365 -8Q261 -8 187 4V527H18ZM366 131Q383 127 415 127Q459 127 487 153T515 223Q515 268 487 291T415
315Q386 315 366 312V131Z" />
<glyph unicode="&#x42b;" glyph-name="afii10045" horiz-adv-x="898" d="M62 4V674H242V447Q280 453 315 453Q427 453 506 394T585 227Q585 138 529 82Q442 -8 237 -8Q136 -8 62 4ZM241 130Q256 127 285 127Q328 127 361 153T395 224Q395 267 361 291T288 315Q266
315 241 312V130ZM641 0V674H821V0H641Z" />
<glyph unicode="&#x42c;" glyph-name="afii10046" horiz-adv-x="628" d="M62 4V674H242V447Q286 453 323 453Q441 453 518 396T595 230Q595 137 540 82Q451 -8 240 -8Q136 -8 62 4ZM241 130Q265 127 291 127Q341 127 373 151T405 222Q405 269 375 292T294 315Q266
315 241 312V130Z" />
<glyph unicode="&#x42d;" glyph-name="afii10047" horiz-adv-x="595" d="M26 20L56 158Q108 136 186 136Q259 136 306 172T365 271H89V410H367Q360 468 317 504T201 541Q133 541 66 515L32 647Q119 685 216 685Q306 685 374 657T482 580T541 469T561 336Q561 169
460 79T198 -11Q148 -11 99 -2T26 20Z" />
<glyph unicode="&#x42e;" glyph-name="afii10048" horiz-adv-x="944" d="M62 0V674H242V422H314Q339 539 418 612T613 685Q707 685 776 637T879 512T912 344Q912 181 828 85T603 -11Q480 -11 403 68T310 271H242V0H62ZM486 337Q486 245 519 188T609 131H610Q667
131 698 188T730 338Q730 427 698 485T609 544T520 486T486 337Z" />
<glyph unicode="&#x42f;" glyph-name="afii10049" horiz-adv-x="625" d="M6 0Q25 30 42 82Q47 96 60 136T80 194T101 237T133 279Q154 298 188 313V317Q129 329 90 370T50 481Q50 573 123 626Q194 679 355 679Q474 679 563 665V0H384V253H359Q324 253 298 230Q279
213 266 187T239 114T222 60Q209 23 197 0H6ZM230 462Q230 423 261 403T338 382Q371 382 384 385V541Q362 546 331 546Q286 546 258 525T230 462Z" />
<glyph unicode="&#x430;" glyph-name="afii10065" horiz-adv-x="548" d="M27 144Q27 239 104 286T312 335V339Q312 381 232 381Q155 381 93 344L61 459Q149 503 265 503Q385 503 439 445T493 286V120Q493 33 501 0H339L329 43H326Q278 -11 189 -11Q116 -11 72
34T27 144ZM203 161Q203 138 217 126T254 114Q274 114 292 126T316 159Q318 167 318 185V225Q203 225 203 161Z" />
<glyph unicode="&#x431;" glyph-name="afii10066" horiz-adv-x="599" d="M36 311Q36 522 153 621Q233 691 357 701Q497 716 514 720L503 580Q459 568 382 564Q280 555 235 511Q214 493 199 463T182 407H188Q211 444 252 468T345 492Q447 492 507 424T568 246Q568
129 493 59T304 -12Q177 -12 107 75T36 311ZM218 246Q218 195 238 156T302 116Q343 116 363 152T383 241V242Q383 294 363 331T299 369Q265 369 245 340Q218 305 218 246Z" />
<glyph unicode="&#x432;" glyph-name="afii10067" horiz-adv-x="574" d="M56 2V486Q138 499 271 499Q525 499 525 373Q525 328 496 302T425 268V265Q482 256 513 226T545 147Q545 -8 242 -8Q136 -8 56 2ZM233 100Q245 98 276 98Q315 98 338 111T361 152Q361 204
267 204H233V100ZM234 305H262Q348 305 348 349Q348 392 278 392Q271 392 264 392T248 390T234 389V305Z" />
<glyph unicode="&#x433;" glyph-name="afii10068" horiz-adv-x="430" d="M56 0V492H416V353H236V0H56Z" />
<glyph unicode="&#x434;" glyph-name="afii10069" horiz-adv-x="616" d="M10 121L58 126Q90 172 107 229Q126 303 126 374V492H545V126L601 123L594 -161H459L454 0H157L149 -161H15L10 121ZM236 130H371V361H282V315Q282 274 268 211Q256 164 236 130Z" />
<glyph unicode="&#x435;" glyph-name="afii10070" horiz-adv-x="539" d="M31 241Q31 286 46 330T90 414T170 478T286 503Q399 503 456 432T513 251Q513 211 506 183H202Q206 155 242 139T328 122Q403 122 463 141L486 21Q407 -11 302 -11Q173 -11 102 56T31 241ZM200
305H347Q347 334 331 359T277 385Q241 385 222 360T200 305Z" />
<glyph unicode="&#x436;" glyph-name="afii10072" horiz-adv-x="767" d="M-5 0Q7 27 57 161Q72 207 98 241T157 283L-5 492H193L282 302H297V492H471V302H486L575 492H772L611 283Q644 276 670 241T711 161Q764 17 772 0H591Q579 20 551 112Q525 187 481 187H471V0H297V187H286Q240
187 215 112Q179 12 172 0H-5Z" />
<glyph unicode="&#x437;" glyph-name="afii10073" horiz-adv-x="512" d="M20 42L56 151Q119 119 202 117Q285 117 285 156Q285 197 194 197H108V305H194Q272 305 272 341Q272 379 194 379Q128 379 68 345L34 448Q123 501 251 501Q290 501 325 495T392 474T443
432T462 368Q462 288 357 261V257Q408 250 445 223T482 145Q482 100 457 68T390 20T308 -2T226 -9Q106 -9 20 42Z" />
<glyph unicode="&#x438;" glyph-name="afii10074" horiz-adv-x="616" d="M56 0V492H225V365Q225 336 217 163H221Q232 193 247 238T268 299L338 492H561V0H391V125Q391 137 400 342H396Q372 257 357 219L276 0H56Z" />
<glyph unicode="&#x439;" glyph-name="afii10075" horiz-adv-x="616" d="M56 0V492H225V365Q225 336 217 163H221Q232 193 247 238T268 299L338 492H561V0H391V125Q391 137 400 342H396Q372 257 357 219L276 0H56ZM158 696H269Q269 663 279 645T307 627Q343 627
348 696H458Q454 623 414 585T305 547Q236 547 199 585T158 696Z" />
<glyph unicode="&#x43a;" glyph-name="afii10076" horiz-adv-x="552" d="M56 0V492H235V303H250L348 492H556L390 284Q449 272 495 155Q497 151 519 90T557 0H369Q361 13 325 112Q300 186 249 186H235V0H56Z" />
<glyph unicode="&#x43b;" glyph-name="afii10077" horiz-adv-x="563" d="M0 127Q41 135 58 156Q73 175 77 204T82 291V492H508V0H327V355H247V280Q247 191 233 134T182 43Q133 -12 20 -12L0 127Z" />
<glyph unicode="&#x43c;" glyph-name="afii10078" horiz-adv-x="753" d="M45 0L78 492H309L347 332Q348 328 375 213H378Q400 303 408 333L452 492H681L709 0H542L537 181Q537 188 535 252T532 351H529Q520 319 510 276T486 190L432 10H301L255 184Q248 210 236
269T219 348H215Q214 320 213 259T211 178L204 0H45Z" />
<glyph unicode="&#x43d;" glyph-name="afii10079" horiz-adv-x="593" d="M56 0V492H236V322H357V492H538V0H357V183H236V0H56Z" />
<glyph unicode="&#x43e;" glyph-name="afii10080" horiz-adv-x="589" d="M31 243Q31 361 104 432T302 503Q417 503 487 433T558 251Q558 124 481 57T292 -11Q179 -11 105 57T31 243ZM217 246Q217 188 237 152T297 116Q333 116 352 151T372 246Q372 302 353 339T296
376Q255 376 236 339T217 246Z" />
<glyph unicode="&#x43f;" glyph-name="afii10081" horiz-adv-x="590" d="M56 0V492H534V0H353V355H236V0H56Z" />
<glyph unicode="&#x440;" glyph-name="afii10082" horiz-adv-x="610" d="M52 492H207L215 430H217Q273 503 376 503Q458 503 518 435T579 252Q579 126 512 58T355 -11Q315 -11 284 2T238 36H236V-198H56V325Q56 400 52 492ZM236 215Q236 198 239 185Q244 160 263
143T309 126Q349 126 372 158T396 244T374 330T311 363Q284 363 264 345T238 299Q236 292 236 276V215Z" />
<glyph unicode="&#x441;" glyph-name="afii10083" horiz-adv-x="452" d="M31 242Q31 353 106 428T319 503Q383 503 433 486L407 353Q375 366 330 366Q279 366 247 334T215 248Q215 191 249 161T334 130Q384 130 413 142L433 10Q385 -11 297 -11Q174 -11 103 57T31 242Z" />
<glyph unicode="&#x442;" glyph-name="afii10084" horiz-adv-x="483" d="M13 355V492H470V355H332V0H151V355H13Z" />
<glyph unicode="&#x443;" glyph-name="afii10085" horiz-adv-x="545" d="M5 492H205L264 271Q268 256 275 225T285 184H289Q292 197 298 228T307 271L352 492H544L439 180Q386 33 347 -39T263 -149Q194 -211 100 -221L63 -69Q93 -64 124 -50Q161 -36 182 -5Q192
7 192 17Q192 26 185 44L5 492Z" />
<glyph unicode="&#x444;" glyph-name="afii10086" horiz-adv-x="754" d="M31 131T31 243T106 421T294 500L292 704H462L460 500Q572 487 647 421T723 243T647 66T460 -9L462 -198H292L295 -9Q184 0 108 65ZM208 246Q208 135 295 107V384Q208 358 208 246ZM459
107Q546 135 546 246Q546 356 459 384V107Z" />
<glyph unicode="&#x445;" glyph-name="afii10087" horiz-adv-x="544" d="M1 0L164 251L3 492H204L243 420Q260 388 279 349H282Q305 403 314 423L347 492H542L383 259L543 0H339L300 79Q280 118 268 149H265Q263 143 251 118T234 79L198 0H1Z" />
<glyph unicode="&#x446;" glyph-name="afii10088" horiz-adv-x="606" d="M56 0V492H236V136H356V492H537V126L593 123L585 -161H451L445 0H56Z" />
<glyph unicode="&#x447;" glyph-name="afii10089" horiz-adv-x="577" d="M51 327V492H231V343Q231 304 245 287T292 269Q320 269 341 285V492H522V-8H341V171H339Q293 143 220 143Q137 143 94 190T51 327Z" />
<glyph unicode="&#x448;" glyph-name="afii10090" horiz-adv-x="845" d="M56 0V492H234V136H334V492H512V136H612V492H790V0H56Z" />
<glyph unicode="&#x449;" glyph-name="afii10091" horiz-adv-x="860" d="M56 0V492H234V136H334V492H512V136H612V492H790V126L846 123L839 -161H704L698 0H56Z" />
<glyph unicode="&#x44a;" glyph-name="afii10092" horiz-adv-x="681" d="M21 356V492H338V356Q366 360 417 360Q463 360 503 351T577 321T632 265T652 181Q652 95 578 48Q494 -6 336 -6Q239 -6 158 4V356H21ZM337 117Q373 114 383 114Q419 114 446 129T473 175Q473
240 376 240Q361 240 337 236V117Z" />
<glyph unicode="&#x44b;" glyph-name="afii10093" horiz-adv-x="826" d="M56 4V492H236V354Q278 360 315 360Q374 360 422 344T504 288T539 186Q539 95 465 48Q381 -6 233 -6Q137 -6 56 4ZM235 116Q257 114 274 114Q310 114 335 130T360 180Q360 211 337 225T281
240Q259 240 235 236V116ZM590 0V492H771V0H590Z" />
<glyph unicode="&#x44c;" glyph-name="afii10094" horiz-adv-x="579" d="M56 4V492H236V354Q278 360 311 360Q375 360 426 345T513 290T550 188Q550 95 476 48Q392 -6 233 -6Q137 -6 56 4ZM235 117Q271 114 279 114Q317 114 344 129T371 178T343 226T278 240Q259
240 235 236V117Z" />
<glyph unicode="&#x44d;" glyph-name="afii10095" horiz-adv-x="494" d="M20 21L45 142Q88 125 153 125Q254 125 276 190H79V301H280Q263 373 165 373Q107 373 58 353L27 468Q99 503 196 503Q308 503 377 447Q463 373 463 249Q463 128 385 59T173 -11Q86 -11 20 21Z" />
<glyph unicode="&#x44e;" glyph-name="afii10096" horiz-adv-x="799" d="M56 0V492H235V319H290Q310 405 372 454T529 503Q635 503 702 433T769 251Q769 124 697 57T521 -11Q430 -11 366 42T286 189H235V0H56ZM456 246Q456 188 473 152T524 116H525Q556 116 572
151T589 246Q589 302 573 339T524 376Q488 376 472 339T456 246Z" />
<glyph unicode="&#x44f;" glyph-name="afii10097" horiz-adv-x="578" d="M7 0Q20 16 37 54Q76 152 103 184Q130 215 167 223V227Q121 232 82 263T42 348Q42 434 134 473Q197 501 321 501Q424 501 523 490V0H345V175H329Q288 175 263 137Q245 117 217 41Q211 26
198 0H7ZM229 362T229 337T251 297T306 282Q325 282 345 284V388Q315 391 303 391Q269 391 249 377Z" />
<glyph unicode="&#x451;" glyph-name="afii10071" horiz-adv-x="539" d="M31 241Q31 286 46 330T90 414T170 478T286 503Q399 503 456 432T513 251Q513 211 506 183H202Q206 155 242 139T328 122Q403 122 463 141L486 21Q407 -11 302 -11Q173 -11 102 56T31 241ZM96
630Q96 664 119 686T177 709Q209 709 231 687T253 630Q253 597 231 574T177 551H176Q142 551 119 574T96 630ZM200 305H347Q347 334 331 359T277 385Q241 385 222 360T200 305ZM318 630Q318 664 340 686T398 709Q431 709 453 687T475 630Q475 597 453 574T398 551H396Q363
551 341 574T318 630Z" />
<glyph unicode="&#x452;" glyph-name="afii10099" horiz-adv-x="599" d="M-1 534V649H67V710H248V649H452V534H248V440H250Q300 486 369 486Q466 486 521 393Q565 318 565 201Q565 -39 427 -115Q364 -150 314 -152L281 -9Q318 0 343 25Q360 44 372 89T384 186Q384
260 364 301Q343 341 308 341Q278 341 258 319Q248 306 248 284V0H67V534H-1Z" />
<glyph unicode="&#x453;" glyph-name="afii10100" horiz-adv-x="430" d="M56 0V492H416V353H236V0H56ZM150 550L236 706H395L273 550H150Z" />
<glyph unicode="&#x454;" glyph-name="afii10101" horiz-adv-x="478" d="M31 241Q31 367 116 435T330 503Q412 503 458 479L428 356Q392 374 335 374Q289 374 258 355T218 301H404V190H222Q242 123 343 123Q392 123 435 138L459 16Q407 -11 312 -11Q183 -11 107
56T31 241Z" />
<glyph unicode="&#x455;" glyph-name="afii10102" horiz-adv-x="451" d="M30 24L60 151Q82 137 123 126T197 114Q250 114 250 141Q250 155 238 163T186 184Q40 230 42 334Q42 408 100 455T254 503Q341 503 401 475L372 353Q316 380 263 380Q214 380 214 352Q214
340 229 331T288 307Q359 284 390 247T423 154Q423 80 366 35T198 -11Q98 -11 30 24Z" />
<glyph unicode="&#x456;" glyph-name="afii10103" horiz-adv-x="292" d="M54 591T54 628T79 689T146 713T212 689T238 628Q238 591 213 567T145 542Q104 542 79 566ZM56 0V492H236V0H56Z" />
<glyph unicode="&#x457;" glyph-name="afii10104" horiz-adv-x="292" d="M-45 630Q-45 664 -22 686T36 709Q68 709 90 687T112 630Q112 597 90 574T36 551H35Q2 551 -21 574T-45 630ZM56 0V492H236V0H56ZM177 630Q177 664 199 686T257 709Q290 709 312 687T334
630Q334 597 312 574T257 551H255Q222 551 200 574T177 630Z" />
<glyph unicode="&#x458;" glyph-name="afii10105" horiz-adv-x="312" d="M-37 -77Q27 -70 50 -46Q79 -18 79 104V492H259V66Q259 -88 186 -155Q115 -217 -20 -217L-37 -77ZM77 591T77 628T102 689T169 713T235 689T260 628Q261 591 236 567T167 542Q127 542 102 566Z" />
<glyph unicode="&#x459;" glyph-name="afii10106" horiz-adv-x="846" d="M0 127Q39 135 56 155Q72 172 77 203T82 291V492H508V351Q550 357 582 357Q627 357 667 347T742 317T797 261T817 179Q817 96 751 49Q673 -6 509 -6Q409 -6 328 4V355H247V280Q247 101 182
44Q133 -12 20 -12L0 127ZM507 116Q531 114 550 114Q586 114 612 128T638 176T613 223T555 238Q533 238 507 234V116Z" />
<glyph unicode="&#x45a;" glyph-name="afii10107" horiz-adv-x="864" d="M56 0V492H236V332H346V492H526V351Q568 357 601 357Q699 357 767 312T835 177Q835 96 769 49Q691 -6 527 -6Q427 -6 346 4V201H236V0H56ZM525 117Q561 114 568 114Q604 114 630 129T656
176Q656 238 569 238Q551 238 525 234V117Z" />
<glyph unicode="&#x45b;" glyph-name="afii10108" horiz-adv-x="610" d="M-1 534V649H67V710H248V649H445V534H248V423H250Q274 453 308 469Q345 486 382 486Q465 486 510 430T555 270V0H374V248Q374 341 310 341Q268 341 252 302Q248 291 248 273V0H67V534H-1Z" />
<glyph unicode="&#x45c;" glyph-name="afii10109" horiz-adv-x="552" d="M56 0V492H235V303H250L348 492H556L390 284Q449 272 495 155Q497 151 519 90T557 0H369Q361 13 325 112Q300 186 249 186H235V0H56ZM196 550L282 706H441L319 550H196Z" />
<glyph unicode="&#x45e;" glyph-name="afii10110" horiz-adv-x="545" d="M5 492H205L264 271Q268 256 275 225T285 184H289Q292 197 298 228T307 271L352 492H544L439 180Q386 33 347 -39T263 -149Q194 -211 100 -221L63 -69Q93 -64 124 -50Q161 -36 182 -5Q192
7 192 17Q192 26 185 44L5 492ZM123 696H234Q234 663 244 645T272 627Q308 627 313 696H423Q419 623 379 585T270 547Q201 547 164 585T123 696Z" />
<glyph unicode="&#x45f;" glyph-name="afii10193" horiz-adv-x="592" d="M56 0V492H236V136H356V492H537V0H377L368 -169H223L214 0H56Z" />
<glyph unicode="&#x490;" glyph-name="afii10050" horiz-adv-x="511" d="M62 0V674H357L373 807H501L489 527H243V0H62Z" />
<glyph unicode="&#x491;" glyph-name="afii10098" horiz-adv-x="448" d="M56 0V492H291L307 615H431L421 353H236V0H56Z" />
<glyph unicode="&#x4d9;" glyph-name="afii10846" horiz-adv-x="328" d="M26 241Q26 281 33 309H337Q328 371 216 371Q148 371 76 349L53 467Q137 503 241 503Q368 503 438 436T508 251Q508 206 494 162T450 78T371 14T256 -11Q142 -11 84 60T26 241ZM192 187Q192
159 209 133T265 107Q302 107 319 131T339 187H192Z" />
<glyph unicode="&#x1e80;" glyph-name="Wgrave" horiz-adv-x="906" d="M15 674H209L248 424Q253 389 265 307T283 187H285Q297 279 324 426L367 674H560L602 414Q617 315 632 192H634Q645 275 668 426L708 674H891L725 0H528L483 264Q467 357 455 466H453Q434
328 421 263L370 0H170L15 674ZM274 836H458L538 712H395L274 836Z" />
<glyph unicode="&#x1e81;" glyph-name="wgrave" horiz-adv-x="769" d="M8 492H191L220 311Q230 251 244 148H246Q250 173 279 310L318 492H459L496 317Q519 209 529 148H531Q537 209 555 319L585 492H761L614 0H444L410 146Q398 200 383 296H381Q372 211 355 148L319
0H149L8 492ZM224 706H384L469 550H347L224 706Z" />
<glyph unicode="&#x1e82;" glyph-name="Wacute" horiz-adv-x="906" d="M15 674H209L248 424Q253 389 265 307T283 187H285Q297 279 324 426L367 674H560L602 414Q617 315 632 192H634Q645 275 668 426L708 674H891L725 0H528L483 264Q467 357 455 466H453Q434
328 421 263L370 0H170L15 674ZM385 710L466 836H649L529 710H385Z" />
<glyph unicode="&#x1e83;" glyph-name="wacute" horiz-adv-x="769" d="M8 492H191L220 311Q230 251 244 148H246Q250 173 279 310L318 492H459L496 317Q519 209 529 148H531Q537 209 555 319L585 492H761L614 0H444L410 146Q398 200 383 296H381Q372 211 355 148L319
0H149L8 492ZM306 550L392 706H551L429 550H306Z" />
<glyph unicode="&#x1e84;" glyph-name="Wdieresis" horiz-adv-x="906" d="M15 674H209L248 424Q253 389 265 307T283 187H285Q297 279 324 426L367 674H560L602 414Q617 315 632 192H634Q645 275 668 426L708 674H891L725 0H528L483 264Q467 357 455 466H453Q434
328 421 263L370 0H170L15 674ZM280 754T280 786T302 840T358 862Q389 862 410 840T432 786T411 732T358 709H357Q325 709 303 731ZM498 754T498 786T520 840T575 862Q607 862 628 840T650 786T628 732T575 709H574Q541 709 520 731Z" />
<glyph unicode="&#x1e85;" glyph-name="wdieresis" horiz-adv-x="769" d="M8 492H191L220 311Q230 251 244 148H246Q250 173 279 310L318 492H459L496 317Q519 209 529 148H531Q537 209 555 319L585 492H761L614 0H444L410 146Q398 200 383 296H381Q372 211 355
148L319 0H149L8 492ZM194 630Q194 664 217 686T275 709Q307 709 329 687T351 630Q351 597 329 574T275 551H274Q240 551 217 574T194 630ZM416 630Q416 664 438 686T496 709Q529 709 551 687T573 630Q573 597 551 574T496 551H494Q461 551 439 574T416 630Z" />
<glyph unicode="&#x1ea0;" glyph-name="uni1EA0" horiz-adv-x="675" d="M14 0L210 674H450L651 0H456L413 156H239L201 0H14ZM250 -159Q250 -125 273 -103T330 -80Q363 -80 384 -102T406 -159Q406 -192 384 -215T329 -238T273 -215T250 -159ZM263 290H388L357
411Q351 433 339 484T324 544H322Q317 525 307 478T292 410L263 290Z" />
<glyph unicode="&#x1ea1;" glyph-name="uni1EA1" horiz-adv-x="548" d="M27 144Q27 239 104 286T312 335V339Q312 381 232 381Q155 381 93 344L61 459Q149 503 265 503Q385 503 439 445T493 286V120Q493 33 501 0H339L329 43H326Q278 -11 189 -11Q116 -11 72 34T27
144ZM196 -159Q196 -125 219 -103T276 -80Q309 -80 330 -102T352 -159Q352 -192 330 -215T275 -238T219 -215T196 -159ZM203 161Q203 138 217 126T254 114Q274 114 292 126T316 159Q318 167 318 185V225Q203 225 203 161Z" />
<glyph unicode="&#x1ea2;" glyph-name="uni1EA2" horiz-adv-x="675" d="M14 0L210 674H450L651 0H456L413 156H239L201 0H14ZM220 836Q263 921 352 921Q395 921 425 894T455 831Q455 803 442 784T409 745T378 704L298 721Q305 744 325 767T345 807Q345 820 337
828T317 837Q293 837 274 803L220 836ZM263 290H388L357 411Q351 433 339 484T324 544H322Q317 525 307 478T292 410L263 290Z" />
<glyph unicode="&#x1ea3;" glyph-name="uni1EA3" horiz-adv-x="548" d="M27 144Q27 239 104 286T312 335V339Q312 381 232 381Q155 381 93 344L61 459Q149 503 265 503Q385 503 439 445T493 286V120Q493 33 501 0H339L329 43H326Q278 -11 189 -11Q116 -11 72 34T27
144ZM150 677Q192 761 281 761Q326 761 356 735T387 669Q387 638 372 614T336 568T307 526L223 544Q229 568 252 596T276 644Q276 658 268 666T247 675Q226 675 206 642L150 677ZM203 161Q203 138 217 126T254 114Q274 114 292 126T316 159Q318 167 318 185V225Q203
225 203 161Z" />
<glyph unicode="&#x1ea4;" glyph-name="uni1EA4" horiz-adv-x="675" d="M14 0L210 674H450L651 0H456L413 156H239L201 0H14ZM186 710L274 836H398L487 710H377L337 770H335L296 710H186ZM263 290H388L357 411Q351 433 339 484T324 544H322Q317 525 307 478T292
410L263 290ZM435 804L508 921H656L517 804H435Z" />
<glyph unicode="&#x1ea5;" glyph-name="uni1EA5" horiz-adv-x="548" d="M27 144Q27 239 104 286T312 335V339Q312 381 232 381Q155 381 93 344L61 459Q149 503 265 503Q385 503 439 445T493 286V120Q493 33 501 0H339L329 43H326Q278 -11 189 -11Q116 -11 72 34T27
144ZM116 550L208 706H332L423 550H312L271 634H269L227 550H116ZM203 161Q203 138 217 126T254 114Q274 114 292 126T316 159Q318 167 318 185V225Q203 225 203 161ZM381 650L461 808H592L469 650H381Z" />
<glyph unicode="&#x1ea6;" glyph-name="uni1EA6" horiz-adv-x="675" d="M14 0L210 674H450L651 0H456L413 156H239L201 0H14ZM180 710L268 836H393L481 710H371L331 770H329L290 710H180ZM263 290H388L357 411Q351 433 339 484T324 544H322Q317 525 307 478T292
410L263 290ZM363 910H512L574 793H484L363 910Z" />
<glyph unicode="&#x1ea7;" glyph-name="uni1EA7" horiz-adv-x="548" d="M27 144Q27 239 104 286T312 335V339Q312 381 232 381Q155 381 93 344L61 459Q149 503 265 503Q385 503 439 445T493 286V120Q493 33 501 0H339L329 43H326Q278 -11 189 -11Q116 -11 72 34T27
144ZM119 550L211 706H335L426 550H315L274 634H272L230 550H119ZM203 161Q203 138 217 126T254 114Q274 114 292 126T316 159Q318 167 318 185V225Q203 225 203 161ZM314 810H443L514 650H426L314 810Z" />
<glyph unicode="&#x1ea8;" glyph-name="uni1EA8" horiz-adv-x="675" d="M14 0L210 674H450L651 0H456L413 156H239L201 0H14ZM181 710L269 836H393L482 710H372L332 770H330L291 710H181ZM263 290H388L357 411Q351 433 339 484T324 544H322Q317 525 307 478T292
410L263 290ZM391 881Q431 958 510 958Q551 958 578 935T605 876Q605 852 593 835T562 799T532 760L466 775Q472 796 493 819T514 857Q514 870 506 878T485 886Q459 886 441 850L391 881Z" />
<glyph unicode="&#x1ea9;" glyph-name="uni1EA9" horiz-adv-x="548" d="M27 144Q27 239 104 286T312 335V339Q312 381 232 381Q155 381 93 344L61 459Q149 503 265 503Q385 503 439 445T493 286V120Q493 33 501 0H339L329 43H326Q278 -11 189 -11Q116 -11 72 34T27
144ZM118 550L210 706H334L425 550H314L273 634H271L229 550H118ZM203 161Q203 138 217 126T254 114Q274 114 292 126T316 159Q318 167 318 185V225Q203 225 203 161ZM326 753Q366 831 447 831Q486 831 514 806T542 748Q542 714 510 681T470 633L398 648Q404 668
423 689T442 727Q442 738 435 746T416 754Q396 754 376 722L326 753Z" />
<glyph unicode="&#x1eaa;" glyph-name="uni1EAA" horiz-adv-x="675" d="M14 0L210 674H450L651 0H456L413 156H239L201 0H14ZM166 710L266 836H400L500 710H378L334 769H332L288 710H166ZM187 854Q186 910 209 942T275 975Q308 975 340 956Q372 939 384 939T401
947T409 978H489Q495 855 401 855Q377 855 331 877Q306 890 293 890Q272 890 269 854H187ZM263 290H388L357 411Q351 433 339 484T324 544H322Q317 525 307 478T292 410L263 290Z" />
<glyph unicode="&#x1eab;" glyph-name="uni1EAB" horiz-adv-x="548" d="M27 144Q27 239 104 286T312 335V339Q312 381 232 381Q155 381 93 344L61 459Q149 503 265 503Q385 503 439 445T493 286V120Q493 33 501 0H339L329 43H326Q278 -11 189 -11Q116 -11 72 34T27
144ZM115 550L212 686H336L432 550H321L275 621H273L228 550H115ZM128 704Q127 761 150 793T215 825Q245 825 281 807Q311 790 324 790T342 797T350 829H429Q435 705 342 705Q315 705 271 728Q243 741 233 741Q212 741 209 704H128ZM203 161Q203 138 217 126T254
114Q274 114 292 126T316 159Q318 167 318 185V225Q203 225 203 161Z" />
<glyph unicode="&#x1eac;" glyph-name="uni1EAC" horiz-adv-x="675" d="M14 0L210 674H450L651 0H456L413 156H239L201 0H14ZM168 710L267 836H402L501 710H380L335 769H333L289 710H168ZM247 -157Q247 -124 270 -102T326 -80Q358 -80 379 -102T401 -157Q401 -188
379 -210T326 -233H325Q293 -233 270 -211T247 -157ZM263 290H388L357 411Q351 433 339 484T324 544H322Q317 525 307 478T292 410L263 290Z" />
<glyph unicode="&#x1ead;" glyph-name="uni1EAD" horiz-adv-x="548" d="M27 144Q27 239 104 286T312 335V339Q312 381 232 381Q155 381 93 344L61 459Q149 503 265 503Q385 503 439 445T493 286V120Q493 33 501 0H339L329 43H326Q278 -11 189 -11Q116 -11 72 34T27
144ZM112 550L214 706H334L435 550H322L275 634H273L226 550H112ZM196 -159Q196 -125 219 -103T276 -80Q309 -80 330 -102T352 -159Q352 -192 330 -215T275 -238T219 -215T196 -159ZM203 161Q203 138 217 126T254 114Q274 114 292 126T316 159Q318 167 318 185V225Q203
225 203 161Z" />
<glyph unicode="&#x1eae;" glyph-name="uni1EAE" horiz-adv-x="675" d="M14 0L210 674H450L651 0H456L413 156H239L201 0H14ZM182 829H260Q274 783 334 783T407 829H483Q477 774 438 736T331 698Q263 698 226 734T182 829ZM263 290H388L357 411Q351 433 339 484T324
544H322Q317 525 307 478T292 410L263 290ZM276 819L344 936H498L369 819H276Z" />
<glyph unicode="&#x1eaf;" glyph-name="uni1EAF" horiz-adv-x="548" d="M27 144Q27 239 104 286T312 335V339Q312 381 232 381Q155 381 93 344L61 459Q149 503 265 503Q385 503 439 445T493 286V120Q493 33 501 0H339L329 43H326Q278 -11 189 -11Q116 -11 72 34T27
144ZM99 678H182Q186 652 207 637T261 621Q297 621 318 637T341 678H423Q420 611 376 571T260 530Q189 530 145 570T99 678ZM203 161Q203 138 217 126T254 114Q274 114 292 126T316 159Q318 167 318 185V225Q203 225 203 161ZM207 671L295 825H427L298 671H207Z"
/>
<glyph unicode="&#x1eb0;" glyph-name="uni1EB0" horiz-adv-x="675" d="M14 0L210 674H450L651 0H456L413 156H239L201 0H14ZM177 936H331L399 819H307L177 936ZM189 829H267Q281 783 341 783T414 829H490Q484 774 445 736T338 698Q270 698 233 734T189 829ZM263
290H388L357 411Q351 433 339 484T324 544H322Q317 525 307 478T292 410L263 290Z" />
<glyph unicode="&#x1eb1;" glyph-name="uni1EB1" horiz-adv-x="548" d="M27 144Q27 239 104 286T312 335V339Q312 381 232 381Q155 381 93 344L61 459Q149 503 265 503Q385 503 439 445T493 286V120Q493 33 501 0H339L329 43H326Q278 -11 189 -11Q116 -11 72 34T27
144ZM110 825H242L330 671H239L110 825ZM112 678H195Q199 652 220 637T274 621Q310 621 331 637T354 678H436Q433 611 389 571T273 530Q202 530 158 570T112 678ZM203 161Q203 138 217 126T254 114Q274 114 292 126T316 159Q318 167 318 185V225Q203 225 203 161Z"
/>
<glyph unicode="&#x1eb2;" glyph-name="uni1EB2" horiz-adv-x="675" d="M14 0L210 674H450L651 0H456L413 156H239L201 0H14ZM190 829H269Q281 783 342 783T416 829H491Q485 774 446 736T339 698Q271 698 234 734T190 829ZM225 927Q265 1005 347 1005Q385 1005
412 981T440 923Q440 897 428 879T397 843T367 806L297 822Q303 842 322 864T342 901Q342 913 335 921T316 929Q295 929 275 897L225 927ZM263 290H388L357 411Q351 433 339 484T324 544H322Q317 525 307 478T292 410L263 290Z" />
<glyph unicode="&#x1eb3;" glyph-name="uni1EB3" horiz-adv-x="548" d="M27 144Q27 239 104 286T312 335V339Q312 381 232 381Q155 381 93 344L61 459Q149 503 265 503Q385 503 439 445T493 286V120Q493 33 501 0H339L329 43H326Q278 -11 189 -11Q116 -11 72 34T27
144ZM109 678H192Q196 652 217 637T271 621Q307 621 328 637T351 678H433Q430 611 386 571T270 530Q199 530 155 570T109 678ZM155 778Q195 856 276 856Q315 856 343 831T371 773Q371 739 339 706T299 658L226 673Q232 693 251 715T271 752Q271 763 264 771T245
779Q222 779 205 747L155 778ZM203 161Q203 138 217 126T254 114Q274 114 292 126T316 159Q318 167 318 185V225Q203 225 203 161Z" />
<glyph unicode="&#x1eb4;" glyph-name="uni1EB4" horiz-adv-x="675" d="M14 0L210 674H450L651 0H456L413 156H239L201 0H14ZM183 829H261Q275 783 335 783T408 829H484Q478 774 439 736T332 698Q264 698 227 734T183 829ZM186 856Q185 908 209 939T274 971Q305
971 339 953T383 935Q395 935 400 943T408 975H488Q494 851 400 851Q376 851 330 873Q305 886 292 886Q272 886 269 856H186ZM263 290H388L357 411Q351 433 339 484T324 544H322Q317 525 307 478T292 410L263 290Z" />
<glyph unicode="&#x1eb5;" glyph-name="uni1EB5" horiz-adv-x="548" d="M27 144Q27 239 104 286T312 335V339Q312 381 232 381Q155 381 93 344L61 459Q149 503 265 503Q385 503 439 445T493 286V120Q493 33 501 0H339L329 43H326Q278 -11 189 -11Q116 -11 72 34T27
144ZM116 678H198Q201 651 220 634T270 617Q303 617 323 635T345 678H426Q423 611 382 571T270 531Q200 531 159 571T116 678ZM122 718Q120 770 144 801T209 833Q241 833 275 814Q305 797 318 797T336 805T343 836H423Q429 713 335 713Q307 713 265 735Q237 748
227 748Q208 748 204 718H122ZM203 161Q203 138 217 126T254 114Q274 114 292 126T316 159Q318 167 318 185V225Q203 225 203 161Z" />
<glyph unicode="&#x1eb6;" glyph-name="uni1EB6" horiz-adv-x="675" d="M14 0L210 674H450L651 0H456L413 156H239L201 0H14ZM184 855H277Q281 810 330 810Q380 810 389 855H478Q477 793 440 757T331 720Q256 720 221 756T184 855ZM248 -157Q248 -124 271 -102T327
-80Q359 -80 380 -102T402 -157Q402 -188 380 -210T327 -233H326Q294 -233 271 -211T248 -157ZM263 290H388L357 411Q351 433 339 484T324 544H322Q317 525 307 478T292 410L263 290Z" />
<glyph unicode="&#x1eb7;" glyph-name="uni1EB7" horiz-adv-x="548" d="M27 144Q27 239 104 286T312 335V339Q312 381 232 381Q155 381 93 344L61 459Q149 503 265 503Q385 503 439 445T493 286V120Q493 33 501 0H339L329 43H326Q278 -11 189 -11Q116 -11 72 34T27
144ZM129 697H220Q227 639 273 639Q325 639 329 697H419Q418 629 381 588T273 547Q204 547 167 588T129 697ZM196 -159Q196 -125 219 -103T276 -80Q309 -80 330 -102T352 -159Q352 -192 330 -215T275 -238T219 -215T196 -159ZM203 161Q203 138 217 126T254 114Q274
114 292 126T316 159Q318 167 318 185V225Q203 225 203 161Z" />
<glyph unicode="&#x1eb8;" glyph-name="uni1EB8" horiz-adv-x="552" d="M62 0V674H500V527H243V418H485V272H243V148H514V0H62ZM199 -157Q199 -124 222 -102T278 -80Q310 -80 331 -102T353 -157Q353 -188 331 -210T278 -233H277Q245 -233 222 -211T199 -157Z" />
<glyph unicode="&#x1eb9;" glyph-name="uni1EB9" horiz-adv-x="539" d="M31 241Q31 286 46 330T90 414T170 478T286 503Q399 503 456 432T513 251Q513 211 506 183H202Q206 155 242 139T328 122Q403 122 463 141L486 21Q407 -11 302 -11Q173 -11 102 56T31 241ZM191
-159Q191 -125 214 -103T271 -80Q304 -80 325 -102T347 -159Q347 -192 325 -215T270 -238T214 -215T191 -159ZM200 305H347Q347 334 331 359T277 385Q241 385 222 360T200 305Z" />
<glyph unicode="&#x1eba;" glyph-name="uni1EBA" horiz-adv-x="552" d="M62 0V674H500V527H243V418H485V272H243V148H514V0H62ZM173 836Q216 921 305 921Q348 921 378 894T408 831Q408 803 395 784T362 745T331 704L251 721Q258 744 278 767T298 807Q298 820 290
828T270 837Q246 837 227 803L173 836Z" />
<glyph unicode="&#x1ebb;" glyph-name="uni1EBB" horiz-adv-x="539" d="M31 241Q31 286 46 330T90 414T170 478T286 503Q399 503 456 432T513 251Q513 211 506 183H202Q206 155 242 139T328 122Q403 122 463 141L486 21Q407 -11 302 -11Q173 -11 102 56T31 241ZM145
677Q187 761 276 761Q321 761 351 735T382 669Q382 638 367 614T331 568T302 526L218 544Q224 568 247 596T271 644Q271 658 263 666T242 675Q221 675 201 642L145 677ZM200 305H347Q347 334 331 359T277 385Q241 385 222 360T200 305Z" />
<glyph unicode="&#x1ebc;" glyph-name="uni1EBC" horiz-adv-x="552" d="M62 0V674H500V527H243V418H485V272H243V148H514V0H62ZM147 714Q145 783 166 818T228 853Q257 853 293 834Q324 814 336 814Q349 814 354 823T363 858H441Q445 721 357 721Q326 721 290 739Q259
757 249 757Q229 757 226 714H147Z" />
<glyph unicode="&#x1ebd;" glyph-name="uni1EBD" horiz-adv-x="539" d="M31 241Q31 286 46 330T90 414T170 478T286 503Q399 503 456 432T513 251Q513 211 506 183H202Q206 155 242 139T328 122Q403 122 463 141L486 21Q407 -11 302 -11Q173 -11 102 56T31 241ZM118
554Q116 622 140 659T206 697Q237 697 273 677Q305 657 315 657Q328 657 333 666T341 702H421Q425 562 333 562Q302 562 260 584Q233 600 224 600Q202 600 201 554H118ZM200 305H347Q347 334 331 359T277 385Q241 385 222 360T200 305Z" />
<glyph unicode="&#x1ebe;" glyph-name="uni1EBE" horiz-adv-x="552" d="M62 0V674H500V527H243V418H485V272H243V148H514V0H62ZM134 710L222 836H346L435 710H325L285 770H283L244 710H134ZM383 804L456 921H604L465 804H383Z" />
<glyph unicode="&#x1ebf;" glyph-name="uni1EBF" horiz-adv-x="539" d="M31 241Q31 286 46 330T90 414T170 478T286 503Q399 503 456 432T513 251Q513 211 506 183H202Q206 155 242 139T328 122Q403 122 463 141L486 21Q407 -11 302 -11Q173 -11 102 56T31 241ZM135
550L227 706H351L442 550H331L290 634H288L246 550H135ZM200 305H347Q347 334 331 359T277 385Q241 385 222 360T200 305ZM400 650L480 808H611L488 650H400Z" />
<glyph unicode="&#x1ec0;" glyph-name="uni1EC0" horiz-adv-x="552" d="M62 0V674H500V527H243V418H485V272H243V148H514V0H62ZM133 710L221 836H346L434 710H324L284 770H282L243 710H133ZM316 910H465L527 793H437L316 910Z" />
<glyph unicode="&#x1ec1;" glyph-name="uni1EC1" horiz-adv-x="539" d="M31 241Q31 286 46 330T90 414T170 478T286 503Q399 503 456 432T513 251Q513 211 506 183H202Q206 155 242 139T328 122Q403 122 463 141L486 21Q407 -11 302 -11Q173 -11 102 56T31 241ZM131
550L223 706H347L438 550H327L286 634H284L242 550H131ZM200 305H347Q347 334 331 359T277 385Q241 385 222 360T200 305ZM326 810H455L526 650H438L326 810Z" />
<glyph unicode="&#x1ec2;" glyph-name="uni1EC2" horiz-adv-x="552" d="M62 0V674H500V527H243V418H485V272H243V148H514V0H62ZM137 710L225 836H349L438 710H328L288 770H286L247 710H137ZM347 881Q387 958 466 958Q507 958 534 935T561 876Q561 852 549 835T518
799T488 760L422 775Q428 796 449 819T470 857Q470 870 462 878T441 886Q415 886 397 850L347 881Z" />
<glyph unicode="&#x1ec3;" glyph-name="uni1EC3" horiz-adv-x="539" d="M31 241Q31 286 46 330T90 414T170 478T286 503Q399 503 456 432T513 251Q513 211 506 183H202Q206 155 242 139T328 122Q403 122 463 141L486 21Q407 -11 302 -11Q173 -11 102 56T31 241ZM127
550L219 706H343L434 550H323L282 634H280L238 550H127ZM200 305H347Q347 334 331 359T277 385Q241 385 222 360T200 305ZM335 753Q375 831 456 831Q495 831 523 806T551 748Q551 714 519 681T479 633L407 648Q413 668 432 689T451 727Q451 738 444 746T425 754Q405
754 385 722L335 753Z" />
<glyph unicode="&#x1ec4;" glyph-name="uni1EC4" horiz-adv-x="552" d="M62 0V674H500V527H243V418H485V272H243V148H514V0H62ZM131 710L231 836H365L465 710H343L299 769H297L253 710H131ZM152 854Q151 910 174 942T240 975Q273 975 305 956Q337 939 349 939T366
947T374 978H454Q460 855 366 855Q342 855 296 877Q271 890 258 890Q237 890 234 854H152Z" />
<glyph unicode="&#x1ec5;" glyph-name="uni1EC5" horiz-adv-x="539" d="M31 241Q31 286 46 330T90 414T170 478T286 503Q399 503 456 432T513 251Q513 211 506 183H202Q206 155 242 139T328 122Q403 122 463 141L486 21Q407 -11 302 -11Q173 -11 102 56T31 241ZM122
550L219 686H343L439 550H328L282 621H280L235 550H122ZM135 704Q134 761 157 793T222 825Q252 825 288 807Q318 790 331 790T349 797T357 829H436Q442 705 349 705Q322 705 278 728Q250 741 240 741Q219 741 216 704H135ZM200 305H347Q347 334 331 359T277 385Q241
385 222 360T200 305Z" />
<glyph unicode="&#x1ec6;" glyph-name="uni1EC6" horiz-adv-x="552" d="M62 0V674H500V527H243V418H485V272H243V148H514V0H62ZM118 710L217 836H352L451 710H330L285 769H283L239 710H118ZM206 -157Q206 -124 229 -102T285 -80Q317 -80 338 -102T360 -157Q360
-188 338 -210T285 -233H284Q252 -233 229 -211T206 -157Z" />
<glyph unicode="&#x1ec7;" glyph-name="uni1EC7" horiz-adv-x="539" d="M31 241Q31 286 46 330T90 414T170 478T286 503Q399 503 456 432T513 251Q513 211 506 183H202Q206 155 242 139T328 122Q403 122 463 141L486 21Q407 -11 302 -11Q173 -11 102 56T31 241ZM108
550L210 706H330L431 550H318L271 634H269L222 550H108ZM191 -159Q191 -125 214 -103T271 -80Q304 -80 325 -102T347 -159Q347 -192 325 -215T270 -238T214 -215T191 -159ZM200 305H347Q347 334 331 359T277 385Q241 385 222 360T200 305Z" />
<glyph unicode="&#x1ec8;" glyph-name="uni1EC8" horiz-adv-x="305" d="M35 836Q78 921 167 921Q210 921 240 894T270 831Q270 803 257 784T224 745T193 704L113 721Q120 744 140 767T160 807Q160 820 152 828T132 837Q108 837 89 803L35 836ZM62 0V674H243V0H62Z" />
<glyph unicode="&#x1ec9;" glyph-name="uni1EC9" horiz-adv-x="292" d="M21 677Q63 761 152 761Q197 761 227 735T258 669Q258 638 243 614T207 568T178 526L94 544Q100 568 123 596T147 644Q147 658 139 666T118 675Q97 675 77 642L21 677ZM56 0V492H236V0H56Z" />
<glyph unicode="&#x1eca;" glyph-name="uni1ECA" horiz-adv-x="305" d="M62 0V674H243V0H62ZM75 -157Q75 -124 98 -102T154 -80Q186 -80 207 -102T229 -157Q229 -188 207 -210T154 -233H153Q121 -233 98 -211T75 -157Z" />
<glyph unicode="&#x1ecb;" glyph-name="uni1ECB" horiz-adv-x="292" d="M54 591T54 628T79 689T146 713T212 689T238 628Q238 591 213 567T145 542Q104 542 79 566ZM56 0V492H236V0H56ZM67 -159Q67 -125 90 -103T147 -80Q180 -80 201 -102T223 -159Q223 -192 201
-215T146 -238T90 -215T67 -159Z" />
<glyph unicode="&#x1ecc;" glyph-name="uni1ECC" horiz-adv-x="730" d="M34 333Q34 484 126 584T369 685Q524 685 610 587T696 344Q696 181 605 85T358 -11Q207 -11 121 87T34 333ZM225 336Q225 242 263 187T367 132Q431 132 468 189T505 338Q505 427 468 484T366
542T264 486T225 336ZM288 -157Q288 -124 311 -102T367 -80Q399 -80 420 -102T442 -157Q442 -188 420 -210T367 -233H366Q334 -233 311 -211T288 -157Z" />
<glyph unicode="&#x1ecd;" glyph-name="uni1ECD" horiz-adv-x="589" d="M31 243Q31 361 104 432T302 503Q417 503 487 433T558 251Q558 124 481 57T292 -11Q179 -11 105 57T31 243ZM216 -159Q216 -125 239 -103T296 -80Q329 -80 350 -102T372 -159Q372 -192 350
-215T295 -238T239 -215T216 -159ZM217 246Q217 188 237 152T297 116Q333 116 352 151T372 246Q372 302 353 339T296 376Q255 376 236 339T217 246Z" />
<glyph unicode="&#x1ece;" glyph-name="uni1ECE" horiz-adv-x="730" d="M34 333Q34 484 126 584T369 685Q524 685 610 587T696 344Q696 181 605 85T358 -11Q207 -11 121 87T34 333ZM225 336Q225 242 263 187T367 132Q431 132 468 189T505 338Q505 427 468 484T366
542T264 486T225 336ZM248 836Q291 921 380 921Q423 921 453 894T483 831Q483 803 470 784T437 745T406 704L326 721Q333 744 353 767T373 807Q373 820 365 828T345 837Q321 837 302 803L248 836Z" />
<glyph unicode="&#x1ecf;" glyph-name="uni1ECF" horiz-adv-x="589" d="M31 243Q31 361 104 432T302 503Q417 503 487 433T558 251Q558 124 481 57T292 -11Q179 -11 105 57T31 243ZM170 677Q212 761 301 761Q346 761 376 735T407 669Q407 638 392 614T356 568T327
526L243 544Q249 568 272 596T296 644Q296 658 288 666T267 675Q246 675 226 642L170 677ZM217 246Q217 188 237 152T297 116Q333 116 352 151T372 246Q372 302 353 339T296 376Q255 376 236 339T217 246Z" />
<glyph unicode="&#x1ed0;" glyph-name="uni1ED0" horiz-adv-x="730" d="M34 333Q34 484 126 584T369 685Q524 685 610 587T696 344Q696 181 605 85T358 -11Q207 -11 121 87T34 333ZM223 710L311 836H435L524 710H414L374 770H372L333 710H223ZM225 336Q225 242
263 187T367 132Q431 132 468 189T505 338Q505 427 468 484T366 542T264 486T225 336ZM472 804L545 921H693L554 804H472Z" />
<glyph unicode="&#x1ed1;" glyph-name="uni1ED1" horiz-adv-x="589" d="M31 243Q31 361 104 432T302 503Q417 503 487 433T558 251Q558 124 481 57T292 -11Q179 -11 105 57T31 243ZM146 550L238 706H362L453 550H342L301 634H299L257 550H146ZM217 246Q217 188
237 152T297 116Q333 116 352 151T372 246Q372 302 353 339T296 376Q255 376 236 339T217 246ZM411 650L491 808H622L499 650H411Z" />
<glyph unicode="&#x1ed2;" glyph-name="uni1ED2" horiz-adv-x="730" d="M34 333Q34 484 126 584T369 685Q524 685 610 587T696 344Q696 181 605 85T358 -11Q207 -11 121 87T34 333ZM219 710L307 836H432L520 710H410L370 770H368L329 710H219ZM225 336Q225 242
263 187T367 132Q431 132 468 189T505 338Q505 427 468 484T366 542T264 486T225 336ZM402 910H551L613 793H523L402 910Z" />
<glyph unicode="&#x1ed3;" glyph-name="uni1ED3" horiz-adv-x="589" d="M31 243Q31 361 104 432T302 503Q417 503 487 433T558 251Q558 124 481 57T292 -11Q179 -11 105 57T31 243ZM148 550L240 706H364L455 550H344L303 634H301L259 550H148ZM217 246Q217 188
237 152T297 116Q333 116 352 151T372 246Q372 302 353 339T296 376Q255 376 236 339T217 246ZM343 810H472L543 650H455L343 810Z" />
<glyph unicode="&#x1ed4;" glyph-name="uni1ED4" horiz-adv-x="730" d="M34 333Q34 484 126 584T369 685Q524 685 610 587T696 344Q696 181 605 85T358 -11Q207 -11 121 87T34 333ZM225 336Q225 242 263 187T367 132Q431 132 468 189T505 338Q505 427 468 484T366
542T264 486T225 336ZM229 710L317 836H441L530 710H420L380 770H378L339 710H229ZM439 881Q479 958 558 958Q599 958 626 935T653 876Q653 852 641 835T610 799T580 760L514 775Q520 796 541 819T562 857Q562 870 554 878T533 886Q507 886 489 850L439 881Z" />
<glyph unicode="&#x1ed5;" glyph-name="uni1ED5" horiz-adv-x="589" d="M31 243Q31 361 104 432T302 503Q417 503 487 433T558 251Q558 124 481 57T292 -11Q179 -11 105 57T31 243ZM143 550L235 706H359L450 550H339L298 634H296L254 550H143ZM217 246Q217 188
237 152T297 116Q333 116 352 151T372 246Q372 302 353 339T296 376Q255 376 236 339T217 246ZM351 753Q391 831 472 831Q511 831 539 806T567 748Q567 714 535 681T495 633L423 648Q429 668 448 689T467 727Q467 738 460 746T441 754Q421 754 401 722L351 753Z"
/>
<glyph unicode="&#x1ed6;" glyph-name="uni1ED6" horiz-adv-x="730" d="M34 333Q34 484 126 584T369 685Q524 685 610 587T696 344Q696 181 605 85T358 -11Q207 -11 121 87T34 333ZM202 710L302 836H436L536 710H414L370 769H368L324 710H202ZM223 854Q222 910
245 942T311 975Q344 975 376 956Q408 939 420 939T437 947T445 978H525Q531 855 437 855Q413 855 367 877Q342 890 329 890Q308 890 305 854H223ZM225 336Q225 242 263 187T367 132Q431 132 468 189T505 338Q505 427 468 484T366 542T264 486T225 336Z" />
<glyph unicode="&#x1ed7;" glyph-name="uni1ED7" horiz-adv-x="589" d="M31 243Q31 361 104 432T302 503Q417 503 487 433T558 251Q558 124 481 57T292 -11Q179 -11 105 57T31 243ZM135 550L232 686H356L452 550H341L295 621H293L248 550H135ZM148 704Q147 761
170 793T235 825Q265 825 301 807Q331 790 344 790T362 797T370 829H449Q455 705 362 705Q335 705 291 728Q263 741 253 741Q232 741 229 704H148ZM217 246Q217 188 237 152T297 116Q333 116 352 151T372 246Q372 302 353 339T296 376Q255 376 236 339T217 246Z"
/>
<glyph unicode="&#x1ed8;" glyph-name="uni1ED8" horiz-adv-x="730" d="M34 333Q34 484 126 584T369 685Q524 685 610 587T696 344Q696 181 605 85T358 -11Q207 -11 121 87T34 333ZM199 710L298 836H433L532 710H411L366 769H364L320 710H199ZM225 336Q225 242
263 187T367 132Q431 132 468 189T505 338Q505 427 468 484T366 542T264 486T225 336ZM288 -157Q288 -124 311 -102T367 -80Q399 -80 420 -102T442 -157Q442 -188 420 -210T367 -233H366Q334 -233 311 -211T288 -157Z" />
<glyph unicode="&#x1ed9;" glyph-name="uni1ED9" horiz-adv-x="589" d="M31 243Q31 361 104 432T302 503Q417 503 487 433T558 251Q558 124 481 57T292 -11Q179 -11 105 57T31 243ZM132 550L234 706H354L455 550H342L295 634H293L246 550H132ZM216 -159Q216 -125
239 -103T296 -80Q329 -80 350 -102T372 -159Q372 -192 350 -215T295 -238T239 -215T216 -159ZM217 246Q217 188 237 152T297 116Q333 116 352 151T372 246Q372 302 353 339T296 376Q255 376 236 339T217 246Z" />
<glyph unicode="&#x1eda;" glyph-name="uni1EDA" horiz-adv-x="730" d="M34 333Q34 484 126 584T369 685Q433 685 500 664Q513 660 533 651T568 635T594 629Q628 629 628 668Q628 705 603 744L729 766Q756 712 756 655Q756 606 729 574T649 536Q696 452 696 344Q696
181 605 85T358 -11Q207 -11 121 87T34 333ZM225 337Q225 246 263 189T367 132Q431 132 468 189T505 338Q505 427 468 484T366 542T264 484T225 337ZM292 710L373 836H556L436 710H292Z" />
<glyph unicode="&#x1edb;" glyph-name="uni1EDB" horiz-adv-x="604" d="M31 243Q31 361 104 432T302 503Q351 503 393 490Q402 487 432 475T473 462Q505 462 505 496Q505 533 481 571L605 592Q630 542 630 488Q630 440 604 411T531 374Q558 317 558 251Q558 124
481 57T292 -11Q179 -11 105 57T31 243ZM213 550L299 706H458L336 550H213ZM217 246Q217 188 237 152T297 116Q333 116 352 151T372 246Q372 302 353 339T296 376Q255 376 236 339T217 246Z" />
<glyph unicode="&#x1edc;" glyph-name="uni1EDC" horiz-adv-x="730" d="M34 333Q34 484 126 584T369 685Q433 685 500 664Q513 660 533 651T568 635T594 629Q628 629 628 668Q628 705 603 744L729 766Q756 712 756 655Q756 606 729 574T649 536Q696 452 696 344Q696
181 605 85T358 -11Q207 -11 121 87T34 333ZM190 836H374L454 712H311L190 836ZM225 337Q225 246 263 189T367 132Q431 132 468 189T505 338Q505 427 468 484T366 542T264 484T225 337Z" />
<glyph unicode="&#x1edd;" glyph-name="uni1EDD" horiz-adv-x="604" d="M31 243Q31 361 104 432T302 503Q351 503 393 490Q402 487 432 475T473 462Q505 462 505 496Q505 533 481 571L605 592Q630 542 630 488Q630 440 604 411T531 374Q558 317 558 251Q558 124
481 57T292 -11Q179 -11 105 57T31 243ZM133 706H293L378 550H256L133 706ZM217 246Q217 188 237 152T297 116Q333 116 352 151T372 246Q372 302 353 339T296 376Q255 376 236 339T217 246Z" />
<glyph unicode="&#x1ede;" glyph-name="uni1EDE" horiz-adv-x="730" d="M34 333Q34 484 126 584T369 685Q433 685 500 664Q513 660 533 651T568 635T594 629Q628 629 628 668Q628 705 603 744L729 766Q756 712 756 655Q756 606 729 574T649 536Q696 452 696 344Q696
181 605 85T358 -11Q207 -11 121 87T34 333ZM225 337Q225 246 263 189T367 132Q431 132 468 189T505 338Q505 427 468 484T366 542T264 484T225 337ZM248 836Q291 921 380 921Q423 921 453 894T483 831Q483 803 470 784T437 745T406 704L326 721Q333 744 353 767T373
807Q373 820 365 828T345 837Q321 837 302 803L248 836Z" />
<glyph unicode="&#x1edf;" glyph-name="uni1EDF" horiz-adv-x="604" d="M31 243Q31 361 104 432T302 503Q351 503 393 490Q402 487 432 475T473 462Q505 462 505 496Q505 533 481 571L605 592Q630 542 630 488Q630 440 604 411T531 374Q558 317 558 251Q558 124
481 57T292 -11Q179 -11 105 57T31 243ZM169 677Q211 761 300 761Q345 761 375 735T406 669Q406 638 391 614T355 568T326 526L242 544Q248 568 271 596T295 644Q295 658 287 666T266 675Q245 675 225 642L169 677ZM217 246Q217 188 237 152T297 116Q333 116 352
151T372 246Q372 302 353 339T296 376Q255 376 236 339T217 246Z" />
<glyph unicode="&#x1ee0;" glyph-name="uni1EE0" horiz-adv-x="730" d="M34 333Q34 484 126 584T369 685Q433 685 500 664Q513 660 533 651T568 635T594 629Q628 629 628 668Q628 705 603 744L729 766Q756 712 756 655Q756 606 729 574T649 536Q696 452 696 344Q696
181 605 85T358 -11Q207 -11 121 87T34 333ZM225 337Q225 246 263 189T367 132Q431 132 468 189T505 338Q505 427 468 484T366 542T264 484T225 337ZM226 714Q224 783 245 818T307 853Q336 853 372 834Q403 814 415 814Q428 814 433 823T442 858H520Q524 721 436
721Q405 721 369 739Q338 757 328 757Q308 757 305 714H226Z" />
<glyph unicode="&#x1ee1;" glyph-name="uni1EE1" horiz-adv-x="604" d="M31 243Q31 361 104 432T302 503Q351 503 393 490Q402 487 432 475T473 462Q505 462 505 496Q505 533 481 571L605 592Q630 542 630 488Q630 440 604 411T531 374Q558 317 558 251Q558 124
481 57T292 -11Q179 -11 105 57T31 243ZM143 554Q141 622 165 659T231 697Q262 697 298 677Q330 657 340 657Q353 657 358 666T366 702H446Q450 562 358 562Q327 562 285 584Q258 600 249 600Q227 600 226 554H143ZM217 246Q217 188 237 152T297 116Q333 116 352
151T372 246Q372 302 353 339T296 376Q255 376 236 339T217 246Z" />
<glyph unicode="&#x1ee2;" glyph-name="uni1EE2" horiz-adv-x="730" d="M34 333Q34 484 126 584T369 685Q433 685 500 664Q513 660 533 651T568 635T594 629Q628 629 628 668Q628 705 603 744L729 766Q756 712 756 655Q756 606 729 574T649 536Q696 452 696 344Q696
181 605 85T358 -11Q207 -11 121 87T34 333ZM225 337Q225 246 263 189T367 132Q431 132 468 189T505 338Q505 427 468 484T366 542T264 484T225 337ZM288 -157Q288 -124 311 -102T367 -80Q399 -80 420 -102T442 -157Q442 -188 420 -210T367 -233H366Q334 -233 311
-211T288 -157Z" />
<glyph unicode="&#x1ee3;" glyph-name="uni1EE3" horiz-adv-x="604" d="M31 243Q31 361 104 432T302 503Q351 503 393 490Q402 487 432 475T473 462Q505 462 505 496Q505 533 481 571L605 592Q630 542 630 488Q630 440 604 411T531 374Q558 317 558 251Q558 124
481 57T292 -11Q179 -11 105 57T31 243ZM217 246Q217 188 237 152T297 116Q333 116 352 151T372 246Q372 302 353 339T296 376Q255 376 236 339T217 246ZM220 -159Q220 -125 243 -103T300 -80Q333 -80 354 -102T376 -159Q376 -192 354 -215T299 -238T243 -215T220
-159Z" />
<glyph unicode="&#x1ee4;" glyph-name="uni1EE4" horiz-adv-x="697" d="M61 307V674H242V292Q242 132 348 132Q455 132 455 292V674H636V302Q636 147 561 68T343 -11Q61 -11 61 307ZM271 -157Q271 -124 294 -102T350 -80Q382 -80 403 -102T425 -157Q425 -188 403
-210T350 -233H349Q317 -233 294 -211T271 -157Z" />
<glyph unicode="&#x1ee5;" glyph-name="uni1EE5" horiz-adv-x="598" d="M55 202V492H235V231Q235 134 298 134Q341 134 356 176Q361 185 361 202V492H541V168Q541 84 545 0H390L382 65H378Q327 -11 229 -11Q145 -11 100 43T55 202ZM221 -159Q221 -125 244 -103T301
-80Q334 -80 355 -102T377 -159Q377 -192 355 -215T300 -238T244 -215T221 -159Z" />
<glyph unicode="&#x1ee6;" glyph-name="uni1EE6" horiz-adv-x="697" d="M61 307V674H242V292Q242 132 348 132Q455 132 455 292V674H636V302Q636 147 561 68T343 -11Q61 -11 61 307ZM231 836Q274 921 363 921Q406 921 436 894T466 831Q466 803 453 784T420 745T389
704L309 721Q316 744 336 767T356 807Q356 820 348 828T328 837Q304 837 285 803L231 836Z" />
<glyph unicode="&#x1ee7;" glyph-name="uni1EE7" horiz-adv-x="598" d="M55 202V492H235V231Q235 134 298 134Q341 134 356 176Q361 185 361 202V492H541V168Q541 84 545 0H390L382 65H378Q327 -11 229 -11Q145 -11 100 43T55 202ZM174 677Q216 761 305 761Q350
761 380 735T411 669Q411 638 396 614T360 568T331 526L247 544Q253 568 276 596T300 644Q300 658 292 666T271 675Q250 675 230 642L174 677Z" />
<glyph unicode="&#x1ee8;" glyph-name="uni1EE8" horiz-adv-x="750" d="M61 307V674H242V292Q242 132 348 132Q455 132 455 292V674H587Q619 674 630 683T642 713Q642 746 620 784L744 804Q768 756 768 702Q768 597 653 584L636 582V302Q636 147 561 68T343 -11Q61
-11 61 307ZM259 710L340 836H523L403 710H259Z" />
<glyph unicode="&#x1ee9;" glyph-name="uni1EE9" horiz-adv-x="598" d="M55 202V492H235V231Q235 134 298 134Q341 134 356 176Q361 185 361 202V492H463Q518 492 518 533Q518 566 494 603L618 624Q643 574 643 524Q643 478 617 450T548 415L541 414V168Q541 84
545 0H390L382 65H378Q327 -11 229 -11Q145 -11 100 43T55 202ZM235 550L321 706H480L358 550H235Z" />
<glyph unicode="&#x1eea;" glyph-name="uni1EEA" horiz-adv-x="750" d="M61 307V674H242V292Q242 132 348 132Q455 132 455 292V674H587Q619 674 630 683T642 713Q642 746 620 784L744 804Q768 756 768 702Q768 597 653 584L636 582V302Q636 147 561 68T343 -11Q61
-11 61 307ZM170 836H354L434 712H291L170 836Z" />
<glyph unicode="&#x1eeb;" glyph-name="uni1EEB" horiz-adv-x="598" d="M55 202V492H235V231Q235 134 298 134Q341 134 356 176Q361 185 361 202V492H463Q518 492 518 533Q518 566 494 603L618 624Q643 574 643 524Q643 478 617 450T548 415L541 414V168Q541 84
545 0H390L382 65H378Q327 -11 229 -11Q145 -11 100 43T55 202ZM143 706H303L388 550H266L143 706Z" />
<glyph unicode="&#x1eec;" glyph-name="uni1EEC" horiz-adv-x="750" d="M61 307V674H242V292Q242 132 348 132Q455 132 455 292V674H587Q619 674 630 683T642 713Q642 746 620 784L744 804Q768 756 768 702Q768 597 653 584L636 582V302Q636 147 561 68T343 -11Q61
-11 61 307ZM258 836Q301 921 390 921Q433 921 463 894T493 831Q493 803 480 784T447 745T416 704L336 721Q343 744 363 767T383 807Q383 820 375 828T355 837Q331 837 312 803L258 836Z" />
<glyph unicode="&#x1eed;" glyph-name="uni1EED" horiz-adv-x="598" d="M55 202V492H235V231Q235 134 298 134Q341 134 356 176Q361 185 361 202V492H463Q518 492 518 533Q518 566 494 603L618 624Q643 574 643 524Q643 478 617 450T548 415L541 414V168Q541 84
545 0H390L382 65H378Q327 -11 229 -11Q145 -11 100 43T55 202ZM181 677Q223 761 312 761Q357 761 387 735T418 669Q418 638 403 614T367 568T338 526L254 544Q260 568 283 596T307 644Q307 658 299 666T278 675Q257 675 237 642L181 677Z" />
<glyph unicode="&#x1eee;" glyph-name="uni1EEE" horiz-adv-x="750" d="M61 307V674H242V292Q242 132 348 132Q455 132 455 292V674H587Q619 674 630 683T642 713Q642 746 620 784L744 804Q768 756 768 702Q768 597 653 584L636 582V302Q636 147 561 68T343 -11Q61
-11 61 307ZM228 714Q226 783 247 818T309 853Q338 853 374 834Q405 814 417 814Q430 814 435 823T444 858H522Q526 721 438 721Q407 721 371 739Q340 757 330 757Q310 757 307 714H228Z" />
<glyph unicode="&#x1eef;" glyph-name="uni1EEF" horiz-adv-x="598" d="M55 202V492H235V231Q235 134 298 134Q341 134 356 176Q361 185 361 202V492H463Q518 492 518 533Q518 566 494 603L618 624Q643 574 643 524Q643 478 617 450T548 415L541 414V168Q541 84
545 0H390L382 65H378Q327 -11 229 -11Q145 -11 100 43T55 202ZM151 554Q149 622 173 659T239 697Q270 697 306 677Q338 657 348 657Q361 657 366 666T374 702H454Q458 562 366 562Q335 562 293 584Q266 600 257 600Q235 600 234 554H151Z" />
<glyph unicode="&#x1ef0;" glyph-name="uni1EF0" horiz-adv-x="750" d="M61 307V674H242V292Q242 132 348 132Q455 132 455 292V674H587Q619 674 630 683T642 713Q642 746 620 784L744 804Q768 756 768 702Q768 597 653 584L636 582V302Q636 147 561 68T343 -11Q61
-11 61 307ZM297 -159Q297 -125 320 -103T377 -80Q410 -80 431 -102T453 -159Q453 -192 431 -215T376 -238T320 -215T297 -159Z" />
<glyph unicode="&#x1ef1;" glyph-name="uni1EF1" horiz-adv-x="598" d="M55 202V492H235V231Q235 134 298 134Q341 134 356 176Q361 185 361 202V492H463Q518 492 518 533Q518 566 494 603L618 624Q643 574 643 524Q643 478 617 450T548 415L541 414V168Q541 84
545 0H390L382 65H378Q327 -11 229 -11Q145 -11 100 43T55 202ZM220 -159Q220 -125 243 -103T300 -80Q333 -80 354 -102T376 -159Q376 -192 354 -215T299 -238T243 -215T220 -159Z" />
<glyph unicode="&#x1ef2;" glyph-name="Ygrave" horiz-adv-x="629" d="M7 674H214L271 522Q291 472 317 398H319Q320 402 362 522L418 674H621L400 279V0H220V272L7 674ZM143 836H327L407 712H264L143 836Z" />
<glyph unicode="&#x1ef3;" glyph-name="ygrave" horiz-adv-x="545" d="M5 492H205L264 271Q268 256 275 225T285 184H289Q292 197 298 228T307 271L352 492H544L439 180Q386 33 347 -39T263 -149Q194 -211 100 -221L63 -69Q93 -64 124 -50Q161 -36 182 -5Q192
7 192 17Q192 26 185 44L5 492ZM119 706H279L364 550H242L119 706Z" />
<glyph unicode="&#x1ef4;" glyph-name="uni1EF4" horiz-adv-x="629" d="M7 674H214L271 522Q291 472 317 398H319Q320 402 362 522L418 674H621L400 279V0H220V272L7 674ZM238 -157Q238 -124 261 -102T317 -80Q349 -80 370 -102T392 -157Q392 -188 370 -210T317
-233H316Q284 -233 261 -211T238 -157Z" />
<glyph unicode="&#x1ef5;" glyph-name="uni1EF5" horiz-adv-x="545" d="M5 492H205L264 271Q268 256 275 225T285 184H289Q292 197 298 228T307 271L352 492H544L439 180Q386 33 347 -39T263 -149Q194 -211 100 -221L63 -69Q93 -64 124 -50Q161 -36 182 -5Q192
7 192 17Q192 26 185 44L5 492ZM360 -159Q360 -125 383 -103T440 -80Q473 -80 494 -102T516 -159Q516 -192 494 -215T439 -238T383 -215T360 -159Z" />
<glyph unicode="&#x1ef6;" glyph-name="uni1EF6" horiz-adv-x="629" d="M7 674H214L271 522Q291 472 317 398H319Q320 402 362 522L418 674H621L400 279V0H220V272L7 674ZM197 836Q240 921 329 921Q372 921 402 894T432 831Q432 803 419 784T386 745T355 704L275
721Q282 744 302 767T322 807Q322 820 314 828T294 837Q270 837 251 803L197 836Z" />
<glyph unicode="&#x1ef7;" glyph-name="uni1EF7" horiz-adv-x="545" d="M5 492H205L264 271Q268 256 275 225T285 184H289Q292 197 298 228T307 271L352 492H544L439 180Q386 33 347 -39T263 -149Q194 -211 100 -221L63 -69Q93 -64 124 -50Q161 -36 182 -5Q192
7 192 17Q192 26 185 44L5 492ZM160 677Q202 761 291 761Q336 761 366 735T397 669Q397 638 382 614T346 568T317 526L233 544Q239 568 262 596T286 644Q286 658 278 666T257 675Q236 675 216 642L160 677Z" />
<glyph unicode="&#x1ef8;" glyph-name="uni1EF8" horiz-adv-x="629" d="M7 674H214L271 522Q291 472 317 398H319Q320 402 362 522L418 674H621L400 279V0H220V272L7 674ZM168 714Q166 783 187 818T249 853Q278 853 314 834Q345 814 357 814Q370 814 375 823T384
858H462Q466 721 378 721Q347 721 311 739Q280 757 270 757Q250 757 247 714H168Z" />
<glyph unicode="&#x1ef9;" glyph-name="uni1EF9" horiz-adv-x="545" d="M5 492H205L264 271Q268 256 275 225T285 184H289Q292 197 298 228T307 271L352 492H544L439 180Q386 33 347 -39T263 -149Q194 -211 100 -221L63 -69Q93 -64 124 -50Q161 -36 182 -5Q192
7 192 17Q192 26 185 44L5 492ZM134 554Q132 622 156 659T222 697Q253 697 289 677Q321 657 331 657Q344 657 349 666T357 702H437Q441 562 349 562Q318 562 276 584Q249 600 240 600Q218 600 217 554H134Z" />
<glyph unicode="&#x2013;" glyph-name="endash" horiz-adv-x="500" d="M30 200V308H470V200H30Z" />
<glyph unicode="&#x2014;" glyph-name="emdash" horiz-adv-x="1000" d="M30 200V308H970V200H30Z" />
<glyph unicode="&#x2018;" glyph-name="quoteleft" horiz-adv-x="284" d="M23 398Q75 553 155 683L263 692Q210 544 188 407L23 398Z" />
<glyph unicode="&#x2019;" glyph-name="quoteright" horiz-adv-x="284" d="M22 398Q76 553 97 683L261 692Q212 543 130 407L22 398Z" />
<glyph unicode="&#x201a;" glyph-name="quotesinglbase" horiz-adv-x="284" d="M14 -98Q67 50 89 187L254 196Q202 41 122 -89L14 -98Z" />
<glyph unicode="&#x201c;" glyph-name="quotedblleft" horiz-adv-x="497" d="M22 398Q71 548 154 683L261 692Q208 541 187 407L22 398ZM238 398Q287 548 370 683L477 692Q424 541 403 407L238 398Z" />
<glyph unicode="&#x201d;" glyph-name="quotedblright" horiz-adv-x="497" d="M21 398Q73 547 95 683L260 692Q210 541 128 407L21 398ZM237 398Q289 547 311 683L476 692Q426 541 344 407L237 398Z" />
<glyph unicode="&#x201e;" glyph-name="quotedblbase" horiz-adv-x="503" d="M13 -98Q68 58 88 187L253 196Q201 41 121 -89L13 -98ZM229 -98Q284 58 304 187L469 196Q417 41 337 -89L229 -98Z" />
<glyph unicode="&#x2020;" glyph-name="dagger" horiz-adv-x="534" d="M31 354V491L202 478L187 674H348L333 478L504 491V354L333 368L348 -50H187L202 368L31 354Z" />
<glyph unicode="&#x2021;" glyph-name="daggerdbl" horiz-adv-x="534" d="M31 124V262L199 247V386L31 372V509L199 496L187 674H347L335 496L504 509V372L335 386V247L504 262V124L335 138L347 -50H187L199 138L31 124Z" />
<glyph unicode="&#x2022;" glyph-name="bullet" horiz-adv-x="362" d="M40 260Q39 320 80 361T181 403T281 362T322 261T281 160T181 119H180Q122 119 81 159T40 260Z" />
<glyph unicode="&#x2026;" glyph-name="ellipsis" horiz-adv-x="1000" d="M63 48T63 94T92 169T166 199Q212 199 240 170T269 94Q269 48 241 19T166 -11H165Q121 -11 92 18ZM397 48T397 94T426 169T500 199Q546 199 574 170T603 94Q603 48 575 19T500 -11H499Q455
-11 426 18ZM731 48T731 94T760 169T834 199Q880 199 908 170T937 94Q937 48 909 19T834 -11H833Q789 -11 760 18Z" />
<glyph unicode="&#x2030;" glyph-name="perthousand" horiz-adv-x="1340" d="M26 457Q26 542 78 601T218 661H219Q306 661 355 606T404 468Q404 371 348 316T213 260Q132 260 79 314T26 457ZM158 460Q158 412 173 384T217 356Q272 356 272 460Q272 565 216 565H215Q158
565 158 460ZM227 -11L597 660H689L320 -11H227ZM514 187Q514 273 566 332T706 391H707Q794 391 843 336T892 198Q892 101 836 46T701 -10Q620 -10 567 44T514 187ZM646 190Q646 86 705 86Q760 86 760 190Q760 295 704 295H703Q646 295 646 190ZM934 187Q934 273
986 332T1127 391H1128Q1215 391 1264 336T1313 198Q1313 102 1257 46T1122 -10Q1041 -10 988 44T934 187ZM1067 190Q1066 142 1081 114T1126 86Q1181 86 1181 190Q1181 295 1125 295H1124Q1067 295 1067 190Z" />
<glyph unicode="&#x2039;" glyph-name="guilsinglleft" horiz-adv-x="277" d="M26 252L134 446H255L142 252L255 59H134L26 252Z" />
<glyph unicode="&#x203a;" glyph-name="guilsinglright" horiz-adv-x="277" d="M22 59L135 252L22 446H141L251 252L142 59H22Z" />
<glyph unicode="&#x2044;" glyph-name="fraction" horiz-adv-x="127" d="M-166 -11L199 661H293L-72 -11H-166Z" />
<glyph unicode="&#x2070;" glyph-name="uni2070" horiz-adv-x="396" d="M21 639Q21 724 64 781T197 838Q285 838 330 781T376 636Q376 554 332 496T198 438H197Q108 438 65 495T21 639ZM150 637Q150 528 198 528H199Q246 528 246 637Q246 749 198 749T150 637Z" />
<glyph unicode="&#x2074;" glyph-name="uni2074" horiz-adv-x="413" d="M22 528V601L182 837H342V613H391V528H342V443H215V528H22ZM142 614L145 613H215V668Q215 682 217 709T220 747H217Q200 711 180 677L142 614Z" />
<glyph unicode="&#x2075;" glyph-name="uni2075" horiz-adv-x="365" d="M22 459L42 549Q85 530 139 530Q166 530 188 539T210 572Q210 620 97 620Q74 620 40 616L67 833H313V735H149L144 702Q151 703 169 703Q248 703 290 672Q335 640 335 577Q335 517 285 478T147
438Q72 438 22 459Z" />
<glyph unicode="&#x2076;" glyph-name="uni2076" horiz-adv-x="376" d="M21 611Q21 717 91 779Q155 836 267 837Q288 838 307 836V745Q291 749 271 747Q168 746 145 687H147Q180 708 228 708Q285 708 320 675T356 583Q356 516 308 477T195 438Q108 438 65 489T21
611ZM140 580Q140 560 154 544T192 527H193Q210 527 221 541T233 576Q233 628 185 628Q170 628 159 619T143 599Q140 584 140 580Z" />
<glyph unicode="&#x2077;" glyph-name="uni2077" horiz-adv-x="350" d="M25 735V833H334V759L172 443H40L204 734V735H25Z" />
<glyph unicode="&#x2078;" glyph-name="uni2078" horiz-adv-x="375" d="M23 547Q23 608 94 638V639Q67 653 51 675T35 724Q35 775 78 806T188 838H189Q260 838 297 807T335 735Q335 708 320 687T279 654V652Q307 643 329 620T352 560Q352 506 308 472T183 438Q102
438 63 472T23 547ZM145 559Q145 544 157 532T188 520H189Q205 520 216 529T228 555Q228 589 181 601Q145 588 145 559ZM148 727Q148 700 194 685Q223 695 223 721Q223 737 213 747T185 758H184Q167 758 158 749T148 727Z" />
<glyph unicode="&#x2079;" glyph-name="uni2079" horiz-adv-x="372" d="M21 697Q21 757 67 797T182 838Q267 838 309 787T351 668Q351 554 283 495Q219 440 94 438Q88 438 75 439T58 440V531Q69 529 95 529Q148 531 176 543Q217 562 227 593L225 595Q201 575 152
575Q99 575 60 606T21 697ZM143 703Q143 683 154 669T188 654Q214 654 225 671Q229 678 229 695Q229 717 218 733T184 750H183Q167 750 155 737T143 703Z" />
<glyph unicode="&#x207d;" glyph-name="uni207D" horiz-adv-x="215" d="M42 498T42 631T107 869H194Q141 756 141 631Q141 504 194 394H107Q42 498 42 631Z" />
<glyph unicode="&#x207e;" glyph-name="uni207E" horiz-adv-x="215" d="M21 394Q74 513 74 631Q74 759 21 869H107Q173 768 173 631Q173 500 107 394H21Z" />
<glyph unicode="&#x2080;" glyph-name="uni2080" horiz-adv-x="396" d="M21 49Q21 134 64 191T197 248Q285 248 330 191T376 46Q376 -36 332 -94T198 -152H197Q108 -152 65 -95T21 49ZM150 47Q150 -62 198 -62H199Q246 -62 246 47Q246 159 198 159T150 47Z" />
<glyph unicode="&#x2081;" glyph-name="uni2081" horiz-adv-x="324" d="M21 194L141 243H260V-147H122V133H121L38 98L21 194Z" />
<glyph unicode="&#x2082;" glyph-name="uni2082" horiz-adv-x="369" d="M16 -82L77 -28Q88 -18 106 -3T132 19T152 37T169 55T180 70T188 87T190 103Q190 121 176 131T138 142Q88 142 51 116L17 205Q80 248 173 248Q248 248 291 214T334 124Q334 104 327 85T312
53T286 22T259 -3T227 -29L206 -44V-47H341V-147H16V-82Z" />
<glyph unicode="&#x2083;" glyph-name="uni2083" horiz-adv-x="366" d="M10 -123L34 -34Q88 -60 135 -60Q162 -60 180 -51T199 -24Q199 -5 176 6T120 17H89V95H117Q189 95 189 127Q189 156 141 156Q92 156 48 132L24 216Q79 248 175 248Q248 248 288 220T329 148Q329
84 244 59V57Q287 53 315 29T343 -32Q343 -87 291 -119T153 -152Q60 -152 10 -123Z" />
<glyph unicode="&#x2084;" glyph-name="uni2084" horiz-adv-x="413" d="M22 11L182 247H342V23H391V-62H342V-147H215V-62H22V11ZM142 24L145 23H215V78Q215 92 217 119T220 157H217Q200 121 180 87L142 24Z" />
<glyph unicode="&#x2085;" glyph-name="uni2085" horiz-adv-x="365" d="M22 -131L42 -41Q85 -60 139 -60Q166 -60 188 -51T210 -18Q210 30 97 30Q74 30 40 26L67 243H313V145H149L144 112Q151 113 169 113Q248 113 290 82Q335 50 335 -13Q335 -73 285 -112T147
-152Q72 -152 22 -131Z" />
<glyph unicode="&#x2086;" glyph-name="uni2086" horiz-adv-x="376" d="M21 21Q21 127 91 189Q155 246 267 247Q288 248 307 246V155Q291 159 271 157Q168 156 145 97H147Q180 118 228 118Q285 118 320 85T356 -7Q356 -74 308 -113T195 -152Q108 -152 65 -101T21
21ZM140 -10Q140 -30 154 -46T192 -63H193Q210 -63 221 -49T233 -14Q233 38 185 38Q170 38 159 29T143 9Q140 -6 140 -10Z" />
<glyph unicode="&#x2087;" glyph-name="uni2087" horiz-adv-x="350" d="M25 145V243H334V169L172 -147H40L204 144V145H25Z" />
<glyph unicode="&#x2088;" glyph-name="uni2088" horiz-adv-x="375" d="M23 -43Q23 18 94 48V49Q67 63 51 85T35 134Q35 185 78 216T188 248H189Q260 248 297 217T335 145Q335 118 320 97T279 64V62Q307 53 329 30T352 -30Q352 -84 308 -118T183 -152Q102 -152
63 -118T23 -43ZM145 -31Q145 -46 157 -58T188 -70H189Q205 -70 216 -61T228 -35Q228 -1 181 11Q145 -2 145 -31ZM148 137Q148 110 194 95Q223 105 223 131Q223 147 213 157T185 168H184Q167 168 158 159T148 137Z" />
<glyph unicode="&#x2089;" glyph-name="uni2089" horiz-adv-x="372" d="M21 107Q21 167 67 207T182 248Q267 248 309 197T351 78Q351 -36 283 -95Q219 -150 94 -152Q88 -152 75 -151T58 -150V-59Q69 -61 95 -61Q148 -59 176 -47Q217 -28 227 3L225 5Q201 -15 152
-15Q99 -15 60 16T21 107ZM143 113Q143 93 154 79T188 64Q214 64 225 81Q229 88 229 105Q229 127 218 143T184 160H183Q167 160 155 147T143 113Z" />
<glyph unicode="&#x208d;" glyph-name="uni208D" horiz-adv-x="215" d="M42 -92T42 41T107 279H194Q141 166 141 41Q141 -86 194 -196H107Q42 -92 42 41Z" />
<glyph unicode="&#x208e;" glyph-name="uni208E" horiz-adv-x="215" d="M21 -196Q74 -77 74 41Q74 169 21 279H107Q173 178 173 41Q173 -90 107 -196H21Z" />
<glyph unicode="&#x20ab;" glyph-name="dong" horiz-adv-x="573" d="M61 330Q61 419 112 471T238 523Q308 523 335 488H337V545H222V628H337V680H487V628H552V545H487V266Q487 187 490 151H357L350 200H348Q312 143 229 143Q158 143 110 194T61 330ZM86 4V107H491V4H86ZM212
334Q212 296 230 275T277 254Q298 254 315 266T334 295Q337 302 337 318V357Q337 368 336 373Q333 391 316 404T278 417Q245 417 229 394T212 334Z" />
<glyph unicode="&#x20ac;" glyph-name="Euro" horiz-adv-x="573" d="M3 226V306H57V323Q57 327 57 335T58 347H3V428H71Q88 494 134 550Q228 661 380 661Q469 661 537 632L505 497Q445 520 394 520Q317 520 276 465Q267 454 256 428H492V347H238Q237 339 237 321V306H492V226H254Q262
201 278 182Q320 134 402 134Q466 134 512 158L539 26Q471 -11 380 -11Q299 -11 231 21T118 114Q83 163 69 226H3Z" />
<glyph unicode="&#x2113;" glyph-name="afii61289" horiz-adv-x="578" d="M23 194L110 253V457Q110 582 164 646T311 710Q389 710 434 663T480 534Q480 451 432 380T279 221V208Q279 174 298 155T350 135Q406 135 467 209L547 130Q463 -12 305 -12Q154 -12 115
123Q114 125 114 128L68 100L23 194ZM279 378Q349 456 349 533Q349 594 319 594Q279 594 279 479V378Z" />
<glyph unicode="&#x2116;" glyph-name="afii61352" horiz-adv-x="992" d="M62 0V650H257L336 446Q353 404 415 227H417Q405 346 405 506V650H558V0H378L292 216Q280 245 267 283T237 369T212 441H209Q216 299 216 150V0H62ZM603 455Q603 537 653 586T788 635H789Q870
635 919 586T968 461Q968 371 917 326T785 280T654 327T603 455ZM632 158V242H940V158H632ZM740 455Q740 417 752 392T786 366Q831 366 831 458Q831 496 819 522T785 549H784Q763 549 752 520T740 455Z" />
<glyph unicode="&#x2122;" glyph-name="trademark" horiz-adv-x="663" d="M25 598V674H269V598H194V401H98V598H25ZM290 401L305 674H453L460 636Q462 625 466 595T475 540H476Q485 586 496 636L504 674H641L653 401H562L559 503Q559 520 559 559T559 622H554L530
505L511 406H422L408 505Q395 596 391 622H386Q383 508 383 503L379 401H290Z" />
<glyph unicode="&#x2126;" glyph-name="uni2126" horiz-adv-x="761" d="M33 0V136H160V139Q113 176 79 236T45 374Q45 503 140 594T387 685Q539 685 627 595T716 386Q716 244 598 139V136H728V0H412V104Q530 198 530 350Q530 433 489 487T383 542Q317 542 275
488T232 349Q232 274 266 204T351 104V0H33Z" />
<glyph unicode="&#x212e;" glyph-name="estimated" horiz-adv-x="817" d="M35 186T35 325T144 562T409 661T673 563T782 325V316H177Q172 316 172 312V129Q172 119 181 108Q274 9 410 9Q555 9 650 120H705Q653 59 575 24T409 -11Q254 -11 145 87ZM172 340Q172
335 177 335H641Q646 335 646 340V524Q646 536 636 546Q541 641 410 641Q277 641 182 543Q172 533 172 520V340Z" />
<glyph unicode="&#x2202;" glyph-name="partialdiff" horiz-adv-x="375" d="M21 217Q21 324 81 395T244 467Q334 467 383 397H384V406Q384 483 342 536T225 589Q157 589 93 554L42 675Q134 734 250 734Q386 734 474 634T562 372Q562 191 474 90T251 -11Q142 -11
82 60T21 217ZM202 214Q202 176 221 154T271 132H272Q308 132 335 172T367 265Q363 287 342 308T289 329Q250 329 226 296T202 214Z" />
<glyph unicode="&#x2206;" glyph-name="uni2206" horiz-adv-x="658" d="M49 0V88L223 650H441L609 89V0H49ZM230 146H416L360 347Q348 393 323 508H319Q294 389 285 354L230 146Z" />
<glyph unicode="&#x220f;" glyph-name="product" horiz-adv-x="684" d="M11 503V650H671V503H578V-90H412V503H270V-90H104V503H11Z" />
<glyph unicode="&#x2211;" glyph-name="summation" horiz-adv-x="559" d="M17 11L220 277L28 533V650H526V503H256V499L413 284L247 62V58H549V-90H17V11Z" />
<glyph unicode="&#x2212;" glyph-name="minus" horiz-adv-x="596" d="M40 213V321H556V213H40Z" />
<glyph unicode="&#x2215;" glyph-name="uni2215" horiz-adv-x="127" d="M-166 -11L199 661H293L-72 -11H-166Z" />
<glyph unicode="&#x2219;" glyph-name="uni2219" horiz-adv-x="283" d="M39 212T39 258T68 333T142 363T215 334T245 258Q245 211 217 182T142 153H141Q96 153 68 182Z" />
<glyph unicode="&#x221a;" glyph-name="radical" horiz-adv-x="601" d="M16 378L208 456L308 180Q314 163 334 91H335Q335 92 342 127T355 185L509 845H627L399 -73H281L123 331L43 300L16 378Z" />
<glyph unicode="&#x221e;" glyph-name="infinity" horiz-adv-x="763" d="M23 264Q23 336 72 388T200 440Q250 440 292 413T382 339Q384 341 398 355T416 371T433 386T452 401T471 413T493 425T515 432T541 438T569 440Q644 440 691 390T738 264Q738 192 689 141T561
89H560Q526 89 491 105T434 140T380 189Q378 187 363 173T345 157T329 142T309 127T290 116T268 104T246 97T220 91T192 89Q117 89 70 139T23 264ZM137 264Q137 234 155 214T201 194H202Q210 194 218 195T235 202T250 211T266 223T280 235T296 249T310 263Q307
266 293 280T272 300T252 316T228 330T204 334Q176 334 157 314T137 264ZM452 265Q456 261 469 248T489 228T509 212T534 198T558 194H559Q586 194 605 214T625 264Q625 294 607 314T561 334Q542 334 520 322T487 299T452 265Z" />
<glyph unicode="&#x222b;" glyph-name="integral'" horiz-adv-x="377" d="M11 -160L30 -51Q50 -57 70 -57Q95 -57 112 -34Q135 -3 135 93Q135 185 127 323T119 543Q119 694 184 765Q226 813 306 813Q349 813 370 806L354 700Q337 705 317 705Q284 705 269 676Q251
644 251 532Q251 457 259 324T267 99Q267 -25 237 -85Q191 -172 89 -172Q40 -172 11 -160Z" />
<glyph unicode="&#x2248;" glyph-name="approxequal" horiz-adv-x="596" d="M17 130Q45 174 89 202T184 230Q197 230 210 228T232 224T253 218T270 211T289 202T305 194Q311 192 327 184T353 172T379 164T411 160Q473 160 518 225L580 162Q552 112 508 82T411
52Q397 52 384 54T356 61T334 69T310 79T291 88Q286 90 269 98T243 110T216 118T182 122Q127 122 75 57L17 130ZM17 347Q86 448 185 448Q200 448 214 446T242 439T263 432T286 421T305 412Q311 409 327 402T353 390T379 382T411 378Q465 378 514 444L579 376Q551
328 508 299T413 270Q365 270 291 307Q285 309 269 317T243 329T217 337T184 341Q128 341 75 275L17 347Z" />
<glyph unicode="&#x2260;" glyph-name="notequal" horiz-adv-x="596" d="M40 104V212H207L277 323H40V430H346L402 523H514L455 430H556V323H386L316 212H556V104H247L191 12H80L138 104H40Z" />
<glyph unicode="&#x2264;" glyph-name="lessequal" horiz-adv-x="596" d="M55 0V100H541V0H55ZM55 295V401L541 570V453L205 349V347L541 242V126L55 295Z" />
<glyph unicode="&#x2265;" glyph-name="greaterequal" horiz-adv-x="596" d="M55 0V100H541V0H55ZM55 126V242L392 347V349L55 453V570L541 401V295L55 126Z" />
<glyph unicode="&#x25ca;" glyph-name="lozenge" horiz-adv-x="596" d="M38 324L233 689H363L558 324L363 -41H233L38 324ZM179 327L283 119Q294 100 299 86H301Q302 88 308 100T316 119L416 321L312 529Q300 553 297 563H295Q286 541 279 529L179 327Z" />
<glyph unicode="&#xe000;" glyph-name="uniE000" horiz-adv-x="697" d="M34 328Q35 497 145 589T428 681Q555 681 623 648L587 504Q520 532 427 532Q338 532 281 484T224 337Q224 244 277 191T416 138Q456 138 472 144V260H382V400H646V32Q531 -7 414 -7Q226 -7
130 84T34 328ZM247 714Q245 783 266 818T328 853Q357 853 393 834Q424 814 436 814Q449 814 454 823T463 858H541Q545 721 457 721Q426 721 390 739Q359 757 349 757Q329 757 326 714H247Z" />
<glyph unicode="&#xe001;" glyph-name="uniE001" horiz-adv-x="865" d="M48 0L89 674H332L377 493Q411 351 429 246H433Q474 423 494 494L544 674H782L816 0H640L632 241Q628 398 629 513H626Q597 391 555 249L488 14H347L290 248Q257 388 237 513H235L224 241L214
0H48ZM266 710L365 836H500L599 710H478L433 769H431L387 710H266Z" />
<glyph unicode="&#xe002;" glyph-name="uniE002" horiz-adv-x="705" d="M62 0V674H275L382 467Q434 372 488 231H491Q477 356 477 515V674H642V0H452L338 224Q266 361 224 468H221Q227 332 227 166V0H62ZM186 710L285 836H420L519 710H398L353 769H351L307 710H186Z" />
<glyph unicode="&#xe003;" glyph-name="uniE003" horiz-adv-x="920" d="M14 360V492H77V497Q77 595 142 653Q201 707 298 707Q345 707 383 693L345 564Q329 571 310 571Q287 571 273 557Q256 541 256 505V492H397V510Q397 611 473 666T672 721Q762 721 815 697L780
562Q735 580 679 580Q576 580 576 506V492H881V66Q881 -89 807 -155Q736 -217 601 -217L584 -77Q648 -70 671 -46Q700 -20 700 104V360H578V0H397V360H258V0H77V360H14Z" />
<glyph unicode="&#xe004;" glyph-name="uniE004" horiz-adv-x="613" d="M14 360V492H77V510Q77 611 153 666T352 721Q452 721 505 692L474 556Q424 580 359 580Q256 580 256 506V492H561V66Q561 -89 487 -155Q416 -217 281 -217L264 -77Q328 -70 351 -46Q380 -20
380 104V360H258V0H77V360H14Z" />
<glyph unicode="&#xe005;" glyph-name="uniE005" horiz-adv-x="596" d="M31 245Q31 359 95 431T254 503Q340 503 381 440H383L389 492H545Q540 442 540 340V72Q540 -81 464 -148Q392 -209 256 -209Q145 -209 73 -173L107 -37Q173 -72 249 -72Q300 -72 331 -44T363
39V61H361Q318 6 238 6Q147 6 89 72T31 245ZM147 554Q145 622 169 659T235 697Q266 697 302 677Q334 657 344 657Q357 657 362 666T370 702H450Q454 562 362 562Q331 562 289 584Q262 600 253 600Q231 600 230 554H147ZM214 248Q214 199 235 168T294 137Q318 137
335 151T357 186Q360 196 360 223V289Q360 298 358 312Q345 368 294 368Q260 368 237 336T214 248Z" />
<glyph unicode="&#xe006;" glyph-name="uniE006" horiz-adv-x="871" d="M52 492H203L210 431H214Q268 503 359 503Q406 503 441 483T492 425H494Q526 465 562 483Q600 503 649 503Q729 503 772 448T816 290V0H641V263Q641 359 583 359Q543 359 528 317Q523 304
523 281V0H348V268Q348 359 291 359Q253 359 236 318Q231 307 231 282V0H56V325Q56 402 52 492ZM275 550L377 706H497L598 550H485L438 634H436L389 550H275Z" />
<glyph unicode="&#xe007;" glyph-name="uniE007" horiz-adv-x="599" d="M52 492H207L215 429H219Q238 457 275 480T366 503Q452 503 497 448T543 290V0H363V268Q363 358 300 358Q259 358 241 315Q236 304 236 279V0H56V325Q56 402 52 492ZM138 550L240 706H360L461
550H348L301 634H299L252 550H138Z" />
<glyph unicode="&#xe008;" glyph-name="uniE008" horiz-adv-x="573" d="M31 324Q31 394 45 453T90 559T170 634T288 661Q375 661 430 617L475 683L540 637L485 558Q542 472 542 326Q542 175 477 82T287 -11Q200 -11 139 37L98 -23L34 26L85 98Q31 186 31 324ZM201
325Q201 293 203 271L343 488Q328 525 287 525T224 474T201 325ZM229 160Q248 124 286 124Q325 124 348 174T372 325Q372 357 371 385L229 160Z" />
<glyph unicode="&#xe016;" glyph-name="uniE016" horiz-adv-x="616" d="M14 360V492H77V510Q77 611 153 666T352 721Q452 721 505 692L474 556Q424 580 359 580Q256 580 256 506V492H561V0H380V360H258V0H77V360H14Z" />
<glyph unicode="&#xe017;" glyph-name="uniE017" horiz-adv-x="616" d="M14 360V492H77V513Q77 552 98 594T154 664Q228 721 353 721T561 676V0H380V580Q367 588 329 588Q293 588 275 567T256 509V492H334V360H258V0H77V360H14Z" />
<glyph unicode="&#xe018;" glyph-name="uniE018" horiz-adv-x="324" d="M21 784L141 833H260V443H122V723H121L38 688L21 784Z" />
<glyph unicode="&#xe019;" glyph-name="uniE019" horiz-adv-x="369" d="M16 443V508L77 562Q88 572 106 587T132 609T152 627T169 645T180 660T188 677T190 693Q190 711 176 721T138 732Q88 732 51 706L17 795Q80 838 173 838Q248 838 291 804T334 714Q334 694
327 675T312 643T286 612T259 587T227 561L206 546V543H341V443H16Z" />
<glyph unicode="&#xe020;" glyph-name="uniE020" horiz-adv-x="366" d="M10 467L34 556Q88 530 135 530Q162 530 180 539T199 566Q199 585 176 596T120 607H89V685H117Q189 685 189 717Q189 746 141 746Q92 746 48 722L24 806Q79 838 175 838Q248 838 288 810T329
738Q329 674 244 649V647Q287 643 315 619T343 558Q343 503 291 471T153 438Q60 438 10 467Z" />
<glyph unicode="&#xe184;" glyph-name="uniE184" horiz-adv-x="573" d="M61 330Q61 419 112 471T238 523Q308 523 335 488H337V545H222V628H337V680H487V628H552V545H487V266Q487 187 490 151H357L350 200H348Q312 143 229 143Q158 143 110 194T61 330ZM212 334Q212
296 230 275T277 254Q298 254 315 266T334 295Q337 302 337 318V357Q337 368 336 373Q333 391 316 404T278 417Q245 417 229 394T212 334Z" />
<glyph unicode="&#xe300;" glyph-name="uniE300" horiz-adv-x="300" d="M-12 678H71Q75 652 96 637T150 621Q186 621 207 637T230 678H312Q309 611 265 571T149 530Q78 530 34 570T-12 678ZM96 671L184 825H316L187 671H96Z" />
<glyph unicode="&#xe301;" glyph-name="uniE301" horiz-adv-x="300" d="M-14 825H118L206 671H115L-14 825ZM-12 678H71Q75 652 96 637T150 621Q186 621 207 637T230 678H312Q309 611 265 571T149 530Q78 530 34 570T-12 678Z" />
<glyph unicode="&#xe302;" glyph-name="uniE302" horiz-adv-x="300" d="M-12 678H71Q75 652 96 637T150 621Q186 621 207 637T230 678H312Q309 611 265 571T149 530Q78 530 34 570T-12 678ZM34 778Q74 856 155 856Q194 856 222 831T250 773Q250 739 218 706T178
658L105 673Q111 693 130 715T150 752Q150 763 143 771T124 779Q101 779 84 747L34 778Z" />
<glyph unicode="&#xe303;" glyph-name="uniE303" horiz-adv-x="300" d="M-5 678H77Q80 651 99 634T149 617Q182 617 202 635T224 678H305Q302 611 261 571T149 531Q79 531 38 571T-5 678ZM1 718Q-1 770 23 801T88 833Q120 833 154 814Q184 797 197 797T215 805T222
836H302Q308 713 214 713Q186 713 144 735Q116 748 106 748Q87 748 83 718H1Z" />
<glyph unicode="&#xe304;" glyph-name="uniE304" horiz-adv-x="300" d="M-3 550L89 706H213L304 550H193L152 634H150L108 550H-3ZM262 650L342 808H473L350 650H262Z" />
<glyph unicode="&#xe305;" glyph-name="uniE305" horiz-adv-x="300" d="M-3 550L89 706H213L304 550H193L152 634H150L108 550H-3ZM192 810H321L392 650H304L192 810Z" />
<glyph unicode="&#xe306;" glyph-name="uniE306" horiz-adv-x="300" d="M-3 550L89 706H213L304 550H193L152 634H150L108 550H-3ZM205 753Q245 831 326 831Q365 831 393 806T421 748Q421 714 389 681T349 633L277 648Q283 668 302 689T321 727Q321 738 314 746T295
754Q275 754 255 722L205 753Z" />
<glyph unicode="&#xe307;" glyph-name="uniE307" horiz-adv-x="300" d="M-8 550L89 686H213L309 550H198L152 621H150L105 550H-8ZM5 704Q4 761 27 793T92 825Q122 825 158 807Q188 790 201 790T219 797T227 829H306Q312 705 219 705Q192 705 148 728Q120 741
110 741Q89 741 86 704H5Z" />
<glyph unicode="&#xe308;" glyph-name="uniE308" horiz-adv-x="300" d="M72 -159Q72 -125 95 -103T152 -80Q185 -80 206 -102T228 -159Q228 -192 206 -215T151 -238T95 -215T72 -159Z" />
<glyph unicode="&#xe309;" glyph-name="uniE309" horiz-adv-x="300" d="M19 677Q61 761 150 761Q195 761 225 735T256 669Q256 638 241 614T205 568T176 526L92 544Q98 568 121 596T145 644Q145 658 137 666T116 675Q95 675 75 642L19 677Z" />
<glyph unicode="&#xe310;" glyph-name="uniE310" horiz-adv-x="300" d="M124 407V492H141Q199 492 199 533Q199 566 175 603L299 624Q324 574 324 523T288 440T182 407H124Z" />
<glyph unicode="&#xe311;" glyph-name="uniE311" horiz-adv-x="300" d="M1 829H79Q93 783 153 783T226 829H302Q296 774 257 736T150 698Q82 698 45 734T1 829ZM95 819L163 936H317L188 819H95Z" />
</font>
</defs>
</svg>
